<?xml version="1.0" encoding="UTF-8"?>
<svg width="81px" height="89px" viewBox="0 0 81 89" version="1.1" xmlns="http://www.w3.org/2000/svg" xmlns:xlink="http://www.w3.org/1999/xlink">
    <title>记录@1x</title>
    <g id="PC" stroke="none" stroke-width="1" fill="none" fill-rule="evenodd">
        <g id="无流动资金" transform="translate(-921.000000, -510.000000)">
            <g id="编组-5" transform="translate(727.000000, 264.000000)">
                <g id="记录" transform="translate(194.000000, 246.000000)">
                    <path d="M43.2757418,-6.10682563e-05 L43.2764828,17.854093 C43.2764828,21.9125169 46.5616491,25.2025196 50.6141071,25.2025196 L50.6141071,25.2025196 L68.4627418,25.2019389 L68.4635828,78.9482781 C68.4635828,81.8550734 66.1071596,84.2114966 63.2003642,84.2114966 L5.30496035,84.2114966 C2.39816501,84.2114966 0.0417418019,81.8550734 0.0417418019,78.9482781 L0.0417418019,5.26321854 C0.0417418019,2.35642321 2.39816501,1.91006607e-15 5.30496035,1.91006607e-15 L43.2757418,-6.10682563e-05 Z M36.5800107,63.655914 L12.4939892,63.655914 C11.30628,63.655914 10.3434515,64.6187425 10.3434515,65.8064516 C10.3434515,66.9941608 11.30628,67.9569892 12.4939892,67.9569892 L12.4939892,67.9569892 L36.5800107,67.9569892 C37.7677198,67.9569892 38.7305483,66.9941608 38.7305483,65.8064516 C38.7305483,64.6187425 37.7677198,63.655914 36.5800107,63.655914 L36.5800107,63.655914 Z M42.6015161,52.4731183 L12.4939892,52.4731183 C11.30628,52.4731183 10.3434515,53.4359468 10.3434515,54.6236559 C10.3434515,55.8113651 11.30628,56.7741935 12.4939892,56.7741935 L12.4939892,56.7741935 L42.6015161,56.7741935 C43.7892252,56.7741935 44.7520537,55.8113651 44.7520537,54.6236559 C44.7520537,53.4359468 43.7892252,52.4731183 42.6015161,52.4731183 L42.6015161,52.4731183 Z M47.4107086,1.91006607e-15 L68.4635828,21.0528742 L68.4627418,21.1409389 L47.3197418,-6.10682563e-05 L47.4107086,1.91006607e-15 Z" id="形状结合" fill="#B5BACC" fill-rule="nonzero"></path>
                    <path d="M68.3895688,21.0528742 L52.6739272,21.0528742 C49.7671318,21.0528742 47.4107086,18.696451 47.4107086,15.7896556 L47.4107086,0.104853152 L68.3895688,21.0528742 Z" id="路径" fill="#B5BACC" fill-rule="nonzero"></path>
                    <g id="编组-16" transform="translate(47.311828, 55.913978)">
                        <circle id="椭圆形" fill="#3870FC" cx="16.344086" cy="16.344086" r="16.344086"></circle>
                        <rect id="矩形" fill="#FFFFFF" x="14.6236559" y="6.88172043" width="3.44086022" height="13.7634409" rx="1.72043011"></rect>
                        <circle id="椭圆形" fill="#FFFFFF" cx="16.344086" cy="24.9462366" r="1.72043011"></circle>
                    </g>
                    <g id="编组-15" transform="translate(10.322581, 18.924731)" fill="#FFFFFF">
                        <path d="M0.00325418116,18.1851909 C0.00325418116,20.0297384 1.59785681,21.5053763 3.53723838,21.5053763 L3.88201733,21.5053763 L3.79582259,6.21612714 C3.79582259,5.68325787 3.9251147,5.23236848 4.18369891,4.82246904 C4.44228312,4.41256959 4.83015943,4.12563999 5.34732785,3.87970032 C5.86449627,3.6747506 6.38166469,3.59277071 6.85573574,3.6747506 C7.32980679,3.75673049 7.80387785,3.96168021 8.19175416,4.33058971 L14.4839699,9.7002724 C14.5270673,9.74126235 14.7856515,9.94621207 15.0011384,10.1511618 C15.6475989,10.6840311 15.9923778,10.9709607 15.9923778,11.8317495 C15.9923778,12.5695685 15.6906962,13.2254076 15.1735278,13.7172869 C14.6563594,14.2091663 13.9668015,14.4960959 13.1910489,14.4960959 C12.4152963,14.4960959 11.7257384,14.2091663 11.2085699,13.7172869 C10.6914015,13.2254076 10.3897199,12.5695685 10.3897199,11.8317495 C10.3897199,10.9299707 10.7775963,10.6020512 11.4671542,10.028192 C11.5533489,9.94621207 12.0705173,9.49532268 12.2860042,9.3313629 L9.39848047,6.87196625 L8.88131205,7.32285564 C7.32980679,8.63453385 6.5109568,9.3313629 6.5109568,11.8727394 C6.5109568,13.635307 7.24361206,15.1929249 8.45033837,16.3406434 C9.65706468,17.4883618 11.337862,18.1851909 13.1479515,18.1851909 C15.0011384,18.1851909 16.6388383,17.4883618 17.8455647,16.3406434 C19.052291,15.1929249 19.7849462,13.5943171 19.7849462,11.8727394 C19.7849462,9.37235285 18.9229989,8.63453385 17.414591,7.44582547 C17.3283962,7.36384558 17.2422015,7.28186569 16.9405199,7.03592603 L10.7775963,1.58426344 C9.82945416,0.764464557 8.66582521,0.231595282 7.4590989,0.0676355051 C6.25237259,-0.0963242718 5.00254891,0.0266455609 3.79582259,0.559514836 C2.58909628,1.05139417 1.64095418,1.87119305 0.994493652,2.85495171 C0.348033128,3.83871038 -0.0398431872,4.98642881 0.00325418116,6.21612714 L0.00325418116,18.1851909 L0.00325418116,18.1851909 Z" id="路径"></path>
                        <path d="M17.4208587,5.02270468 L18.2870893,4.32567627 C18.7202045,3.95666123 19.2495676,3.75165288 19.7789307,3.66964954 C20.3082939,3.5876462 20.8857809,3.66964954 21.4632679,3.87465789 C21.992631,4.07966625 22.4257463,4.40767961 22.7626137,4.81769632 C23.0513572,5.22771303 23.2438529,5.67873141 23.195729,6.21175313 L23.0994812,21.5053763 L23.4844725,21.5053763 C25.6500489,21.5053763 27.38251,20.0293162 27.4306339,18.184241 L27.5268817,6.21175313 C27.5268817,4.981703 27.1418904,3.79265455 26.4200316,2.84961612 C25.6981728,1.86557602 24.5913227,1.08654428 23.2919768,0.553522556 C21.9445071,0.0615025062 20.5489135,-0.102504177 19.2014437,0.0615025062 C17.853974,0.225509189 16.5546282,0.75853091 15.4959019,1.57856433 L14.6296714,2.27559273 L13.7634409,2.97262113 L16.9877434,5.43272138 L17.4208587,5.02270468 Z" id="路径"></path>
                    </g>
                </g>
            </g>
        </g>
    </g>
</svg>