<?xml version="1.0" encoding="UTF-8"?>
<svg width="36px" height="36px" viewBox="0 0 36 36" version="1.1" xmlns="http://www.w3.org/2000/svg" xmlns:xlink="http://www.w3.org/1999/xlink">
    <title>更多</title>
    <g id="H5" stroke="none" stroke-width="1" fill="none" fill-rule="evenodd">
        <g id="画板" transform="translate(-1853.000000, -484.000000)">
            <g id="编组-10备份" transform="translate(45.000000, 465.000000)">
                <g id="更多" transform="translate(1808.000000, 19.000000)">
                    <rect id="矩形" x="0" y="0" width="36" height="36"></rect>
                    <path d="M18,1 C22.6944204,1 26.9444204,2.90278981 30.0208153,5.97918472 C33.0972102,9.05557963 35,13.3055796 35,18 C35,22.6944204 33.0972102,26.9444204 30.0208153,30.0208153 C26.9444204,33.0972102 22.6944204,35 18,35 C13.3055796,35 9.05557963,33.0972102 5.97918472,30.0208153 C2.90278981,26.9444204 1,22.6944204 1,18 C1,13.3055796 2.90278981,9.05557963 5.97918472,5.97918472 C9.05557963,2.90278981 13.3055796,1 18,1 Z" id="路径" stroke="#FFFFFF" stroke-width="2" fill-rule="nonzero"></path>
                    <g id="编组-2" transform="translate(7.000000, 16.000000)" fill="#FFFFFF" fill-rule="nonzero">
                        <path d="M20,4 C18.8954305,4 18,3.1045695 18,2 C18,0.8954305 18.8954305,0 20,0 C21.1045695,0 22,0.8954305 22,2 C22,3.1045695 21.1045695,4 20,4 Z" id="路径"></path>
                        <path d="M11,4 C9.8954305,4 9,3.1045695 9,2 C9,0.8954305 9.8954305,0 11,0 C12.1045695,0 13,0.8954305 13,2 C13,3.1045695 12.1045695,4 11,4 Z" id="路径"></path>
                        <path d="M2,4 C0.8954305,4 0,3.1045695 0,2 C0,0.8954305 0.8954305,0 2,0 C3.1045695,0 4,0.8954305 4,2 C4,3.1045695 3.1045695,4 2,4 Z" id="路径"></path>
                    </g>
                </g>
            </g>
        </g>
    </g>
</svg>