<?xml version="1.0" encoding="UTF-8"?>
<svg width="16px" height="16px" viewBox="0 0 16 16" version="1.1" xmlns="http://www.w3.org/2000/svg" xmlns:xlink="http://www.w3.org/1999/xlink">
    <title>新手任务</title>
    <g id="组件库" stroke="none" stroke-width="1" fill="none" fill-rule="evenodd">
        <g id="导航" transform="translate(-1771.000000, -503.000000)">
            <g id="编组-15" transform="translate(0.000000, 223.000000)">
                <g id="编组-10" transform="translate(1751.000000, 75.000000)">
                    <g id="编组-8备份-5" transform="translate(0.000000, 196.000000)">
                        <g id="编组-6" transform="translate(20.000000, 7.000000)">
                            <g id="新手任务" transform="translate(0.000000, 2.000000)">
                                <rect id="矩形" x="0" y="0" width="16" height="16"></rect>
                                <g id="编组-14" transform="translate(0.941176, 1.411765)" stroke="#90909E" stroke-linecap="round" stroke-width="1.5">
                                    <path d="M13.9974064,13.1701376 C13.5772854,11.5496086 12.1048616,10.3529412 10.3529412,10.3529412 C8.5981096,10.3529412 7.12370434,11.5535889 6.70639029,13.1782195" id="路径"></path>
                                    <circle id="椭圆形" cx="10.3529412" cy="8" r="1.88235294"></circle>
                                    <path d="M3.80816546,13.1764706 L3,13.1764706 C1.34314575,13.1764706 2.02906125e-16,11.8333248 0,10.1764706 L0,3 C-2.02906125e-16,1.34314575 1.34314575,7.48448398e-16 3,0 L10.1764706,0 C11.8333248,-3.04359188e-16 13.1764706,1.34314575 13.1764706,3 L13.1764706,3.79581299 L13.1764706,3.79581299" id="路径"></path>
                                    <line x1="3.29411765" y1="3.29411765" x2="9.88235294" y2="3.29411765" id="直线-5"></line>
                                    <line x1="3.29411765" y1="6.58823529" x2="6.11764706" y2="6.58823529" id="直线-5备份"></line>
                                    <line x1="3.29411765" y1="9.88235294" x2="5.17647059" y2="9.88235294" id="直线-5备份-2"></line>
                                </g>
                            </g>
                        </g>
                    </g>
                </g>
            </g>
        </g>
    </g>
</svg>