<?xml version="1.0" encoding="UTF-8"?>
<svg width="200px" height="200px" viewBox="0 0 200 200" version="1.1" xmlns="http://www.w3.org/2000/svg" xmlns:xlink="http://www.w3.org/1999/xlink">
    <title>兑换</title>
    <g id="H5主页" stroke="none" stroke-width="1" fill="none" fill-rule="evenodd">
        <g id="画板" transform="translate(-94.000000, -83.000000)" fill="#2C72F4" fill-rule="nonzero">
            <g id="兑换" transform="translate(94.000000, 83.000000)">
                <path d="M100,20 C144,20 180,56 180,100 C180,144 144,180 100,180 C56,180 20,144 20,100 C20,56 56,20 100,20 Z M100,0 C45,0 0,45 0,100 C0,155 45,200 100,200 C155,200 200,155 200,100 C200,45 155,0 100,0 Z" id="形状"></path>
                <path d="M53.8461538,79.3498168 C53.8461538,76.3278388 55.8519438,73.3058608 57.8577337,70.2838828 L87.9445823,47.1153846 C88.9474773,46.6196187 88.9474773,46.3200151 89.9503722,46.3200151 C90.9532672,46.3200151 91.5138517,46.667586 91.9561621,47.1153846 C92.9590571,48.1227106 92.9590571,48.1227106 92.9590571,50.1373626 L88.9474773,67.2619048 L88.9474773,69.2765568 L89.9503722,69.2765568 L137.086435,69.2765568 C143.103805,69.2765568 147.115385,73.3058608 147.115385,79.3498168 C147.115385,85.3937729 143.103805,89.4230769 137.086435,89.4230769 L63.8751034,89.4230769 C57.8577337,89.4230769 53.8461538,84.3864469 53.8461538,79.3498168 Z" id="路径"></path>
                <path d="M146.153846,120.650183 C146.153846,123.672161 144.148056,126.694139 142.142266,129.716117 L112.055418,152.884615 C111.052523,153.512356 111.052523,153.512356 110.049628,153.512356 C109.046733,153.512356 109.046733,153.512356 108.043838,152.884615 C107.040943,151.877289 107.040943,150.869963 107.040943,149.862637 L111.052523,132.738095 L111.052523,130.723443 L110.049628,130.723443 L62.9135649,130.723443 C56.8961952,130.723443 52.8846154,126.694139 52.8846154,120.650183 C52.8846154,114.606227 56.8961952,110.576923 62.9135649,110.576923 L135.122002,110.576923 C141.139371,110.576923 146.153846,114.606227 146.153846,120.650183 Z" id="路径"></path>
            </g>
        </g>
    </g>
</svg>