<?xml version="1.0" encoding="UTF-8"?>
<svg width="16px" height="16px" viewBox="0 0 16 16" version="1.1" xmlns="http://www.w3.org/2000/svg" xmlns:xlink="http://www.w3.org/1999/xlink">
    <title>对换icon</title>
    <g id="PC" stroke="none" stroke-width="1" fill="none" fill-rule="evenodd">
        <g id="兑换" transform="translate(-979.000000, -421.000000)" fill="#1886FA" fill-rule="nonzero">
            <g id="编组-29" transform="translate(727.000000, 280.000000)">
                <g id="编组-15" transform="translate(34.000000, 125.000000)">
                    <g id="编组-23" transform="translate(69.000000, 14.000000)">
                        <g id="对换icon" transform="translate(149.000000, 2.000000)">
                            <path d="M8,16 C6.92070788,16 5.87267295,15.7885544 4.88531372,15.371179 C3.93288899,14.968513 3.07791312,14.3911744 2.34245001,13.65755 C1.60882556,12.9239255 1.03148701,12.067111 0.628820961,11.1146863 C0.211445645,10.1273271 0,9.07929212 0,8 C0,6.92070788 0.211445645,5.87267295 0.628820961,4.88531372 C1.03148701,3.93288899 1.60882556,3.07791312 2.34245001,2.34245001 C3.07607447,1.60882556 3.93288899,1.03148701 4.88531372,0.628820961 C5.87267295,0.211445645 6.92070788,0 8,0 C9.07929212,0 10.1273271,0.211445645 11.1146863,0.628820961 C12.067111,1.03148701 12.9220869,1.60882556 13.65755,2.34245001 C14.3911744,3.07607447 14.968513,3.93288899 15.371179,4.88531372 C15.7885544,5.87267295 16,6.92070788 16,8 C16,9.07929212 15.7885544,10.1273271 15.371179,11.1146863 C14.968513,12.067111 14.3911744,12.9220869 13.65755,13.65755 C12.9239255,14.3930131 12.067111,14.968513 11.1146863,15.371179 C10.1273271,15.7867157 9.08113077,16 8,16 Z M8,1.28522179 C4.29878189,1.28522179 1.28706045,4.29694323 1.28706045,7.99816134 C1.28706045,11.6993795 4.29878189,14.7111009 8,14.7111009 C11.7012181,14.7111009 14.7129396,11.6993795 14.7129396,7.99816134 C14.7129396,4.29694323 11.7030568,1.28522179 8,1.28522179 Z" id="形状"></path>
                            <path d="M12.0306737,6.92198682 L3.9675144,6.92198682 C3.61780884,6.92198682 3.33333333,6.63725537 3.33333333,6.28723518 C3.33333333,5.93721498 3.61780884,5.65248353 3.9675144,5.65248353 L10.5249466,5.65248353 L9.31456675,4.41199745 C9.06995405,4.16172395 9.07357795,3.75911004 9.32543843,3.51427727 C9.57548696,3.26944449 9.97773895,3.27307164 10.2223516,3.52515872 L12.4854721,5.84290902 C12.6630428,6.02608021 12.7155892,6.29811663 12.6159322,6.53206795 C12.5162752,6.76783285 12.286158,6.92198682 12.0306737,6.92198682 L12.0306737,6.92198682 Z M6.23244677,12 C6.0675597,12 5.90267262,11.9365248 5.7794603,11.8095745 L3.51452792,9.49001063 C3.33695723,9.30683944 3.28441079,9.03480302 3.38406782,8.8008517 C3.48372484,8.5650868 3.71384197,8.41274641 3.96932634,8.41274641 L12.0324856,8.41274641 C12.3821912,8.41274641 12.6666667,8.69747786 12.6666667,9.04749805 C12.6666667,9.39751825 12.3821912,9.6822497 12.0324856,9.6822497 L5.47505339,9.6822497 L6.68543325,10.9227358 C6.93004595,11.1730093 6.92642205,11.5756232 6.67456157,11.820456 C6.55134925,11.9383384 6.39189801,12 6.23244677,12 L6.23244677,12 Z" id="形状"></path>
                        </g>
                    </g>
                </g>
            </g>
        </g>
    </g>
</svg>