<?xml version="1.0" encoding="UTF-8"?>
<svg width="343px" height="90px" viewBox="0 0 343 90" version="1.1" xmlns="http://www.w3.org/2000/svg" xmlns:xlink="http://www.w3.org/1999/xlink">
    <title>BG</title>
    <defs>
        <radialGradient cx="102.261528%" cy="65.7003999%" fx="102.261528%" fy="65.7003999%" r="418.696688%" gradientTransform="translate(1.022615,0.657004),scale(0.233236,1.000000),rotate(30.811331),translate(-1.022615,-0.657004)" id="radialGradient-1">
            <stop stop-color="#00E0F0" offset="0%"></stop>
            <stop stop-color="#006AEA" offset="27.4115693%"></stop>
            <stop stop-color="#3567F7" offset="76.6517906%"></stop>
            <stop stop-color="#616BF8" offset="100%"></stop>
        </radialGradient>
        <rect id="path-2" x="0" y="0" width="343" height="80" rx="20"></rect>
        <radialGradient cx="116.095465%" cy="-17.0434939%" fx="116.095465%" fy="-17.0434939%" r="379.797809%" gradientTransform="translate(1.160955,-0.170435),scale(0.701220,1.000000),rotate(64.621548),translate(-1.160955,0.170435)" id="radialGradient-4">
            <stop stop-color="#FFFFFF" stop-opacity="0" offset="0%"></stop>
            <stop stop-color="#FFFFFF" stop-opacity="0.273792614" offset="100%"></stop>
        </radialGradient>
        <radialGradient cx="116.095465%" cy="-17.0434939%" fx="116.095465%" fy="-17.0434939%" r="380.975658%" gradientTransform="translate(1.160955,-0.170435),scale(0.689655,1.000000),rotate(64.250659),translate(-1.160955,0.170435)" id="radialGradient-5">
            <stop stop-color="#FFFFFF" stop-opacity="0" offset="0%"></stop>
            <stop stop-color="#FFFFFF" stop-opacity="0.273792614" offset="100%"></stop>
        </radialGradient>
        <radialGradient cx="116.095465%" cy="-17.0434939%" fx="116.095465%" fy="-17.0434939%" r="379.100018%" gradientTransform="translate(1.160955,-0.170435),scale(0.708333,1.000000),rotate(64.844782),translate(-1.160955,0.170435)" id="radialGradient-6">
            <stop stop-color="#FFFFFF" stop-opacity="0" offset="0%"></stop>
            <stop stop-color="#FFFFFF" stop-opacity="0.273792614" offset="100%"></stop>
        </radialGradient>
        <radialGradient cx="116.095465%" cy="-17.0434939%" fx="116.095465%" fy="-17.0434939%" r="740.619537%" gradientTransform="translate(1.160955,-0.170435),scale(0.173913,1.000000),rotate(27.601738),translate(-1.160955,0.170435)" id="radialGradient-7">
            <stop stop-color="#FFFFFF" stop-opacity="0" offset="0%"></stop>
            <stop stop-color="#FFFFFF" stop-opacity="0.273792614" offset="100%"></stop>
        </radialGradient>
        <radialGradient cx="116.095465%" cy="-17.0434939%" fx="116.095465%" fy="-17.0434939%" r="418.769273%" gradientTransform="translate(1.160955,-0.170435),scale(0.475524,1.000000),rotate(55.026320),translate(-1.160955,0.170435)" id="radialGradient-8">
            <stop stop-color="#FFFFFF" stop-opacity="0" offset="0%"></stop>
            <stop stop-color="#FFFFFF" stop-opacity="0.273792614" offset="100%"></stop>
        </radialGradient>
        <radialGradient cx="116.095465%" cy="-17.0434939%" fx="116.095465%" fy="-17.0434939%" r="371.222798%" gradientTransform="translate(1.160955,-0.170435),scale(0.805970,1.000000),rotate(67.573058),translate(-1.160955,0.170435)" id="radialGradient-9">
            <stop stop-color="#FFFFFF" stop-opacity="0" offset="0%"></stop>
            <stop stop-color="#FFFFFF" stop-opacity="0.273792614" offset="100%"></stop>
        </radialGradient>
        <radialGradient cx="116.095465%" cy="-17.0434939%" fx="116.095465%" fy="-17.0434939%" r="447.07307%" gradientTransform="translate(1.160955,-0.170435),scale(0.398305,1.000000),rotate(50.133403),translate(-1.160955,0.170435)" id="radialGradient-10">
            <stop stop-color="#FFFFFF" stop-opacity="0" offset="0%"></stop>
            <stop stop-color="#FFFFFF" stop-opacity="0.273792614" offset="100%"></stop>
        </radialGradient>
        <radialGradient cx="116.095465%" cy="-17.0434939%" fx="116.095465%" fy="-17.0434939%" r="512.45419%" gradientTransform="translate(1.160955,-0.170435),scale(1.000000,0.686869),rotate(77.129962),translate(-1.160955,0.170435)" id="radialGradient-11">
            <stop stop-color="#FFFFFF" stop-opacity="0" offset="0%"></stop>
            <stop stop-color="#FFFFFF" stop-opacity="0.273792614" offset="100%"></stop>
        </radialGradient>
        <radialGradient cx="116.095465%" cy="-17.0434939%" fx="116.095465%" fy="-17.0434939%" r="738.065075%" gradientTransform="translate(1.160955,-0.170435),scale(1.000000,0.470588),rotate(81.103309),translate(-1.160955,0.170435)" id="radialGradient-12">
            <stop stop-color="#FFFFFF" stop-opacity="0" offset="0%"></stop>
            <stop stop-color="#FFFFFF" stop-opacity="0.273792614" offset="100%"></stop>
        </radialGradient>
        <radialGradient cx="116.095465%" cy="-17.0434939%" fx="116.095465%" fy="-17.0434939%" r="377.335332%" gradientTransform="translate(1.160955,-0.170435),scale(0.727273,1.000000),rotate(65.421566),translate(-1.160955,0.170435)" id="radialGradient-13">
            <stop stop-color="#FFFFFF" stop-opacity="0" offset="0%"></stop>
            <stop stop-color="#FFFFFF" stop-opacity="0.273792614" offset="100%"></stop>
        </radialGradient>
        <filter x="-250.0%" y="-142.9%" width="600.0%" height="385.7%" filterUnits="objectBoundingBox" id="filter-14">
            <feGaussianBlur stdDeviation="10" in="SourceGraphic"></feGaussianBlur>
        </filter>
        <filter x="-200.0%" y="-187.5%" width="500.0%" height="475.0%" filterUnits="objectBoundingBox" id="filter-15">
            <feGaussianBlur stdDeviation="10" in="SourceGraphic"></feGaussianBlur>
        </filter>
        <linearGradient x1="51.5010638%" y1="94.2431588%" x2="48.8107822%" y2="14.9106548%" id="linearGradient-16">
            <stop stop-color="#15AAFF" offset="0%"></stop>
            <stop stop-color="#5CDCFF" offset="100%"></stop>
        </linearGradient>
        <linearGradient x1="74.0344818%" y1="96.0014408%" x2="29.1185843%" y2="10.0380843%" id="linearGradient-17">
            <stop stop-color="#009CFF" offset="0%"></stop>
            <stop stop-color="#38CCFF" offset="100%"></stop>
        </linearGradient>
        <linearGradient x1="79.5114807%" y1="95.2301476%" x2="28.974744%" y2="9.46175275%" id="linearGradient-18">
            <stop stop-color="#2CBFFF" offset="0%"></stop>
            <stop stop-color="#3BC7FF" offset="13%"></stop>
            <stop stop-color="#60DCFF" offset="51%"></stop>
            <stop stop-color="#78E8FF" offset="81%"></stop>
            <stop stop-color="#80EDFF" offset="100%"></stop>
        </linearGradient>
        <linearGradient x1="-0.224418137%" y1="50.0518246%" x2="99.97828%" y2="50.0518246%" id="linearGradient-19">
            <stop stop-color="#009CFF" offset="0%"></stop>
            <stop stop-color="#40DBFF" offset="100%"></stop>
        </linearGradient>
        <linearGradient x1="32.2636301%" y1="48.4330515%" x2="87.094548%" y2="53.2844336%" id="linearGradient-20">
            <stop stop-color="#15AAFF" offset="0%"></stop>
            <stop stop-color="#5CDCFF" offset="100%"></stop>
        </linearGradient>
        <linearGradient x1="-1.13359162%" y1="50.0169819%" x2="100.746162%" y2="50.0169819%" id="linearGradient-21">
            <stop stop-color="#5AD4FF" offset="0%"></stop>
            <stop stop-color="#5AD4FF" offset="100%"></stop>
        </linearGradient>
        <linearGradient x1="17.9668314%" y1="81.9376682%" x2="82.9066716%" y2="16.9801413%" id="linearGradient-22">
            <stop stop-color="#009CFF" offset="0%"></stop>
            <stop stop-color="#5ADCFF" offset="100%"></stop>
        </linearGradient>
        <linearGradient x1="13.4354735%" y1="79.6932894%" x2="68.0150829%" y2="29.2724432%" id="linearGradient-23">
            <stop stop-color="#2CBFFF" offset="0%"></stop>
            <stop stop-color="#3BC7FF" offset="13%"></stop>
            <stop stop-color="#60DCFF" offset="51%"></stop>
            <stop stop-color="#78E8FF" offset="81%"></stop>
            <stop stop-color="#80EDFF" offset="100%"></stop>
        </linearGradient>
    </defs>
    <g id="领取奖励" stroke="none" stroke-width="1" fill="none" fill-rule="evenodd">
        <g id="画板" transform="translate(-39.000000, -37.000000)">
            <g id="BG" transform="translate(39.000000, 37.000000)">
                <g id="路径-23-+-路径-24-+-路径-25-+-路径-26-+-路径-27-+-路径-28-+-路径-29-+-路径-30-+-路径-31-+-路径-32-+-路径-33-+-路径-34-+-路径-35-蒙版">
                    <mask id="mask-3" fill="white">
                        <use xlink:href="#path-2"></use>
                    </mask>
                    <use id="蒙版" fill="url(#radialGradient-1)" xlink:href="#path-2"></use>
                    <path d="M155.270552,-76.5 L155.5,-75.5772144 C141.988213,-72.159227 135.961867,-63.4661969 137.325558,-49.3564544 L137.509576,-47.4262141 L137.783145,-44.4296379 L138.017041,-41.6793664 L138.21327,-39.1415811 L138.34448,-37.2416168 L138.428526,-35.881268 L138.522262,-34.1397474 L138.579382,-32.878346 L138.625684,-31.647176 L138.6616,-30.4389326 L138.687565,-29.246311 L138.708415,-27.6109438 L138.721695,-25.5564879 L138.70868,-23.4211417 L138.664278,-21.5021711 L138.595458,-19.6075427 L138.444651,-16.375529 L138.233065,-12.4188795 L137.326958,3.23538959 C136.595215,15.7003734 128.647459,30.3042105 120.548442,36.3191524 C116.666053,39.2025072 113.443075,39.3155636 112.040452,36.1258397 C111.495553,34.8866794 111.251217,33.1744354 111.318102,30.9939718 L111.34569,30.3582457 C111.405815,29.2774818 111.536742,28.0906507 111.739622,26.7982776 L111.869994,26.0101928 C111.893165,25.876736 111.917057,25.7422247 111.941673,25.6066596 L112.098051,24.780627 L112.271836,23.9293274 C112.302254,23.7853399 112.3334,23.6403007 112.365274,23.4942103 L112.565273,22.6050574 C112.600066,22.4547642 112.635591,22.3034208 112.671848,22.1510278 L112.898185,21.2240783 C112.937376,21.0674888 112.977301,20.9098507 113.017961,20.7511646 L113.270761,19.7864752 C113.357976,19.4607226 113.448143,19.1307819 113.541271,18.7966574 L113.829548,17.7817364 L114.135645,16.7417374 L114.459619,15.6766857 C114.586965,15.2645181 114.711515,14.8549333 114.83328,14.4479385 L115.190231,13.2347312 C115.248334,13.0338273 115.305743,12.8335728 115.362459,12.6339684 L115.694457,11.4441514 L116.009892,10.2699818 C116.470654,8.5204843 116.875719,6.82394154 117.225985,5.18100637 L117.451388,4.09366528 C117.668692,3.01428038 117.861729,1.95878556 118.030767,0.927374251 L118.191815,-0.0960020586 C118.242837,-0.434446773 118.291203,-0.770208378 118.336922,-1.10327971 L118.466147,-2.09441571 C118.526799,-2.58594114 118.581518,-3.07139733 118.630336,-3.5507601 L118.720116,-4.50135393 C119.539441,-13.9259033 118.007564,-20.9066382 114.390643,-25.2501212 C109.391243,-31.2537923 100.539531,-31.6842059 90.9467079,-26.8001855 L90.5574113,-26.5992738 C78.9546895,-20.5305899 69.0176054,-16.7910497 59.3959007,-15.4912103 C47.5786133,-13.8947597 37.0307201,-16.2277662 27.7896299,-23.2359455 L27.3362039,-23.5843826 C14.3475455,-33.6972377 2.59893099,-38.002039 -7.9127783,-36.5344811 L-8.35619893,-36.4690364 L-8.5,-37.4092789 C2.41575464,-39.1077202 14.5543628,-34.7380447 27.9125512,-24.3374768 C37.0505034,-17.2227477 47.4972287,-14.8436245 59.2706878,-16.4341541 C67.9015115,-17.600131 76.8216785,-20.7677115 87.0232896,-25.8588633 L88.5632661,-26.6369531 C88.821572,-26.7690359 89.0807098,-26.9023186 89.340695,-27.0367998 L90.1232084,-27.4438379 C100.21637,-32.722962 109.715062,-32.344136 115.112893,-25.8619971 C118.475487,-21.8239308 120.108722,-15.6916779 119.849808,-7.6083216 L119.813245,-6.70214894 C119.805851,-6.54978438 119.797806,-6.39675254 119.789108,-6.24305431 L119.729092,-5.31287574 L119.653379,-4.36674774 C119.639449,-4.20773304 119.624863,-4.04805561 119.60962,-3.88771634 L119.510268,-2.91774598 C119.492392,-2.75476301 119.473857,-2.59112003 119.454662,-2.42681794 L119.331559,-1.43310337 L119.19256,-0.423613836 C119.168067,-0.254053425 119.142908,-0.0838375406 119.117085,0.0870329075 L118.954149,1.12010309 C118.868681,1.6405583 118.777205,2.16688823 118.679693,2.69906834 L118.476615,3.77122154 C118.441425,3.95121135 118.405562,4.13184938 118.369025,4.31313469 L118.141712,5.40860685 C118.102477,5.59247771 118.062566,5.77699404 118.021977,5.96215495 L117.770319,7.08084793 C117.68372,7.45631902 117.594405,7.83436111 117.502367,8.21496694 L117.218073,9.36446836 C117.071832,9.9430574 116.919444,10.5273985 116.760882,11.1174671 L116.435515,12.3052337 C116.379912,12.5044652 116.323621,12.7043312 116.266641,12.9048309 L115.916481,14.1154258 C115.796999,14.5214873 115.674751,14.9300761 115.54973,15.3411851 L115.360118,15.9597377 C115.242841,16.3393193 115.129024,16.7138443 115.018637,17.0833173 L114.697739,18.1765849 C114.645961,18.3562717 114.595033,18.5346967 114.544952,18.7118604 L114.254592,19.759712 L113.984366,20.7773214 C113.507299,22.6152333 113.130841,24.3008139 112.850026,25.8348366 L112.70631,26.6565503 C110.960531,37.1435524 113.978378,40.01714 119.98919,35.5530573 C127.863762,29.7048056 135.670306,15.3604425 136.385395,3.17915661 L137.293665,-12.5145008 L137.572193,-17.8376034 L137.684068,-20.4387611 L137.741912,-22.2704256 L137.768117,-23.6272092 L137.778523,-25.0656006 L137.769154,-27.1710006 L137.75642,-28.4444918 L137.744486,-29.2301488 L137.706704,-30.8549395 L137.666077,-32.0951634 L137.614396,-33.3626509 L137.551194,-34.6652526 L137.476004,-36.010819 L137.388357,-37.4072007 L137.25131,-39.3616579 L137.09018,-41.4390188 L137.000238,-42.5296033 L136.853214,-44.2369023 L136.633847,-46.6588346 L136.386796,-49.264149 C134.992027,-63.6954451 141.178571,-72.783994 154.853857,-76.392334 L155.270552,-76.5 Z" id="路径" fill="url(#radialGradient-4)" fill-rule="nonzero" opacity="0.5" mask="url(#mask-3)"></path>
                    <path d="M187.241216,-78.5 L187.5,-77.5948191 C175.913664,-74.272082 167.900768,-66.2220895 162.504722,-53.644077 C161.664036,-51.684465 160.893541,-49.6504168 160.18283,-47.5141261 L159.832408,-46.4373318 C159.141335,-44.2661879 158.508312,-41.988167 157.922931,-39.5754628 L157.634162,-38.3577583 L157.353045,-37.1168342 L157.079289,-35.8519181 C156.944204,-35.2133334 156.811771,-34.5654619 156.681828,-33.9078693 L156.425214,-32.5795939 C156.382982,-32.3560115 156.341015,-32.1313168 156.299306,-31.9054937 L156.052109,-30.5368855 C156.01141,-30.3064844 155.970958,-30.0749228 155.930747,-29.8421844 L155.692316,-28.4315055 C155.653042,-28.1939961 155.613997,-27.9552779 155.575175,-27.7153346 L155.34486,-26.2608472 C155.306903,-26.0159398 155.269157,-25.7697753 155.231615,-25.5223375 L155.008766,-24.0223036 L154.790533,-22.4909398 L154.576627,-20.9274738 L154.366759,-19.3311331 C154.332101,-19.0622939 154.2976,-18.7920527 154.263248,-18.5203935 L154.058894,-16.8732927 L153.857855,-15.1913862 L153.223402,-9.51315592 L151.771253,4.61609386 L151.409375,7.97273516 L151.072868,10.9227251 L150.792537,13.2243659 L150.604538,14.6845911 L150.514579,15.3605747 C150.424031,16.0338807 150.331561,16.7004012 150.235767,17.3713636 C147.910349,33.6591149 134.546502,49.8995861 119.121143,57.7058721 C112.042621,61.2880877 105.532761,62.434261 101.037302,60.7129835 C96.1209437,58.8305466 93.9241934,53.7300806 94.9855617,45.7406177 L95.0423401,45.3318857 C99.3100479,15.8820674 87.0332239,4.38445325 64.538689,8.1862283 L63.8539154,8.30611388 C63.596004,8.3528166 63.3326767,8.39811992 63.0639329,8.44202392 L62.2414522,8.569538 C61.1231447,8.73395964 59.9181693,8.8759931 58.6265016,8.99564266 L57.6414957,9.08118292 L56.623978,9.15832962 C56.4516822,9.17048796 56.2780317,9.18229659 56.1030264,9.19375551 L55.0367367,9.25831262 L53.9379294,9.31447718 C53.7520849,9.32313858 53.5648855,9.33145031 53.376331,9.33941237 L52.2287432,9.38298884 C52.0347684,9.38955228 51.8394384,9.39576607 51.6427533,9.40163022 L50.4463799,9.43261951 L49.2174799,9.45521784 L47.956051,9.46942562 L46.6620911,9.47524326 C46.44372,9.47551371 46.2239934,9.47543458 46.0029112,9.47500589 L43.9765687,9.46170967 L42.5850018,9.44235926 L41.1608946,9.4146203 L39.704245,9.3784932 L38.2150507,9.33397835 L36.6933094,9.28107615 L35.1390188,9.21978702 L33.5521767,9.15011134 L31.9327808,9.07204953 L30.2808288,8.98560197 L28.5963184,8.89076908 L26.8792475,8.78755125 L25.1296137,8.67594889 L23.3474147,8.55596239 L20.6130517,8.36026327 L17.8054043,8.1457021 L15.892922,7.99218308 L12.9631171,7.74618818 L9.96000736,7.48133484 L7.91720557,7.2942897 L4.79190426,6.99800865 L2.66763433,6.79001295 L-0.579879845,6.46230794 L-2.78563211,6.23336419 L-5.02398128,5.99604193 L-8.44262918,5.62434969 L-10.7624805,5.36608288 L-14.3033923,4.96297571 L-15.5,4.82441833 L-15.3915919,3.88914251 L-11.8344892,4.29758383 L-8.35059043,4.68722371 L-4.93990314,5.05806348 L-2.70678846,5.29484617 L0.581862621,5.63435545 L2.73361273,5.8502524 L5.90020633,6.15843495 L8.99355522,6.44782327 L12.0136518,6.71841871 L14.9604883,6.97022263 L16.8843422,7.12765284 L19.7090617,7.34814055 L21.5514972,7.48469455 L24.2540784,7.67386982 L26.0150812,7.78955011 L27.7435071,7.89688161 L29.4393536,7.99586474 L31.1026186,8.08649989 L33.5364207,8.20680103 L35.1182219,8.27656799 L36.6674336,8.33798837 L38.1840536,8.39106257 L39.6680795,8.43579101 L41.1195091,8.47217407 L42.5383401,8.50021217 C42.7720953,8.50418979 43.0044921,8.50781972 43.2355305,8.51110197 L44.6054594,8.52662336 L45.9427841,8.53380078 L47.2475023,8.53263464 L48.5196118,8.52312533 L49.7591102,8.50527325 L50.9659953,8.47907881 C51.1644249,8.4740179 51.3614955,8.4686094 51.5572071,8.46285333 L52.715168,8.4241461 L53.8405098,8.37709751 L54.9332305,8.32170796 L55.9933276,8.25797785 L57.020799,8.18590758 L58.0156422,8.10549756 L58.9778552,8.01674818 L59.9074356,7.91965985 C60.2118567,7.88590729 60.5108387,7.85076497 60.8043811,7.81423296 L61.6686895,7.70046793 C62.2340155,7.62184527 62.777582,7.53766412 63.2993858,7.447925 L63.6866581,7.37957855 C86.9986144,3.15823797 100.113998,14.8309066 96.0995875,44.560694 L95.9726883,45.467126 C94.8380382,53.2969121 96.8411621,58.098296 101.373004,59.8335044 C105.573172,61.4417175 111.832021,60.3397392 118.697176,56.8655013 C133.714637,49.2656399 146.763477,33.5144844 149.233534,17.7168068 L149.352602,16.9040584 L149.585411,15.2161329 L149.903819,12.755144 L150.129291,10.8965505 L150.453376,8.06402019 L150.800326,4.85820673 L152.430764,-10.935986 L152.725738,-13.5800438 L152.824855,-14.447388 L153.12673,-16.9957705 L153.332119,-18.6509598 L153.54116,-20.2720744 L153.754149,-21.8598954 L153.97138,-23.4152037 C154.007955,-23.6717558 154.044719,-23.9269857 154.081678,-24.1809097 L154.305823,-25.6889135 L154.534945,-27.1663572 C154.573563,-27.4100945 154.612401,-27.6525911 154.651464,-27.8938631 L154.888603,-29.326931 C154.928594,-29.56337 154.968823,-29.7986171 155.009297,-30.0326884 L155.255114,-31.4231379 L155.507085,-32.7861513 C155.592134,-33.2360033 155.678257,-33.6814127 155.765504,-34.1225098 L156.030664,-35.4329943 C156.120207,-35.8655969 156.210923,-36.2940173 156.30286,-36.7183857 L156.582386,-37.9794653 C157.951615,-44.0171874 159.588001,-49.2303461 161.640982,-54.0157794 C167.062454,-66.6530595 175.125002,-74.8556578 186.73423,-78.3509958 L187.241216,-78.5 Z" id="路径" fill="url(#radialGradient-5)" fill-rule="nonzero" opacity="0.5" mask="url(#mask-3)"></path>
                    <path d="M72.5882681,53.327051 L71.6413485,52.281384 L71.0593933,51.6234408 L66.406261,46.2456614 L63.6616699,43.1128394 L62.2824807,41.5574175 L61.2583284,40.4174335 L60.3984187,39.4791821 L60.1110371,39.1729103 L59.8605289,38.9114595 C56.1776093,35.1204239 53.0049771,32.7052197 49.7350212,31.4025216 C34.5736236,25.3624637 16.2603268,26.2303994 -5.21584477,34.0275412 L-6.68503047,34.5699022 C-6.93071165,34.6620853 -7.1768013,34.7551633 -7.42329942,34.8491362 L-8.16401924,35.1337395 L-8.5,34.2515344 L-7.00776477,33.6826761 C15.3029273,25.3122394 34.3358976,24.2516559 50.0794051,30.5236172 C53.3717861,31.835249 56.5295288,34.1964494 60.1283326,37.8400324 L60.6360861,38.3600187 L61.1317771,38.88639 L62.0617802,39.9035314 L63.1664938,41.1356955 L65.4624384,43.7362862 L66.9770937,45.4689352 L71.8632817,51.117288 L72.8160233,52.1796722 C83.4118112,63.878613 92.6095211,70.0838928 105.210244,72.0062182 C122.012593,74.5695298 143.012714,68.2526619 170.026791,51.0033863 C170.496855,50.6469407 170.976627,50.3072424 171.514681,49.946508 L172.106077,49.5568826 L173.719623,48.5226029 C177.441773,46.1216038 179.07765,44.2078261 180.370188,39.7983794 L180.445589,39.5358238 L180.591606,38.9949089 C180.615411,38.902985 180.638949,38.8101702 180.662221,38.7164569 L180.798658,38.1433317 C180.820865,38.045993 180.842805,37.9477403 180.864479,37.8485658 L180.991318,37.2423954 C181.011923,37.1395028 181.032262,37.035673 181.052334,36.9308981 L181.169557,36.2908475 C181.188559,36.1822618 181.207294,36.0727157 181.225761,35.9622013 L181.333349,35.2874354 L181.434505,34.5890621 L181.52922,33.8667102 L181.617486,33.1200087 C181.631659,32.9935087 181.645563,32.8659787 181.659198,32.7374109 L181.737776,31.9534891 C181.750334,31.8207393 181.762622,31.6869363 181.77464,31.5520723 L181.843513,30.7300952 L181.905905,29.882284 L181.961808,29.0082676 C181.970584,28.8603938 181.979089,28.7114126 181.987324,28.5613164 L182.03348,27.6472963 L182.073127,26.7061432 L182.106258,25.7374859 L182.132864,24.7409534 L182.152938,23.7161745 L182.166472,22.6627782 L182.173458,21.5803933 L182.173888,20.4686487 L182.167753,19.3271732 L182.155046,18.1555958 L182.135759,16.9535454 L182.094474,15.0925209 L182.058702,13.8126642 L182.016322,12.5010356 L181.940344,10.4732083 L181.891174,9.77367492 C181.883842,9.65384823 181.87694,9.53241935 181.870466,9.40941333 L181.83674,8.65265188 C181.831969,8.52343749 181.827622,8.39269606 181.823697,8.26045265 L181.805189,7.44916869 C181.800696,7.17286636 181.797873,6.89075649 181.796703,6.60303948 L181.798138,5.72326749 C181.799199,5.57390206 181.800669,5.42318495 181.802545,5.27114121 L181.818676,4.34315966 L181.844478,3.38454149 L181.879853,2.39648917 L181.9247,1.38020516 C181.932959,1.20853866 181.941607,1.03574593 181.950645,0.861852046 L182.009514,-0.194524863 L182.077605,-1.27612729 L182.154821,-2.38175276 L182.241059,-3.51019882 L182.336222,-4.66026299 L182.440208,-5.83074281 L182.552919,-7.02043581 L182.674254,-8.22813952 L182.804114,-9.45265148 L182.942398,-10.6927692 L183.089008,-11.9472903 L183.243843,-13.2150122 L183.406804,-14.4947324 L183.666262,-16.4341794 L183.8491,-17.7386348 L184.039714,-19.0508799 L184.238006,-20.3697124 L184.443873,-21.6939296 L184.657218,-23.0223292 L184.877941,-24.3537086 L185.10594,-25.6868655 L185.341118,-27.0205972 C185.380907,-27.242867 185.42099,-27.4651106 185.461367,-27.687303 L185.832607,-29.6849758 L186.088719,-31.0132176 L186.35161,-32.3372244 L186.621179,-33.6557939 C186.666658,-33.8750355 186.712412,-34.0940005 186.758437,-34.3126638 L187.037838,-35.6208225 L187.328591,-36.9430137 L187.629497,-38.2738368 C187.680051,-38.4943444 187.730806,-38.7142007 187.781762,-38.9334011 L188.089895,-40.2406958 C188.14165,-40.4572541 188.193605,-40.6731472 188.245758,-40.8883704 L188.561057,-42.1716346 L188.881099,-43.4385995 L189.205856,-44.6890419 L189.535301,-45.9227387 L189.869405,-47.1394667 L190.208143,-48.3390027 L190.551485,-49.5211237 L190.899404,-50.6856064 C190.957771,-50.8782045 191.016327,-51.0700585 191.075072,-51.2611636 L191.429806,-52.3987705 L191.789048,-53.5181811 C191.849296,-53.7032208 191.909731,-53.8874931 191.970352,-54.0709932 L192.336306,-55.1626911 L192.706699,-56.2356351 C192.7688,-56.4128838 192.831084,-56.5893418 192.893552,-56.7650045 L193.270554,-57.8093989 L193.651926,-58.8344812 L194.037642,-59.8400285 L194.427674,-60.8258174 L194.821993,-61.7916249 C194.954145,-62.1102057 195.087007,-62.425419 195.220574,-62.7372277 L195.623388,-63.6624028 L196.030408,-64.5669269 C196.30315,-65.1630097 196.578678,-65.7451764 196.856954,-66.3131296 L197.276425,-67.1543619 C197.346679,-67.2927781 197.417104,-67.4302968 197.487699,-67.5669131 L197.913303,-68.3757463 C200.621666,-73.4293107 203.573959,-77.1665284 206.738707,-79.3322884 L206.988996,-79.5 L207.5,-78.7078097 C203.868226,-76.3259604 200.488692,-71.7266316 197.432428,-65.3427444 L197.026848,-64.4810223 L196.625137,-63.5983779 C196.558509,-63.4495397 196.492045,-63.2998392 196.425744,-63.1492812 L196.029906,-62.2356809 C195.964262,-62.0817119 195.898783,-61.9268948 195.83347,-61.7712345 L195.443589,-60.8271915 C195.378943,-60.6681772 195.314464,-60.5083291 195.250154,-60.347652 L194.866315,-59.3736793 L194.48655,-58.3800386 L194.110898,-57.3669579 L193.739395,-56.3346652 C193.677825,-56.1610281 193.616431,-55.9866 193.555211,-55.8113857 L193.190002,-54.7507026 C193.129486,-54.5723623 193.069148,-54.3932452 193.008986,-54.2133561 L192.650156,-53.1247957 L192.295624,-52.0179356 L191.945429,-50.8930036 L191.599607,-49.750228 C191.542337,-49.558291 191.485251,-49.3656201 191.428349,-49.17222 L191.089158,-48.0031063 L190.754435,-46.816719 C190.699022,-46.617561 190.643797,-46.4176927 190.588761,-46.217119 L190.260809,-45.0052488 L189.937418,-43.7766751 L189.618625,-42.5316259 L189.304468,-41.2703293 C189.252497,-41.0587719 189.20072,-40.846547 189.149139,-40.6336594 L188.842006,-39.3484192 L188.539602,-38.0475017 C188.489598,-37.8293883 188.439792,-37.6106312 188.390185,-37.3912352 L188.094945,-36.0672292 L187.813673,-34.7693894 L187.538845,-33.4637214 L187.270561,-32.1514274 C187.226398,-31.9322264 187.182512,-31.7127993 187.138904,-31.4931713 L186.880623,-30.1731924 L186.629132,-28.849593 L186.384533,-27.5235753 L186.146924,-26.1963417 L185.916403,-24.8690942 L185.584131,-22.880827 L185.268367,-20.8992913 L185.067193,-19.5840109 L184.873604,-18.2747278 L184.687698,-16.9726443 L184.509575,-15.6789626 L184.339334,-14.3948849 L184.177073,-13.1216135 L184.022892,-11.8603505 L183.87689,-10.6122982 L183.739166,-9.37865884 L183.609819,-8.16063463 L183.488948,-6.95942778 L183.376653,-5.77624054 L183.273032,-4.61227513 L183.178184,-3.46873377 L183.052579,-1.7943467 L182.980098,-0.70712522 L182.916738,0.355464417 L182.839014,1.90053429 L182.798888,2.89628457 L182.768228,3.86319521 L182.747135,4.80006398 L182.735707,5.70568866 L182.734043,6.57886702 C182.734584,6.7216261 182.735537,6.86298315 182.736903,7.00291314 L182.750071,7.82516784 C182.756124,8.09341089 182.763845,8.35574529 182.773251,8.61197067 L182.806542,9.36211938 L182.850044,10.0744117 C182.85815,10.1899057 182.866686,10.3037721 182.875654,10.4159861 L182.9284,11.7866338 L182.99499,13.7818186 L183.046556,15.7052093 L183.072595,16.948223 L183.099154,18.7548318 L183.108533,19.9211888 L183.111256,21.057554 L183.107326,22.1643107 L183.096748,23.2418423 L183.079526,24.290532 L183.055664,25.3107633 L183.025165,26.3029195 L182.988034,27.2673838 L182.944276,28.2045397 L182.893893,29.1147704 L182.836891,29.9984594 L182.773272,30.8559899 C182.762118,30.9967531 182.750689,31.1364423 182.738984,31.2750655 L182.665449,32.0940771 L182.58531,32.8878886 L182.498568,33.6568833 L182.405229,34.4014446 L182.305297,35.1219558 C182.288092,35.2400581 182.270613,35.3571743 182.25286,35.4733123 L182.143045,36.1584671 C182.086491,36.4952396 182.027469,36.8233527 181.965981,37.143022 L181.839715,37.7711662 C181.818123,37.8740018 181.796257,37.9759151 181.774118,38.0769143 L181.637995,38.672002 C181.568291,38.9641244 181.496125,39.2481623 181.421498,39.5243315 L181.268965,40.066242 C180.012885,44.3513154 178.401096,46.4591989 175.10907,48.7297465 L174.528016,49.1210133 L172.440562,50.4638422 C171.744434,50.9199439 171.158669,51.3275163 170.559169,51.7802102 C167.020696,54.0398636 163.583736,56.1135962 160.244219,58.0058419 L158.709808,58.8663156 C137.069918,70.8742565 119.569116,75.1525325 105.070042,72.9406007 C92.4008796,71.0078345 83.1232878,64.8435647 72.5882681,53.327051 Z" id="路径" fill="url(#radialGradient-6)" fill-rule="nonzero" opacity="0.5" mask="url(#mask-3)"></path>
                    <path d="M50.732139,59.6569244 C56.2478501,58.8241584 61.943597,61.3423756 68.2391469,66.342528 L68.755494,66.7575185 L69.218303,67.1416552 L69.9307888,67.7479338 L71.3473982,68.9803233 L75.6962702,72.8285091 L75.8909653,72.993942 L75.9303187,73.0255736 C80.3524149,76.4724894 85.0150717,78.6997383 93.1872756,80.0362335 C98.2062073,80.8570376 103.979487,81.1468508 110.577486,80.8396554 L111.864836,80.7727257 C115.541611,80.5618689 119.467768,80.1701938 123.654912,79.5868131 L125.143583,79.3729362 L126.654041,79.1430328 C128.175431,78.9050806 129.729671,78.642929 131.317273,78.3560994 L132.916013,78.061026 C133.184329,78.0104702 133.453577,77.9592244 133.723759,77.9072865 L135.356073,77.5873356 L137.010911,77.2506668 L138.688386,76.8971736 C138.969858,76.8368501 139.252278,76.7758212 139.535648,76.7140846 L141.247292,76.3351555 C141.821654,76.2060034 142.399836,76.0740028 142.981857,75.9391362 L143.53574,75.792929 L144.120946,75.6313172 L144.749266,75.4512413 L148.842755,74.2088328 L149.955796,73.8756122 C155.214505,72.3256384 158.762947,71.6514074 162.521276,71.729119 C171.929085,71.9236458 179.159137,77.5599319 184.322763,90.7373344 L184.5,91.1947197 L183.612951,91.5 C183.438805,91.045549 183.262381,90.6002175 183.083671,90.1639092 L182.723199,89.3032951 C177.755014,77.7052128 171.074196,72.8005367 162.50069,72.6232608 C159.618815,72.5636718 156.840653,72.9662925 153.234054,73.8961483 L152.273797,74.1507222 L151.272277,74.4294724 C151.101715,74.4779598 150.929279,74.5274652 150.754895,74.5779939 L149.684586,74.8934899 L146.08461,75.9920423 L145.023125,76.3071005 L144.384894,76.4899239 L143.787308,76.6548147 L143.217598,76.8050641 C142.632093,76.9407419 142.050429,77.0735378 141.472586,77.2034693 L139.750502,77.5846881 C139.465392,77.6467982 139.181232,77.7081966 138.898021,77.7688855 L137.210111,78.1245219 L135.544841,78.463235 C134.993511,78.5733305 134.445935,78.6806229 133.902094,78.7851299 L132.281756,79.090312 L130.683712,79.3788864 C130.419222,79.425604 130.155657,79.471634 129.893014,79.5169786 L128.328194,79.7808389 C128.069228,79.8234506 127.811178,79.8653813 127.554044,79.9066332 L126.022189,80.146016 C122.726866,80.6471053 119.585283,81.0342131 116.59217,81.3121561 L115.221257,81.4327038 C114.994522,81.451509 114.76866,81.4696726 114.543671,81.4871969 L113.204168,81.5846878 C112.761139,81.614639 112.321577,81.6420503 111.885461,81.6669391 L110.587437,81.7340561 C103.934204,82.0419111 98.1044787,81.7479749 93.0267881,80.9175613 C84.8653402,79.5828251 80.0869601,77.3572712 75.6339709,73.9504183 L75.294418,73.6871613 L74.6613113,73.1394322 L70.8440882,69.7580884 L69.381796,68.4837068 L68.9404979,68.1056347 L68.3463314,67.6054732 L68.0058148,67.3264824 C61.7517146,62.2803376 56.1585649,59.7432723 50.8806177,60.5401405 C47.9471514,60.9830374 45.2052093,62.4863736 42.6667935,65.1854737 L42.3855855,65.4903014 C33.9185008,74.8450491 20.3535346,82.8600162 1.69440263,89.5469525 L0.829594772,89.8546374 L0.5,89.0165997 C19.1805592,82.4183186 32.7727294,74.5198517 41.2802263,65.3329488 L41.6692696,64.9080231 C44.426297,61.8619574 47.459565,60.1510199 50.732139,59.6569244 Z" id="路径" fill="url(#radialGradient-7)" fill-rule="nonzero" opacity="0.5" mask="url(#mask-3)"></path>
                    <path d="M304.813246,29.6326308 L306.029431,29.8582778 C308.690073,30.3701492 311.519035,31.0317607 314.556931,31.8516245 L315.974021,32.2412911 L317.421669,32.6536173 C317.665539,32.724237 317.91072,32.7958086 318.157229,32.8683359 L319.652379,33.3150004 L321.180305,33.7847895 L322.741896,34.2778892 L324.338038,34.7944855 L325.969619,35.3347644 C326.244552,35.4267948 326.520998,35.5198196 326.798976,35.6138429 L328.485379,36.1899944 L330.20944,36.7902933 L331.972045,37.4149257 C332.269073,37.5210692 332.567745,37.6282344 332.868078,37.7364251 L334.690164,38.3979065 L336.553012,39.0841863 L337.5,39.4366837 L337.169729,40.333309 L335.297366,39.6386731 L333.466269,38.9688093 L331.67555,38.3235289 L329.924322,37.7026435 L328.211698,37.1059644 L326.536791,36.5333032 L324.898714,35.9844713 L323.296579,35.4592802 L321.729499,34.9575413 C320.179651,34.4674657 318.681055,34.0122856 317.229719,33.5911525 L315.793988,33.1813371 L314.388877,32.7940311 C314.157194,32.7313455 313.92675,32.6695898 313.697526,32.6087603 L312.33668,32.2548651 C311.887847,32.1405835 311.443748,32.029975 311.004235,31.9230081 L309.699304,31.6130006 C295.923627,28.4221153 286.692263,28.9280508 277.159929,32.1011085 L276.569231,32.3012821 L275.655656,32.6286948 L273.074786,33.5931887 L263.926171,37.0854573 L263.226145,37.3444466 C253.637532,40.8103547 244.299557,43.0288463 231.958216,44.2757816 L231.002903,44.369788 C196.31853,47.6926422 187.051943,64.4775815 202.9948,95.115681 L203.485633,96.048349 L202.648493,96.5 C185.709663,64.6673328 195.202721,46.8389094 230.912948,43.4177757 C243.330661,42.2281261 252.666133,40.0837 262.173531,36.7065854 L263.022593,36.4016951 L265.111143,35.6144328 L272.752231,32.693631 L274.894702,31.8904758 L275.932444,31.5125614 L276.408056,31.3460724 C285.043002,28.3997303 293.370222,27.5894041 304.813246,29.6326308 Z" id="路径" fill="url(#radialGradient-8)" fill-rule="nonzero" opacity="0.5" mask="url(#mask-3)"></path>
                    <path d="M211.260774,-76.5 L212.023863,-75.9293641 C208.130831,-70.6509868 207.718532,-61.5124545 210.852265,-48.5042286 C211.115128,-47.2708203 211.300405,-45.7024994 211.411142,-43.8888309 L211.460314,-42.9619656 C211.467478,-42.8042187 211.474129,-42.6448716 211.480267,-42.4839763 L211.510962,-41.5004389 C211.543729,-40.1653887 211.543932,-38.7378811 211.512474,-37.2444539 L211.482959,-36.1124383 L211.441655,-34.9581908 C211.433793,-34.7641017 211.425444,-34.56919 211.416609,-34.3735075 L211.357781,-33.1905769 L211.287377,-31.9916342 L211.205481,-30.7791673 C211.190878,-30.5761007 211.175801,-30.3725742 211.16025,-30.1686398 L211.061275,-28.9405513 L210.951019,-27.7051585 L210.829568,-26.4649492 C210.787228,-26.0510197 210.743036,-25.6367022 210.697007,-25.2224112 L210.553419,-23.9800326 C210.503728,-23.5662093 210.452213,-23.1528273 210.398889,-22.7403011 L210.233503,-21.5057049 C210.148109,-20.8901052 210.058676,-20.2773641 209.965251,-19.6688811 L209.773093,-18.4580073 L209.570374,-17.2609764 L209.35718,-16.0802762 C208.847569,-13.3462966 208.253097,-10.7660028 207.578602,-8.48162061 L207.432845,-7.99669122 C205.414414,-1.40087509 206.578831,5.81462726 210.267535,9.6148522 C214.382227,13.8539442 220.862113,13.3073642 228.580836,6.96134183 C231.454743,4.05321177 232.853845,1.37016487 233.679577,-3.25094502 L233.796428,-3.94129116 L233.90572,-4.66081397 L234.008082,-5.41101996 C234.024599,-5.53869492 234.040854,-5.66771112 234.05686,-5.79809994 L234.150003,-6.59715545 C234.165062,-6.73316031 234.179899,-6.87060057 234.194525,-7.00950761 L234.279862,-7.8608023 L234.360779,-8.74880627 L234.437905,-9.67502604 L234.794759,-14.517499 L234.95659,-16.5506436 L235.051803,-17.650356 L235.14776,-18.6774088 L235.279913,-19.9584934 L235.384475,-20.8715976 L235.495668,-21.759691 L235.615259,-22.6370684 L235.790828,-23.8149423 L235.988652,-25.0330617 L236.212918,-26.3253102 C239.545569,-45.0282064 248.520311,-52.3605549 263.985857,-45.6917195 C279.998667,-38.7869008 295.336731,-20.3010886 298.718415,-4.6399393 C300.181208,2.13449986 306.387509,9.92189715 315.486048,17.1732556 C323.341924,23.4342365 332.555989,28.5785954 339.078478,30.4579166 L339.5,30.5758299 L339.252844,31.5 C332.572126,29.6884974 323.016849,24.3957675 314.896142,17.9237216 C305.803329,10.6769257 299.532785,2.88194599 297.874047,-4.0652434 L297.789608,-4.43659528 C294.473698,-19.7931322 279.343715,-38.0281595 263.611679,-44.811907 C248.801463,-51.1981602 240.385473,-44.3223107 237.148486,-26.1562845 L236.956329,-25.0535402 C236.926014,-24.8751139 236.896519,-24.6990749 236.867789,-24.5249805 L236.70415,-23.5002116 C236.652372,-23.164041 236.603218,-22.8321095 236.55625,-22.5008773 L236.476202,-21.9212322 L236.329962,-20.7705812 L236.22971,-19.8977743 L236.102838,-18.6759566 L235.980315,-17.3600465 L235.858414,-15.9198034 L235.635369,-13.0092428 L235.459783,-10.5704079 L235.346914,-9.12758617 C235.333958,-8.97210306 235.32085,-8.81819981 235.307577,-8.66584613 L235.225857,-7.77007661 L235.139551,-6.9100432 L235.048027,-6.08429227 C235.016579,-5.81459419 234.984157,-5.55036759 234.950655,-5.2913702 L234.846804,-4.5298234 L234.735842,-3.79819824 C233.894506,1.46089352 232.428678,4.42356408 229.218391,7.66949192 C221.118394,14.332411 214.092771,14.9250241 209.58778,10.2838325 C205.705712,6.28439701 204.455857,-1.09586609 206.412479,-7.90107923 L206.524483,-8.27852989 C206.911537,-9.54334194 207.272971,-10.9079262 207.607899,-12.3457437 L207.854112,-13.4374234 C208.135529,-14.7261019 208.396485,-16.0657698 208.636384,-17.438648 L208.836843,-18.6231193 C208.869388,-18.8217485 208.901501,-19.0209517 208.933178,-19.2206773 L209.118012,-20.4248829 L209.292324,-21.6391347 L209.456034,-22.8609447 C209.508827,-23.2691979 209.55984,-23.6782962 209.609057,-24.0878248 L209.751311,-25.317287 L209.882712,-26.5468433 L210.003179,-27.7740056 L210.112627,-28.9962859 L210.210974,-30.2111961 C210.226435,-30.4129287 210.241431,-30.6142506 210.255958,-30.8151099 L210.337498,-32.0143 C210.350148,-32.2131016 210.362326,-32.411337 210.374032,-32.6089543 L210.438577,-33.7868262 L210.49169,-34.9473758 L210.533286,-36.0881153 C210.539254,-36.2764495 210.544739,-36.4638545 210.549739,-36.6502787 L210.573906,-37.7566378 C210.586118,-38.4858101 210.590515,-39.197629 210.586985,-39.8887769 L210.575731,-40.9095809 L210.552506,-41.8968905 C210.547632,-42.0585127 210.542257,-42.2186356 210.536377,-42.3772074 L210.495037,-43.3096103 L210.441517,-44.2022986 C210.332181,-45.8009686 210.16102,-47.1868674 209.925731,-48.2910038 C206.783783,-61.3326155 207.146681,-70.6482296 211.074067,-76.2405853 L211.260774,-76.5 Z" id="路径" fill="url(#radialGradient-9)" fill-rule="nonzero" opacity="0.5" mask="url(#mask-3)"></path>
                    <path d="M313.187242,49.9177605 C322.038677,48.9058011 331.608432,49.6973215 342.704795,52.6756944 L343.5,52.8921597 L343.25364,53.7959789 C331.929938,50.6706987 322.233782,49.8267248 313.292385,50.8489692 C308.368947,51.411852 304.143184,52.3970037 299.075316,54.0977963 L297.842071,54.5198771 C296.591081,54.9559986 295.28449,55.4346928 293.901012,55.9600154 L287.206144,58.5526081 C273.925103,63.5996049 264.282732,66.0162445 251.651512,67.5502666 C227.312675,71.44702 220.701582,80.6532975 231.386952,95.4898813 L231.716045,95.9411984 L230.968333,96.5 C219.325453,80.7257178 226.319224,70.6570872 251.522524,66.6222656 C263.796277,65.1313318 273.207733,62.8103085 285.939482,58.0300366 L287.827931,57.3103293 L292.15853,55.6248734 L293.599689,55.0727246 L295.011189,54.5434225 C301.710355,52.0637362 306.685855,50.7123388 312.591597,49.9883052 L313.187242,49.9177605 Z" id="路径" fill="url(#radialGradient-10)" fill-rule="nonzero" opacity="0.5" mask="url(#mask-3)"></path>
                    <path d="M281.412122,-79.5 C285.317927,-60.6596851 293.922075,-44.379164 307.256116,-30.6192741 C314.092272,-22.2769515 319.382714,-12.3994798 323.14984,0.510004118 L323.388226,1.33814586 C326.119176,10.9562824 334.28783,16.6735288 347.989983,18.4874364 L348.5,18.5528334 L348.387731,19.5 C334.210528,17.7404719 325.582067,11.8963177 322.598225,1.96508655 L322.492834,1.60434656 C318.748515,-11.5827766 313.441455,-21.5862243 306.567856,-29.9768247 C293.337611,-43.6272631 284.707461,-59.7845087 280.682498,-78.4392465 L280.5,-79.3020077 L281.412122,-79.5 Z" id="路径" fill="url(#radialGradient-11)" fill-rule="nonzero" opacity="0.5" mask="url(#mask-3)"></path>
                    <path d="M298.5,-83.2717914 L299.411534,-83.5 L299.837867,-81.789783 C299.909137,-81.5071436 299.980515,-81.2257027 300.052001,-80.9454602 L300.482203,-79.278387 L300.914982,-77.6400788 L301.350336,-76.0305373 L301.788261,-74.4497644 C301.934664,-73.9276351 302.081496,-73.4103009 302.228755,-72.8977621 L302.671816,-71.3745321 L303.117442,-69.8800765 C303.266411,-69.3867205 303.415807,-68.8981605 303.565629,-68.4143969 L304.016376,-66.9774954 C304.091714,-66.7404101 304.167158,-66.5045239 304.242709,-66.269837 L304.69729,-64.876106 C304.773267,-64.646216 304.84935,-64.4175253 304.925539,-64.1900339 L305.38395,-62.8394776 C305.537178,-62.3940897 305.690832,-61.9534993 305.84491,-61.5177069 L306.308418,-60.2247235 C306.385882,-60.0116254 306.463451,-59.7997267 306.541126,-59.5890277 L307.008451,-58.3392289 C309.820022,-50.9268106 312.768816,-45.0691637 315.852456,-40.7681094 L316.915791,-39.2961914 L317.587754,-38.3787064 L318.233343,-37.5076445 L318.855269,-36.6790528 L319.456247,-35.8889784 L320.324371,-34.7674399 L320.884848,-34.0563648 L321.83639,-32.8748884 L323.940809,-30.3157473 L324.40844,-29.7365792 L324.721374,-29.3373453 C325.027585,-28.9311841 325.299965,-28.5417523 325.564888,-28.1286802 L325.797811,-27.7562141 C325.836736,-27.6924001 325.875748,-27.6276491 325.9149,-27.5618576 L326.151936,-27.1537981 L326.394921,-26.7158099 L326.646419,-26.2429335 C326.689188,-26.1609379 326.732418,-26.077282 326.776163,-25.9918624 L327.045244,-25.4573543 L327.329253,-24.8755589 L327.788869,-23.9033527 L328.277092,-22.8401496 L329.097916,-21.0179884 L330.176364,-18.5790228 L331.35678,-15.8647173 L332.639176,-12.8750458 L333.785752,-10.1732849 L335.255147,-6.67870746 L337.09838,-2.25357256 L338.5,1.13679481 L337.632649,1.5 L335.163139,-4.45916792 L333.401154,-8.66556415 L331.778092,-12.4969666 L330.497484,-15.4825299 L329.318969,-18.1925307 L328.590018,-19.8460947 L327.742651,-21.740795 L327.268273,-22.7857401 L326.808788,-23.7791032 L326.525959,-24.375527 L326.259424,-24.9241764 L326.007042,-25.4292345 L325.766666,-25.8948843 L325.536155,-26.325309 C325.498439,-26.3943434 325.461045,-26.4620844 325.423929,-26.5286191 L325.204194,-26.9140493 L324.988965,-27.274712 L324.776097,-27.6147903 C324.524482,-28.0071135 324.265759,-28.3770186 323.973538,-28.7646233 L323.652718,-29.1733171 L320.977974,-32.4353987 L320.429888,-33.1156071 L319.871744,-33.8185354 C319.777731,-33.9378031 319.683186,-34.0581821 319.588052,-34.1797548 L318.714427,-35.3083628 L318.109829,-36.1031674 L317.162872,-37.3688549 L316.159707,-38.7345774 L315.45518,-39.7072219 L315.091174,-40.2136754 C312.311138,-44.0912634 309.647454,-49.1947297 307.098452,-55.5253532 L306.621858,-56.7267261 C306.463441,-57.1319776 306.305471,-57.5420229 306.147949,-57.9568625 L305.676723,-59.215764 C305.520095,-59.6401923 305.363913,-60.0694151 305.208178,-60.5034327 L304.742311,-61.8198704 C304.587468,-62.263478 304.433071,-62.7118808 304.279119,-63.165079 L303.818601,-64.5390603 L303.360753,-65.9418162 L302.905574,-67.3733486 C302.829933,-67.6143354 302.754403,-67.8565214 302.678984,-68.0999065 L302.227803,-69.5746072 C302.152828,-69.822789 302.077964,-70.07217 302.003211,-70.3227503 L301.556022,-71.8406234 C301.481712,-72.0960008 301.407513,-72.3525776 301.333424,-72.6103538 L300.890222,-74.1714036 C300.816576,-74.4339774 300.743041,-74.6977506 300.669617,-74.9627234 L300.230396,-76.566954 L299.793826,-78.1999743 C299.721285,-78.4745436 299.648855,-78.7503125 299.576535,-79.0272811 L299.143937,-80.7034893 C299.072058,-80.9852568 299.000289,-81.268224 298.928631,-81.5523911 L298.5,-83.2717914 Z" id="路径" fill="url(#radialGradient-12)" fill-rule="nonzero" opacity="0.5" mask="url(#mask-3)"></path>
                    <path d="M339.49785,62.5 L339.5,63.4478712 C315.809266,63.5038316 301.534809,73.6313301 296.551453,93.8832077 L296.403286,94.5 L295.5,94.2794429 C300.399554,73.3799008 314.864793,62.7707697 338.770544,62.5048909 L339.49785,62.5 Z" id="路径" fill="url(#radialGradient-13)" fill-rule="nonzero" opacity="0.5" mask="url(#mask-3)"></path>
                    <path d="M260.528918,91.8645876 C262.871422,90.8370118 262.870382,85.3781991 260.526595,79.671988 C258.182807,73.965777 254.383818,70.1729937 252.041314,71.2005695 C249.69881,72.2281453 249.69985,77.686958 252.043637,83.3931691 C254.387424,89.0993801 258.186414,92.8921634 260.528918,91.8645876 Z" id="椭圆形" fill="#0D3996" filter="url(#filter-14)" mask="url(#mask-3)"></path>
                    <path d="M318.845555,66.3951707 C317.4517,65.0840471 313.160691,67.4405553 309.261318,71.6585792 C305.361945,75.8766031 303.330821,80.3588628 304.724677,81.6699864 C306.118532,82.98111 310.409541,80.6246018 314.308914,76.4065779 C318.208287,72.188554 320.23941,67.7062944 318.845555,66.3951707 Z" id="椭圆形" fill="#0D3996" filter="url(#filter-15)" mask="url(#mask-3)"></path>
                </g>
                <g id="币1" transform="translate(252.285116, 47.032579)" fill-rule="nonzero">
                    <g id="编组-17" transform="translate(-0.285116, 1.967421)">
                        <path d="M3.0125012,9.18444546 L3.0125012,9.18444546 C2.9918826,9.20238004 2.96831848,9.21433643 2.94475437,9.232271 C1.23046493,10.4308985 0.284954783,12.4694621 0.0434225949,14.9504118 C-0.101765352,16.9665731 0.11785655,18.9926769 0.691435782,20.928604 C0.691435782,20.928604 0.691435782,20.928604 0.691435782,20.928604 C1.18730234,22.6651663 1.87192315,24.340387 2.73267732,25.9233835 L2.73267732,25.9233835 C3.18270056,26.7611299 3.67424938,27.575207 4.20543457,28.3624859 C4.66493483,29.0380216 5.1479992,29.6836664 5.64579115,30.293442 L5.64579115,30.293442 C6.77110155,31.6838753 8.04331792,32.9448445 9.43961381,34.0537249 C9.43961381,34.0537249 9.43961381,34.0537249 9.43961381,34.0537249 C10.96334,35.2931181 12.6861511,36.2567569 14.5324084,36.9023334 L14.5324084,36.9023334 C17.100897,37.7512367 19.5221099,37.6316729 21.366002,36.3433725 L21.4308033,36.2925578 L21.4308033,36.2925578 L26.5118158,32.7325444 L24.3615902,29.5401898 C24.3481937,27.7372116 24.0671794,25.9465721 23.5280096,24.228566 C23.5280096,24.228566 23.5280096,24.228566 23.5280096,24.228566 C23.0002015,22.5101352 22.2890634,20.8553288 21.4072392,19.2935684 L21.4072392,19.2935684 C21.0145039,18.6040836 20.5923135,17.9205769 20.140668,17.2430485 C19.6051343,16.455493 19.0289742,15.6971986 18.4145965,14.9713355 C17.2599602,13.5852712 15.9557829,12.3349895 14.5265173,11.2439327 L14.5265173,11.2439327 C13.2337288,10.2483792 11.8087237,9.44331906 10.293813,8.8526558 L8.09351369,5.62742113 L3.0125012,9.18444546 Z" id="路径" fill="#009CFF"></path>
                        <ellipse id="椭圆形" fill="url(#linearGradient-16)" transform="translate(17.280344, 19.273568) rotate(-34.620000) translate(-17.280344, -19.273568) " cx="17.280344" cy="19.2735683" rx="9.71401022" ry="16.4103999"></ellipse>
                        <path d="M8.04933098,5.70513763 C7.36537718,6.23351044 6.79336173,6.89633404 6.3674422,7.65402827 C5.95531398,8.41100399 5.66308235,9.22905324 5.50146094,10.0781852 C5.20190316,11.7799897 5.21788608,13.5235756 5.54858917,15.2194305 C5.85763744,16.9203824 6.36488072,18.5780127 7.05963811,20.1574172 C7.74835649,21.7412821 8.58476289,23.254676 9.55743439,24.6769305 C10.5267894,26.102712 11.6285372,27.4309583 12.8475741,28.643461 C14.0551948,29.8659238 15.4007856,30.9394617 16.8564193,31.8417938 C18.3001087,32.7540765 19.8981117,33.3865188 21.5692425,33.7069897 C22.4094038,33.8548962 23.2673324,33.8670022 24.1112215,33.7428589 C24.9604054,33.6056311 25.7731764,33.2944254 26.5000337,32.8281955 C25.798948,33.3498388 24.9951792,33.7117885 24.1436221,33.8893246 C23.2851969,34.0613336 22.4052671,34.093621 21.5368418,33.9849756 C19.8023879,33.7294588 18.1335985,33.1334917 16.6237237,32.2303762 C13.5839527,30.4727878 11.0714288,27.8961869 9.08320656,25.0027419 C7.09498428,22.1092969 5.63695461,18.8063457 5.09497994,15.2971469 C4.79996918,13.5438411 4.84298303,11.7491041 5.22163707,10.0124251 C5.42975584,9.14999496 5.77178474,8.32666629 6.23489405,7.57332268 C6.69907024,6.82445427 7.31819109,6.18699352 8.04933098,5.70513763 Z" id="路径" fill="#5AD4FF"></path>
                        <path d="M10.8181146,23.8011253 C13.0861608,27.1489129 15.9639284,29.7135573 18.9182794,31.0586506 C22.4528968,32.6667843 24.4941384,31.8417938 25.3984113,31.2081054 C26.3026843,30.574417 27.7901691,28.924436 27.5574734,25.005731 C27.366015,21.7177253 26.0081328,18.0799954 23.7283046,14.7471533 C21.4484764,11.4143111 18.5972184,8.83472122 15.6399218,7.48663889 C12.1053044,5.8785052 10.0640629,6.70349572 9.15978994,7.33718409 C8.25551699,7.97087246 6.76508666,9.62085349 7.00072782,13.5425476 C7.19218626,16.821586 8.55006844,20.4652941 10.8181146,23.8011253 Z" id="路径" fill="url(#linearGradient-17)"></path>
                        <path d="M18.9182794,31.0586506 C19.8618371,31.4460977 20.8526253,31.7024868 21.8637939,31.8208701 C22.846142,31.9322591 23.8396397,31.7635362 24.732725,31.3336474 C25.5936248,30.8758861 26.2675298,30.1242576 26.6355274,29.2113892 C27.0105403,28.290287 27.2104236,27.3054951 27.2246303,26.3089769 C27.2346205,24.282895 26.8720087,22.2727067 26.1554085,20.3815994 C25.4590705,18.4748665 24.5245896,16.6666533 23.3748429,15.0012264 C22.2466929,13.3200975 20.9113674,11.792239 19.4013438,10.4548113 C17.9122806,9.10482875 16.1881427,8.04855217 14.3173858,7.34017318 C13.3964738,6.99812767 12.4198847,6.83684299 11.4396182,6.86490691 C10.4670309,6.88942177 9.53430381,7.2621038 8.8063282,7.91706873 C8.08842374,8.61631658 7.57817968,9.50588597 7.33357096,10.4847023 C7.08648462,11.4839495 6.9745101,12.5126646 7.00072782,13.5425476 C6.88042992,12.5046528 6.91818126,11.454155 7.11265737,10.4279094 C7.30688481,9.37151873 7.78963153,8.39173994 8.50588572,7.60022454 C9.28579578,6.82840337 10.3090322,6.36055193 11.3954354,6.27904407 C12.4566659,6.20150896 13.522561,6.33659026 14.5324084,6.67659385 C16.5207898,7.35255357 18.3591524,8.41786411 19.9433185,9.81215564 C23.119538,12.5650158 25.5328765,16.1113417 26.9448064,20.1006244 C27.6648502,22.0972512 27.9940266,24.2172811 27.9138807,26.341857 C27.8668372,27.4215369 27.6127047,28.4815367 27.16572,29.4624733 C26.7051918,30.4637543 25.9114703,31.2681611 24.9241835,31.7341863 C23.9411883,32.133181 22.8675293,32.2439997 21.8255022,32.0540196 C20.8117179,31.8760629 19.8310901,31.5403176 18.9182794,31.0586506 Z" id="路径" fill="#008CFF"></path>
                        <polygon id="路径" fill="#FF0500" points="24.5059204 20.9106694 23.8932534 21.4965322 23.804888 21.5772378 24.417555 20.9943641"></polygon>
                        <path d="M19.7989883,14.7202514 C19.6603136,14.511753 19.4757821,14.3388173 19.2599591,14.2150942 C19.093989,14.1234515 18.9135958,14.0617565 18.726821,14.0327593 L18.6090004,14.0327593 C18.4121652,14.0215061 18.2181519,14.0842961 18.0640802,14.209116 L18.0640802,14.209116 L17.4514132,14.8069352 L17.4514132,14.8069352 C17.6061335,14.683351 17.7996743,14.6207139 17.9963334,14.6305785 C18.0355525,14.6276112 18.0749349,14.6276112 18.114154,14.6305785 C18.3011197,14.6570301 18.481778,14.7178029 18.6472921,14.8099243 C18.8624882,14.934518 19.0468411,15.1072864 19.1863213,15.3150815 L23.804888,21.5921833 L24.417555,20.9943641 L19.7989883,14.7202514 Z" id="路径" fill="#008EFF"></path>
                        <path d="M17.7930929,15.4196999 L15.9757105,14.893619 L16.0316752,14.4362873 L16.081749,13.9968902 C16.1300246,13.578205 16.3181822,13.1889375 16.6148871,12.8939137 L16.0022201,13.4767874 C15.7060989,13.772239 15.5180482,14.1612854 15.469082,14.5797639 L15.4190082,15.0311174 L15.3630435,15.4914382 L17.1804259,16.01453 L17.7930929,15.4196999 Z" id="路径" fill="#008EFF"></path>
                        <path d="M18.9683532,22.3992392 C18.8473343,22.3835562 18.7273392,22.3605995 18.6090004,22.33049 C17.6856706,22.0794323 16.8761476,21.5124068 16.3173901,20.7253454 C15.4013351,19.4938378 15.469082,18.9498224 15.5986846,17.9544534 L15.6163577,17.7990204 L17.7636378,18.3729268 C17.7901474,18.3729268 17.9433141,18.4177633 18.0788078,18.4625997 C18.4267926,18.4995796 18.7412353,18.6897254 18.938898,18.9827024 C19.1649245,19.2715653 19.2921031,19.6272682 19.3011963,19.996006 C19.3148207,20.2802336 19.2075546,20.5567207 19.0066449,20.7552364 L19.6193119,20.1574172 C19.8195771,19.9584671 19.9267243,19.6822863 19.9138633,19.3981868 C19.9047702,19.029449 19.7775916,18.6737461 19.5515651,18.3848832 C19.349004,18.1001782 19.0358266,17.9173279 18.6914748,17.8827151 C18.5559812,17.8408677 18.3969234,17.8049986 18.3763048,17.7960313 L14.2820396,16.6870766 C14.1978005,16.6591198 14.1109358,16.6400874 14.0228344,16.6302838 C13.8499644,16.6133561 13.6755109,16.6326875 13.5103148,16.6870766 C13.3703687,16.7287603 13.2421645,16.8035428 13.1362345,16.9052806 L12.5235675,17.5030999 C12.6294975,17.401362 12.7577017,17.3265795 12.8976478,17.2848958 C13.0640755,17.2365351 13.2385059,17.2233101 13.4101673,17.2460376 C13.4980321,17.2572839 13.5847626,17.2762869 13.6693726,17.3028304 L15.4897006,17.7900531 L15.0125272,18.2085265 L14.9742355,18.5373271 C14.8446329,19.5356852 14.7768861,20.0767116 15.6929411,21.3082192 C16.2525821,22.0949818 17.061617,22.6627207 17.9845513,22.9163529 C18.1029434,22.9454907 18.22294,22.9674496 18.3439041,22.982113 C18.9864324,23.0829064 19.6410376,22.9038084 20.146559,22.4889121 L20.2260879,22.4171738 L20.8387549,21.8193546 L20.759226,21.894082 C20.2585209,22.3099354 19.6087086,22.4932301 18.9683532,22.3992392 L18.9683532,22.3992392 Z" id="路径" fill="#008EFF"></path>
                        <path d="M17.4867594,26.7872323 C16.9278583,26.7023862 16.4264682,26.3919267 16.0964766,25.9263726 L11.4484547,19.6492708 C10.9891367,19.0722541 10.7010465,18.3745471 10.6178196,17.6376092 C10.5328572,16.9949233 10.6884041,16.3432657 11.0537558,15.8112715 C11.1514235,15.6624979 11.2650274,15.5251587 11.3924899,15.4017653 L10.7798229,15.9995845 C10.6523604,16.1229779 10.5387565,16.2603171 10.4410887,16.4090907 C10.0771844,16.9394874 9.92170532,17.588729 10.0051526,18.2294502 C10.0883795,18.9663881 10.3764696,19.6640951 10.8357877,20.2411119 L15.4838095,26.5182136 C15.8128638,26.9847926 16.3147219,27.295542 16.8740924,27.3790733 C17.3271699,27.4431961 17.7846513,27.2972262 18.120045,26.9815235 L18.732712,26.3837043 C18.3977061,26.7004376 17.9406355,26.8484695 17.4867594,26.7872323 L17.4867594,26.7872323 Z" id="路径" fill="#008EFF"></path>
                        <path d="M20.6944247,17.6166855 C21.2052563,18.2838033 21.5041854,19.092742 21.5515694,19.9362241 C21.6054238,20.6799716 21.3172597,21.4071787 20.7710081,21.9060384 C20.2654867,22.3209347 19.6108814,22.5000327 18.9683532,22.3992392 C18.8473343,22.3835562 18.7273392,22.3605995 18.6090004,22.33049 C17.6856706,22.0794323 16.8761476,21.5124068 16.3173901,20.7253454 C15.4013351,19.4938378 15.469082,18.9498224 15.5986846,17.9544534 L15.6369763,17.6256528 L17.5162145,18.1098864 C17.4985415,18.2324393 17.4720318,18.5582508 17.4690863,18.6150436 C17.3762652,18.9970284 17.4657136,19.4010742 17.7106185,19.7060637 C17.9412558,20.0236824 18.2666141,20.2574234 18.6384556,20.3726321 C18.7034054,20.3896158 18.7693092,20.4025923 18.835805,20.4114903 C19.1171626,20.4615539 19.4054964,20.3764423 19.6164946,20.181043 C19.8274929,19.9856437 19.9373207,19.7020296 19.9138633,19.4131323 C19.9047702,19.0443944 19.7775916,18.6886916 19.5515651,18.3998287 C19.3519325,18.1094757 19.038318,17.9209207 18.6914748,17.8827151 C18.5559812,17.8408677 18.3969234,17.8049986 18.3763048,17.7960313 L14.2820396,16.6870766 C14.1978005,16.6591198 14.1109358,16.6400874 14.0228344,16.6302838 C13.8499644,16.6133561 13.6755109,16.6326875 13.5103148,16.6870766 C13.2795066,16.7572751 13.0810203,16.9088724 12.9506671,17.1145174 C12.8176651,17.3376698 12.764606,17.6005562 12.8004458,17.8588023 C12.8489306,18.1488146 12.9695796,18.4214621 13.1509621,18.6509128 L18.8564236,26.2701187 L18.732712,26.3896825 C18.3966747,26.704259 17.9397296,26.8500578 17.4867594,26.7872323 C16.9278583,26.7023862 16.4264682,26.3919267 16.0964766,25.9263726 L11.4484547,19.6492708 C10.9891367,19.0722541 10.7010465,18.3745471 10.6178196,17.6376092 C10.5328572,16.9949233 10.6884041,16.3432657 11.0537558,15.8112715 C11.3897195,15.311348 11.8932125,14.9523073 12.4705482,14.800957 C12.8628966,14.6931795 13.2726249,14.6667478 13.6752636,14.7232405 C13.8976943,14.7513795 14.1174121,14.7983729 14.3321134,14.863728 L18.3026669,16.1191484 C18.4764523,16.1639848 18.5294715,16.1849085 18.5824908,16.2028431 C19.430799,16.418058 19.9138633,16.5645237 20.6944247,17.6166855 Z M24.3880998,18.7943894 L20.9035562,14.0626503 C20.560721,13.5900816 20.1292951,13.1908727 19.6340395,12.8879355 C19.2154746,12.6325137 18.7489641,12.4686008 18.2643752,12.406691 L18.1023719,12.406691 C17.6234193,12.3720334 17.1469808,12.5026488 16.7503808,12.777339 C16.3696912,13.0753294 16.1250669,13.5178509 16.0729124,14.0028683 L16.0228387,14.4542219 L15.9757105,14.893619 L17.7930929,15.4167108 L17.7930929,15.1626376 L17.8313846,14.7172623 C17.8361583,14.5198884 17.920224,14.3330712 18.0640802,14.2001487 C18.2181519,14.0753288 18.4121652,14.0125388 18.6090004,14.023792 L18.726821,14.023792 C18.9135958,14.0527892 19.093989,14.1144842 19.2599591,14.2061269 C19.4757821,14.32985 19.6603136,14.5027858 19.7989883,14.7112841 L24.417555,20.9883859 L24.5059204,20.9046912 C24.9801483,20.4593159 24.9182925,19.529707 24.3880998,18.7943894 L24.3880998,18.7943894 Z" id="形状" fill="url(#linearGradient-18)"></path>
                    </g>
                    <g id="编组-15" transform="translate(36.714884, 0.967421)">
                        <path d="M27.1490594,9.58908815 L27.1490594,9.58908815 L27.1924789,9.63250757 C28.2519129,10.8250945 28.6079522,12.4866113 28.3503303,14.3420682 C28.3517052,14.3632732 28.3517052,14.384545 28.3503303,14.40575 C28.0965764,15.9275386 27.5647444,17.3895858 26.7814416,18.7187465 L26.7814416,18.7187465 C26.0956351,19.9148415 25.2781214,21.0304272 24.3441644,22.0446747 L24.3441644,22.0446747 C23.851954,22.5835747 23.3321539,23.0966116 22.7868542,23.5817224 C22.3179244,23.9985489 21.8403107,24.3844994 21.3540131,24.7395738 L21.3540131,24.7395738 C20.2547574,25.563245 19.0686089,26.2640627 17.8167771,26.8294956 C17.8167771,26.8294956 17.8167771,26.8294956 17.8167771,26.8294956 C16.4470305,27.4658624 14.9785558,27.8633296 13.4748343,28.0047148 L13.4748343,28.0047148 C11.3878071,28.1610248 9.59024279,27.6255185 8.43818064,26.3287249 L8.39765584,26.2824108 L8.39765584,26.2824108 L5.21356447,22.7104392 L7.44821769,20.7218295 C7.78381987,19.3877138 8.3196172,18.1121453 9.03736875,16.93855 C9.03736875,16.93855 9.03736875,16.93855 9.03736875,16.93855 C9.74487249,15.7621455 10.5796909,14.6671743 11.5267493,13.673409 L11.5267493,13.673409 C11.941646,13.2334255 12.3835593,12.8050204 12.8524891,12.3881939 C13.3846344,11.9037759 13.941125,11.4467966 14.5197952,11.0190346 L14.5197952,11.0190346 C15.6364303,10.2127017 16.8393112,9.53310797 18.1062399,8.99279467 L18.1062399,8.99279467 C19.2583169,8.49243005 20.4755904,8.15814277 21.7216309,7.99993709 L23.9562842,6.01422192 L27.1490594,9.58908815 Z" id="路径" fill="url(#linearGradient-19)"></path>
                        <ellipse id="椭圆形" fill="url(#linearGradient-20)" transform="translate(14.606206, 14.417594) rotate(-41.630000) translate(-14.606206, -14.417594) " cx="14.606206" cy="14.4175935" rx="12.5829502" ry="7.48550936"></ellipse>
                        <path d="M24.0141767,6.0634306 C24.4815726,6.55076379 24.8363091,7.13474504 25.0533484,7.77415606 C25.270416,8.41991281 25.383748,9.09599659 25.3891253,9.777239 C25.3673897,11.1392365 25.0782387,12.4836904 24.5381045,13.7341962 C23.4591395,16.227454 21.8361575,18.4478042 19.7880191,20.2326372 C17.7760335,22.0620664 15.3807724,23.4189194 12.7772288,24.2040676 C11.4706254,24.5916087 10.1007609,24.7194497 8.74501127,24.5803693 C8.06874116,24.4934161 7.41092813,24.2979294 6.79692627,24.0014436 C6.18674547,23.7101557 5.64740101,23.2893484 5.21645909,22.7683318 C5.68554105,23.2383221 6.24346012,23.6102682 6.85771347,23.8625014 C7.46908818,24.1042808 8.11484149,24.2478901 8.77106292,24.2880118 C10.0846197,24.3514186 11.3985981,24.1718383 12.6469705,23.7582948 C13.9006179,23.3569309 15.1024899,22.8089473 16.227626,22.1257243 C17.3609811,21.4502799 18.4271918,20.6680689 19.4117174,19.7897591 C20.3999015,18.9126522 21.3022778,17.9433974 22.1066165,16.8951305 C22.9110307,15.8568962 23.5910766,14.7280199 24.1328565,13.5315722 C24.6922276,12.3414005 25.0249967,11.0574419 25.1141356,9.74539809 C25.1529708,9.08873631 25.0865198,8.43008961 24.9173008,7.79441846 C24.733954,7.16327106 24.4269625,6.57487073 24.0141767,6.0634306 Z" id="路径" fill="url(#linearGradient-21)"></path>
                        <path d="M18.6938495,19.0197879 C16.3578843,21.0981312 13.694826,22.4933421 11.1996563,22.953588 C8.21529425,23.5035675 6.81139941,22.5049206 6.23826296,21.8594185 C5.66512652,21.2139163 4.83726276,19.7029202 5.7345976,16.8082917 C6.47272787,14.3796984 8.18345333,11.8874232 10.5252078,9.82355306 C12.8669623,7.75968292 15.5242313,6.34999883 18.0222957,5.88685826 C21.0037631,5.33977347 22.4105525,6.33842031 22.9807943,6.98102785 C23.5510362,7.62363538 24.3817946,9.14042073 23.4873543,12.0379439 C22.7347509,14.460748 21.0327094,16.9414446 18.6938495,19.0197879 Z" id="路径" fill="url(#linearGradient-22)"></path>
                        <path d="M11.1996563,22.953588 C10.41203,23.1506836 9.59884024,23.2258524 8.78843069,23.1764744 C7.95506483,23.1301745 7.15199588,22.8480965 6.47272787,22.3630838 C5.79462747,21.8269255 5.32808202,21.0681483 5.1556719,20.2210587 C4.99217468,19.3944479 4.99217468,18.5438159 5.1556719,17.717205 C5.48188822,16.0981689 6.1210088,14.55838 7.03718044,13.1842168 C8.85101208,10.4438063 11.3509807,8.22626925 14.2882249,6.75235219 C15.7605335,6.00254369 17.3653934,5.54822675 19.0122586,5.41503381 C19.8520128,5.34953749 20.6964928,5.44784714 21.4987445,5.70449667 C22.3200401,5.9773327 23.0189844,6.53074905 23.4728812,7.26759607 C23.8754759,8.00142454 24.0602509,8.83492024 24.0054928,9.67013775 C23.9559321,10.477088 23.7831483,11.2716984 23.4931436,12.0263654 C23.6896221,11.2568091 23.7811495,10.4642206 23.7652387,9.67013775 C23.7539507,8.89781748 23.5273942,8.14396582 23.1110526,7.49337709 C22.680215,6.87989785 22.0467371,6.43810341 21.3221722,6.2457922 C20.5865398,6.0499012 19.8206573,5.99393286 19.064362,6.08079837 C17.5219788,6.2685136 16.0280012,6.74163923 14.6587373,7.47600932 C11.8792581,8.94053464 9.49717726,11.0583813 7.71741814,13.6473573 C6.82673255,14.9209274 6.18084734,16.3491386 5.81275257,17.8590418 C5.63777463,18.5996257 5.60340857,19.3664799 5.71144057,20.1197467 C5.81733055,20.8627877 6.18229786,21.5445384 6.74192833,22.0446747 C7.33907315,22.5342797 8.06071909,22.8479952 8.82606086,22.9506934 C9.61339747,23.060294 10.4120547,23.0612679 11.1996563,22.953588 Z" id="路径" fill="#008CFF"></path>
                        <g id="编组" transform="translate(9.077894, 8.703332)">
                            <path d="M4.59088084,2.07834328 L4.62272175,2.05229162 C4.64491118,2.0323862 4.66917187,2.0149185 4.69508747,2.00018831 L4.72113912,1.97992591 C4.74429615,1.96255814 4.77034781,1.95097963 4.79350484,1.93650648 L4.82824038,1.91624408 C4.86374625,1.89652739 4.90048795,1.87912343 4.93823626,1.86414077 C5.03021723,1.82642069 5.12831491,1.80582018 5.22769912,1.80335357 C5.29511815,1.79760545 5.36290408,1.79760545 5.43032311,1.80335357 C5.57489258,1.82498101 5.70769471,1.89546829 5.80662482,2.00308294 C5.80745612,2.00884235 5.80745612,2.0146913 5.80662482,2.02045071 L5.46505865,1.54862626 L5.46505865,1.53415312 C5.36766204,1.42457028 5.23409713,1.35367814 5.08875695,1.33442375 C5.02133614,1.32871733 4.95355375,1.32871733 4.88613295,1.33442375 C4.78692709,1.33837377 4.68908451,1.35892071 4.5966701,1.39521095 C4.55892179,1.41019361 4.52218009,1.42759757 4.48667421,1.44731426 L4.45193867,1.46757666 L4.39115147,1.5023122 L4.39115147,1.5023122 L4.36509981,1.5225746 C4.3398259,1.53828367 4.31564834,1.55569152 4.2927341,1.57467792 L4.26089319,1.60072957 L4.23773616,1.62099197 L4.17405433,1.68177917 L0.266305824,5.63294711 L0.60787199,6.10477156 L4.50404198,2.15939288 L4.59088084,2.07834328 Z" id="路径" fill="#1294FF"></path>
                            <path d="M4.00906051,5.57794917 C4.00766983,5.55481302 4.00766983,5.53161423 4.00906051,5.50847808 L4.00906051,5.46505865 C4.00774424,5.44964869 4.00774424,5.43415456 4.00906051,5.4187446 C4.00906051,5.4187446 4.00906051,5.38979831 4.00906051,5.37532517 C4.00906051,5.36085203 4.00906051,5.35216814 4.00906051,5.34058963 C4.02440104,5.29690464 4.04277853,5.25434622 4.06405845,5.21322597 L4.06405845,5.21322597 C4.08432085,5.1755958 4.10747788,5.13796563 4.1306349,5.10033546 L4.14800268,5.0742838 L4.2319469,4.96139329 L4.30141799,4.88613295 C4.32600576,4.86137968 4.3521077,4.83817796 4.37957296,4.81666186 L4.39983536,4.79929409 L4.4750957,4.74140152 L4.4750957,4.74140152 L4.54456678,4.70377135 L4.56772381,4.70377135 L4.62561638,4.68350895 L4.64587878,4.68350895 L4.72403375,4.66324655 L4.72403375,4.66324655 L4.80508335,4.66324655 L4.83113501,4.66324655 L4.90060609,4.66324655 L4.92665775,4.66324655 L5.02218049,4.66324655 L5.31164334,4.64298415 L5.3984822,4.64298415 L5.43321774,3.38671537 L5.09165157,2.91489092 L5.05691603,4.1711597 L4.97007718,4.1711597 L4.68061432,4.1914221 L4.58509158,4.1914221 L4.63140564,4.1914221 L4.56193455,4.1914221 L4.5358829,4.1914221 L4.4548333,4.1914221 L4.4548333,4.1914221 C4.42849299,4.19582595 4.40240471,4.20162335 4.37667833,4.20878987 L4.3535213,4.20878987 L4.29852336,4.22905227 L4.27536633,4.22905227 C4.25099762,4.24036723 4.2277395,4.25393447 4.20589525,4.26957707 L4.20589525,4.26957707 L4.1306349,4.32457502 L4.1103725,4.34194279 L4.08721548,4.36220519 C4.06746462,4.37801196 4.04906807,4.39544027 4.03221753,4.4143085 C4.00854465,4.43702494 3.98630946,4.46119363 3.96564108,4.48667421 L3.96564108,4.48667421 C3.93669479,4.52140976 3.90774851,4.55903993 3.88169685,4.5966701 L3.88169685,4.5966701 L3.88169685,4.61403787 C3.85718358,4.65025003 3.83494842,4.68795312 3.8151204,4.72692838 L3.8151204,4.72692838 C3.79384048,4.76804863 3.77546298,4.81060705 3.76012245,4.85429204 C3.76166879,4.85899251 3.76166879,4.86406471 3.76012245,4.86876518 C3.7604921,4.87551425 3.7604921,4.8822785 3.76012245,4.88902758 C3.76012245,4.88902758 3.76012245,4.91797386 3.76012245,4.93244701 C3.75880619,4.94785697 3.75880619,4.9633511 3.76012245,4.97876106 L3.76012245,5.02218049 C3.75876674,5.03081146 3.75876674,5.03960117 3.76012245,5.04823215 C3.75870937,5.0626708 3.75870937,5.07721292 3.76012245,5.09165157 C3.75583998,5.14270036 3.75583998,5.19401811 3.76012245,5.24506689 C3.75853437,5.26143134 3.75853437,5.27791111 3.76012245,5.29427557 C3.76012245,5.32901111 3.76012245,5.36085203 3.76012245,5.39269294 L3.77749022,5.44769088 C3.78539044,5.476245 3.79505784,5.50428046 3.80643651,5.53163511 C3.81336079,5.5507507 3.82208379,5.56916593 3.83248817,5.58663305 C3.83248817,5.60400082 3.83248817,5.62136859 3.85564519,5.63584174 L3.89038074,5.68505042 L4.2319469,6.15687487 C4.20990212,6.1257645 4.19053521,6.09284076 4.17405433,6.0584575 C4.16364996,6.04099037 4.15492696,6.02257515 4.14800268,6.00345956 C4.136624,5.97610491 4.1269566,5.94806945 4.11905639,5.91951533 L4.10168862,5.86451739 C4.10168862,5.83267648 4.10168862,5.80083556 4.10168862,5.76610002 C4.10029185,5.74972686 4.10029185,5.7332645 4.10168862,5.71689134 C4.0666538,5.67348885 4.03564941,5.62698227 4.00906051,5.57794917 L4.00906051,5.57794917 Z" id="路径" fill="#1294FF"></path>
                            <path d="M7.9660177,4.42299239 L8.39442272,4.3940461 L8.44363141,4.3940461 C8.63197447,4.38510708 8.81943142,4.42499154 8.98782157,4.50983124 C9.10372127,4.57611868 9.20277496,4.66823861 9.27728442,4.77903169 L8.93571825,4.30720724 C8.86086868,4.1974678 8.76184112,4.10636245 8.6462554,4.04090142 C8.47885495,3.95328202 8.29063596,3.91323543 8.10206524,3.92511628 L8.05285655,3.92511628 L7.62445153,3.95695719 L7.39577588,3.98879811 L7.73734205,4.46062256 L7.9660177,4.42299239 Z" id="路径" fill="#1294FF"></path>
                            <path d="M4.94113089,7.9052305 L4.99902346,7.9052305 C5.05844162,7.89671108 5.11737816,7.885117 5.1755958,7.87049496 L5.2161206,7.87049496 L5.42453385,7.80681313 L5.47663717,7.78655073 C5.53259999,7.76532345 5.58759793,7.74216643 5.64163099,7.71707965 L5.69373431,7.69392262 C5.76320539,7.6620817 5.82978185,7.62734616 5.8963583,7.58971599 L5.93109385,7.56945359 L6.04108973,7.50287714 L6.08740379,7.47103622 L6.17134801,7.41024902 L6.29292241,7.31762091 L6.36818275,7.23657131 L6.41160218,7.19894114 C6.45212698,7.16131097 6.49554641,7.1236808 6.53607121,7.08026137 C6.57659601,7.03684194 6.62291006,6.99052789 6.66343486,6.94710846 L6.70106503,6.90658366 L6.76474686,6.83421795 L6.76474686,6.83421795 L6.83711257,6.74158983 C6.849561,6.72783459 6.86116094,6.71333465 6.87184812,6.69817041 C6.9055749,6.65685032 6.93651909,6.61333506 6.96447623,6.56791212 L6.96447623,6.56791212 C6.98971324,6.53160226 7.01290626,6.4939136 7.03394731,6.45502161 C7.04176157,6.44409492 7.0485448,6.43246653 7.05420971,6.42028607 C7.06594883,6.40063342 7.07657909,6.3803393 7.08605063,6.35949887 C7.08605063,6.35949887 7.08605063,6.35949887 7.08605063,6.34502573 C7.09451702,6.33244365 7.10132721,6.31882329 7.10631303,6.30450093 C7.10631303,6.28423853 7.12657543,6.2610815 7.13525931,6.23792447 C7.14137678,6.22391494 7.14622071,6.20938315 7.14973246,6.19450504 C7.15578036,6.18347512 7.16063229,6.1718305 7.1642056,6.1597695 C7.1642056,6.1597695 7.1642056,6.1597695 7.1642056,6.13661247 C7.1642056,6.11345544 7.17867874,6.08740379 7.18736263,6.06424676 C7.18604636,6.0488368 7.18604636,6.03334266 7.18736263,6.0179327 C7.19383303,5.99123612 7.19866642,5.96416916 7.20183577,5.9368831 C7.2031824,5.92728133 7.2031824,5.91753859 7.20183577,5.90793682 L7.20183577,5.90793682 C7.20183577,5.85872813 7.20183577,5.80951945 7.20183577,5.75741614 C7.20337994,5.74492027 7.20337994,5.73228183 7.20183577,5.71978596 C7.20183577,5.67347191 7.20183577,5.62426322 7.20183577,5.57505454 L7.20183577,5.57505454 C7.20183577,5.5200566 7.20183577,5.46216403 7.20183577,5.40716608 C7.20326753,5.39272835 7.20326753,5.37818439 7.20183577,5.36374666 C7.20183577,5.30874871 7.20183577,5.25085614 7.20183577,5.19296357 C7.20668133,5.11681536 7.20668133,5.04043613 7.20183577,4.96428792 L7.20183577,2.16228751 C7.20144522,2.09738617 7.19660952,2.03258781 7.18736263,1.9683474 C7.18876738,1.95972032 7.18876738,1.95092282 7.18736263,1.94229574 C7.17885497,1.88478636 7.1672597,1.82777629 7.15262708,1.77151266 L7.15262708,1.73967174 C7.13864481,1.68519911 7.12025142,1.63195508 7.09762914,1.58046717 C7.0987189,1.57181748 7.0987189,1.56306521 7.09762914,1.55441552 C7.07447206,1.50279123 7.04837768,1.4525354 7.01947417,1.40389483 L7.01947417,1.40389483 C7.0021064,1.37784318 6.98473863,1.34889689 6.96447623,1.32284524 L6.65764561,0.813390615 L6.71264355,0.897334843 C6.74155726,0.946964082 6.76765031,0.998183771 6.79079852,1.05075015 C6.79183233,1.05843455 6.79183233,1.06622279 6.79079852,1.07390718 C6.81343825,1.12638189 6.83182994,1.18058898 6.84579646,1.23600638 L6.84579646,1.26495267 C6.86070366,1.32212945 6.87230143,1.38011827 6.880532,1.43863038 C6.880532,1.43863038 6.880532,1.45599815 6.880532,1.46468203 C6.88505706,1.52828348 6.88505706,1.59212607 6.880532,1.65572752 L6.880532,4.45772793 C6.88629721,4.53384413 6.88629721,4.61028737 6.880532,4.68640358 C6.880532,4.74429615 6.880532,4.80218872 6.880532,4.85718666 C6.88196377,4.8716244 6.88196377,4.88616836 6.880532,4.90060609 C6.880532,4.95849866 6.880532,5.0134966 6.880532,5.06849455 L6.880532,5.06849455 C6.880532,5.11770323 6.880532,5.16691192 6.880532,5.2161206 C6.88195513,5.22765539 6.88195513,5.23932136 6.880532,5.25085614 C6.880532,5.30295946 6.880532,5.35216814 6.880532,5.40427146 L6.880532,5.439007 C6.87736265,5.46629306 6.87252927,5.49336001 6.86605886,5.5200566 C6.86506182,5.53547852 6.86506182,5.55094873 6.86605886,5.56637065 L6.84290183,5.64163099 C6.84290183,5.65899877 6.84290183,5.67926116 6.82263943,5.69952356 C6.82387519,5.71397033 6.82387519,5.72849623 6.82263943,5.74294299 L6.79369315,5.80662482 C6.78815054,5.82163306 6.7813732,5.83615594 6.77343075,5.85004425 C6.77343075,5.87320128 6.75027372,5.89925293 6.73580058,5.92240996 L6.71553818,5.96004013 C6.69527578,5.99477567 6.67211875,6.03240584 6.64606709,6.07003602 C6.61810995,6.11545895 6.58716576,6.15897422 6.55343898,6.2002943 C6.54275181,6.21545855 6.53115186,6.22995848 6.51870344,6.24371373 L6.44633772,6.33634184 L6.37107738,6.42028607 L6.33344721,6.46081087 C6.29292241,6.50423029 6.25239761,6.55054435 6.20608356,6.59685841 C6.1597695,6.64317246 6.09608767,6.70106503 6.0381951,6.75027372 L5.9571455,6.81685017 L5.83557111,6.90947829 L5.75162688,6.97026549 C5.69952356,7.00500103 5.64742025,7.03973657 5.59531694,7.06868286 L5.5605814,7.08894526 C5.4952104,7.12860879 5.42755096,7.16437163 5.3579574,7.19604651 L5.30585409,7.21920354 L5.14086026,7.28578 L5.08875695,7.3060424 C5.01928586,7.32919942 4.94981478,7.35235645 4.88034369,7.36972422 L4.83981889,7.36972422 C4.78160125,7.38434627 4.72266471,7.39594034 4.66324655,7.40445977 L4.60535398,7.40445977 C4.5358829,7.40445977 4.46641181,7.42182754 4.39694073,7.42472217 C3.79761841,7.47351953 3.21115205,7.23247647 2.81936818,6.77632538 L2.74410784,6.68080263 L3.08567401,7.15262708 L3.16093435,7.24814983 C3.55356551,7.70312649 4.13940807,7.94391315 4.73850689,7.89654661 C4.80581507,7.90347312 4.8734769,7.90637291 4.94113089,7.9052305 Z" id="路径" fill="#1294FF"></path>
                            <path d="M11.2253694,5.540319 C11.2253694,5.50558345 11.2253694,5.47374254 11.2253694,5.439007 L11.2253694,5.35506277 C11.2253694,5.32322186 11.2253694,5.28848631 11.2253694,5.25375077 C11.2268031,5.22675326 11.2268031,5.19969869 11.2253694,5.17270117 C11.2253694,5.13796563 11.2253694,5.10323009 11.2253694,5.06849455 C11.2267716,5.04246176 11.2267716,5.01637236 11.2253694,4.99033958 C11.2253694,4.95560403 11.2108963,4.92086849 11.205107,4.88613295 L11.1877392,4.80797798 C11.1877392,4.77324244 11.1674768,4.73561227 11.1558983,4.70087672 C11.1504849,4.67734955 11.1437195,4.65415404 11.1356359,4.63140564 L11.0922165,4.51272587 L11.0690595,4.4548333 C11.0459681,4.39659692 11.0198816,4.33959316 10.9909045,4.28405022 L10.6493383,3.81222577 C10.6783154,3.86776871 10.7044019,3.92477247 10.7274933,3.98300885 C10.7274933,4.00327125 10.7419665,4.02353365 10.7506503,4.04090142 L10.7940698,4.15958119 C10.8021533,4.18232959 10.8089187,4.2055251 10.8143322,4.22905227 C10.8143322,4.26668244 10.8374892,4.30141799 10.8461731,4.33615353 L10.8635409,4.4143085 C10.8635409,4.44904404 10.878014,4.48377958 10.8838033,4.51851513 C10.8854073,4.54550785 10.8854073,4.572572 10.8838033,4.59956473 C10.8838033,4.63140564 10.8838033,4.66614118 10.8838033,4.70087672 C10.8853413,4.728837 10.8853413,4.75686068 10.8838033,4.78482095 C10.8838033,4.81666186 10.8838033,4.85139741 10.8838033,4.88323832 L10.8838033,4.96718255 C10.8838033,5.00191809 10.8838033,5.033759 10.8838033,5.06849455 C10.8854019,5.09645312 10.8854019,5.1244802 10.8838033,5.15243877 C10.8810563,5.19525294 10.8752522,5.23781596 10.8664355,5.27980243 C10.8664355,5.34058963 10.8432785,5.3984822 10.8288053,5.4592694 L10.8114375,5.51716197 L10.776702,5.63584174 C10.776702,5.65320951 10.7622289,5.67347191 10.753545,5.69373431 C10.7448611,5.71399671 10.7245987,5.76899465 10.7072309,5.80662482 L10.6782846,5.87030665 C10.6782846,5.90504219 10.6435491,5.93977773 10.6261813,5.9774079 C10.6144422,5.99706055 10.6038119,6.01735467 10.5943404,6.0381951 L10.5248693,6.15108561 C10.515948,6.16852358 10.5052796,6.18501097 10.4930284,6.2002943 C10.4640821,6.24950298 10.4293466,6.29581704 10.394611,6.34502573 L10.3801379,6.3623935 C10.3425077,6.41449681 10.2990883,6.46660012 10.2556689,6.51870344 C10.2122494,6.57080675 10.1543569,6.63159395 10.0993589,6.68659189 L6.05266824,10.6840739 L5.9774079,10.7506503 L5.93398847,10.7853859 L5.87030665,10.8316999 L5.82978185,10.8606462 L5.79794093,10.8809086 L5.67636654,10.9503797 L5.63584174,10.9706421 C5.58692007,10.9938762 5.53665744,11.0141745 5.48532105,11.0314293 L5.46505865,11.0314293 C5.42054447,11.0460619 5.37509156,11.0576668 5.32901111,11.0661648 L5.28848631,11.0661648 L5.13217637,11.0835326 C4.69055433,11.1063168 4.26719468,10.9049761 4.00616588,10.5480263 L4.34194279,11.0343239 C4.60391788,11.3942352 5.02903818,11.5986408 5.47374254,11.5785141 C5.52617522,11.5746042 5.57835589,11.56784 5.63005248,11.5582517 L5.67057728,11.5582517 L5.80662482,11.5206215 L5.82688722,11.5206215 C5.87868075,11.5046275 5.92903282,11.484293 5.9774079,11.4598343 L6.0179327,11.4424666 C6.05967639,11.4215109 6.10026007,11.3983203 6.1395071,11.3729955 L6.1597695,11.3729955 L6.1597695,11.3729955 L6.2002943,11.3440492 L6.26397613,11.2977351 L6.30739555,11.2629996 L6.34502573,11.2311587 C6.3582844,11.2193516 6.37084879,11.2067872 6.3826559,11.1935285 L10.4206627,7.15841634 C10.4756606,7.1034184 10.5277639,7.04552583 10.5769726,6.98763326 L10.5769726,6.98763326 L10.6927578,6.8400072 L10.7072309,6.8197448 C10.7397306,6.77917436 10.7696986,6.73663915 10.7969644,6.69238115 L10.7969644,6.67790801 L10.8259107,6.62869932 L10.8953818,6.51580881 L10.9272227,6.45502161 L10.956169,6.39712904 C10.9650847,6.38031823 10.9728223,6.36290858 10.979326,6.34502573 C10.9907062,6.32462888 11.0003877,6.30332965 11.0082723,6.2813439 C11.02564,6.24371373 11.0401132,6.20608356 11.0545863,6.16845339 C11.0690595,6.13082321 11.0690595,6.13082321 11.0777434,6.11345544 C11.0760276,6.10681028 11.0760276,6.09983821 11.0777434,6.09319304 C11.0777434,6.0584575 11.0980058,6.02661659 11.1066896,5.99188105 C11.1141928,5.97313972 11.1200052,5.95376506 11.1240574,5.93398847 C11.1396535,5.87582321 11.1522139,5.81688616 11.1616876,5.75741614 C11.1630483,5.7381426 11.1630483,5.7187971 11.1616876,5.69952356 L11.1616876,5.63005248 L11.2253694,5.540319 Z" id="路径" fill="#1294FF"></path>
                            <polyline id="路径" fill="#857573" points="0.211307882 5.5605814 0.555768677 6.03240584 0.555768677 6.03240584 0.214202511 5.5605814 0.214202511 5.5605814"></polyline>
                            <polygon id="路径" fill="#80716F" points="0.266305824 5.63294711 0.60787199 6.10477156 0.552874048 6.03240584 0.214202511 5.5605814"></polygon>
                            <g transform="translate(10.420663, 3.473554)" id="路径">
                                <path d="M0.075,0.103333333 L0.665,0.646666667 C0.735,0.71 0.8,0.773333333 0.86,0.84 L0.27,0.296666667 C0.21,0.23 0.145,0.166666667 0.075,0.103333333" fill="#A3908E"></path>
                                <path d="M0.27,0.296666667 L0.86,0.84 C0.889605246,0.869949989 0.916325754,0.901123916 0.94,0.933333333 L0.35,0.39 C0.35,0.36 0.3,0.326666667 0.27,0.296666667" fill="#A89592"></path>
                            </g>
                            <polygon id="路径" fill="#80716F" points="4.00616588 10.5624995 4.34773204 11.0343239 4.26089319 10.9185388 3.91932702 10.4467143"></polygon>
                            <path d="M4.39115147,7.45656308 C3.79182916,7.50536044 3.20536279,7.26431739 2.81357893,6.80816629 C2.45945015,6.36424164 2.31103012,5.79056138 2.4054363,5.23059374 C2.50164621,4.62861967 2.78883518,4.07352298 3.22461618,3.64723194 C3.89327537,2.97567812 4.24352542,2.94094258 4.92086849,2.88015538 L5.1553334,2.85410373 L5.12059786,4.1103725 L5.033759,4.1103725 L4.74429615,4.1306349 C4.46960685,4.11004698 4.20068108,4.21676356 4.01484976,4.42009776 C3.82405022,4.60588181 3.70164186,4.85069854 3.66749434,5.1148086 C3.63195287,5.355375 3.7051296,5.59929744 3.86722371,5.78057316 C4.03123201,5.95254435 4.2643563,6.04089739 4.50114736,6.02082733 L4.52719901,6.02082733 C4.80901647,5.99523257 5.07213604,5.86881184 5.26822391,5.66478802 C5.46671559,5.48130324 5.56108919,5.2111995 5.5200566,4.94402552 C5.5200566,4.83692426 5.5200566,4.71824449 5.5200566,4.6979821 L5.56926528,1.95387425 C5.58213803,1.80866733 5.53975624,1.66394902 5.45058551,1.54862626 C5.35318889,1.43904342 5.21962399,1.36815128 5.0742838,1.34889689 C5.006863,1.34319047 4.93908061,1.34319047 4.87165981,1.34889689 C4.77245394,1.35284691 4.67461137,1.37339385 4.58219695,1.40968409 C4.41942205,1.47589623 4.2717273,1.57435939 4.14800268,1.69914694 L0.266305824,5.63294711 L0.211307882,5.5605814 C-0.0781549702,5.16980654 0.0434194279,4.4953581 0.500770735,4.04090142 L3.44460794,1.07969644 C3.73113008,0.781319264 4.07868044,0.548302545 4.46351718,0.396564108 C4.70851918,0.294684001 4.96868962,0.234042771 5.23348837,0.217097139 C5.35918947,0.21132159 5.48515537,0.2171354 5.60979008,0.23446491 C5.96440996,0.268499157 6.29606604,0.425114528 6.54764972,0.677343075 C6.79338939,0.943264878 6.92713453,1.29369789 6.9210568,1.65572752 L6.9210568,4.45772793 C6.92682201,4.53384413 6.92682201,4.61028737 6.9210568,4.68640358 C6.96447623,5.40137683 6.97026549,5.84425499 6.20608356,6.60843692 C5.72613236,7.1049173 5.07990381,7.4069029 4.39115147,7.45656308 Z M10.6232867,3.81222577 C10.3857795,3.38197414 10.0234691,3.03379286 9.58411504,2.81357893 C9.17132947,2.61297015 8.71345822,2.52319148 8.25548055,2.55306236 L8.15127392,2.55306236 L7.73444742,2.59358716 L7.3263048,2.63700659 L7.39577588,3.97721959 L7.62445153,3.94537868 L8.05285655,3.91353776 L8.10495987,3.91353776 C8.29353059,3.90165691 8.48174958,3.94170351 8.64915003,4.02932291 C8.82295721,4.12662326 8.96246864,4.27523326 9.04860877,4.4548333 C9.2278997,4.84718926 9.12644611,5.3108086 8.79967071,5.59242231 L3.91932702,10.4467143 L4.00616588,10.5624995 C4.26719468,10.9194492 4.69055433,11.1207899 5.13217637,11.0980058 C5.47873488,11.0749474 5.80544462,10.9280308 6.05266824,10.6840739 L10.0877804,6.68659189 C10.4828933,6.3083422 10.7509076,5.81681408 10.854857,5.27980243 C10.9422727,4.77846382 10.8608251,4.26228955 10.6232867,3.81222577 Z" id="形状" fill="url(#linearGradient-23)"></path>
                        </g>
                    </g>
                </g>
            </g>
        </g>
    </g>
</svg>