<?xml version="1.0" encoding="UTF-8"?>
<svg width="468px" height="73px" viewBox="0 0 468 73" version="1.1" xmlns="http://www.w3.org/2000/svg" xmlns:xlink="http://www.w3.org/1999/xlink">
    <title>BG</title>
    <defs>
        <radialGradient cx="102.261528%" cy="65.7003999%" fx="102.261528%" fy="65.7003999%" r="813.808863%" gradientTransform="translate(1.022615,0.657004),scale(0.106838,1.000000),rotate(15.279530),translate(-1.022615,-0.657004)" id="radialGradient-1">
            <stop stop-color="#00E0F0" offset="0%"></stop>
            <stop stop-color="#006AEA" offset="27.4115693%"></stop>
            <stop stop-color="#3567F7" offset="76.6517906%"></stop>
            <stop stop-color="#616BF8" offset="100%"></stop>
        </radialGradient>
        <rect id="path-2" x="0" y="0" width="468" height="50" rx="10"></rect>
        <radialGradient cx="116.095465%" cy="-17.0434939%" fx="116.095465%" fy="-17.0434939%" r="379.500544%" gradientTransform="translate(1.160955,-0.170435),scale(0.704225,1.000000),rotate(64.716322),translate(-1.160955,0.170435)" id="radialGradient-4">
            <stop stop-color="#FFFFFF" stop-opacity="0" offset="0%"></stop>
            <stop stop-color="#FFFFFF" stop-opacity="0.273792614" offset="100%"></stop>
        </radialGradient>
        <radialGradient cx="116.095465%" cy="-17.0434939%" fx="116.095465%" fy="-17.0434939%" r="380.610598%" gradientTransform="translate(1.160955,-0.170435),scale(0.693182,1.000000),rotate(64.364831),translate(-1.160955,0.170435)" id="radialGradient-5">
            <stop stop-color="#FFFFFF" stop-opacity="0" offset="0%"></stop>
            <stop stop-color="#FFFFFF" stop-opacity="0.273792614" offset="100%"></stop>
        </radialGradient>
        <radialGradient cx="116.095465%" cy="-17.0434939%" fx="116.095465%" fy="-17.0434939%" r="378.821513%" gradientTransform="translate(1.160955,-0.170435),scale(0.711230,1.000000),rotate(64.934631),translate(-1.160955,0.170435)" id="radialGradient-6">
            <stop stop-color="#FFFFFF" stop-opacity="0" offset="0%"></stop>
            <stop stop-color="#FFFFFF" stop-opacity="0.273792614" offset="100%"></stop>
        </radialGradient>
        <radialGradient cx="116.095465%" cy="-17.0434939%" fx="116.095465%" fy="-17.0434939%" r="418.68775%" gradientTransform="translate(1.160955,-0.170435),scale(0.475806,1.000000),rotate(55.042271),translate(-1.160955,0.170435)" id="radialGradient-7">
            <stop stop-color="#FFFFFF" stop-opacity="0" offset="0%"></stop>
            <stop stop-color="#FFFFFF" stop-opacity="0.273792614" offset="100%"></stop>
        </radialGradient>
        <radialGradient cx="116.095465%" cy="-17.0434939%" fx="116.095465%" fy="-17.0434939%" r="370.931788%" gradientTransform="translate(1.160955,-0.170435),scale(0.810345,1.000000),rotate(67.682223),translate(-1.160955,0.170435)" id="radialGradient-8">
            <stop stop-color="#FFFFFF" stop-opacity="0" offset="0%"></stop>
            <stop stop-color="#FFFFFF" stop-opacity="0.273792614" offset="100%"></stop>
        </radialGradient>
        <radialGradient cx="116.095465%" cy="-17.0434939%" fx="116.095465%" fy="-17.0434939%" r="445.406916%" gradientTransform="translate(1.160955,-0.170435),scale(0.401961,1.000000),rotate(50.390734),translate(-1.160955,0.170435)" id="radialGradient-9">
            <stop stop-color="#FFFFFF" stop-opacity="0" offset="0%"></stop>
            <stop stop-color="#FFFFFF" stop-opacity="0.273792614" offset="100%"></stop>
        </radialGradient>
        <radialGradient cx="116.095465%" cy="-17.0434939%" fx="116.095465%" fy="-17.0434939%" r="521.449031%" gradientTransform="translate(1.160955,-0.170435),scale(1.000000,0.674419),rotate(77.355676),translate(-1.160955,0.170435)" id="radialGradient-10">
            <stop stop-color="#FFFFFF" stop-opacity="0" offset="0%"></stop>
            <stop stop-color="#FFFFFF" stop-opacity="0.273792614" offset="100%"></stop>
        </radialGradient>
        <radialGradient cx="116.095465%" cy="-17.0434939%" fx="116.095465%" fy="-17.0434939%" r="734.432965%" gradientTransform="translate(1.160955,-0.170435),scale(1.000000,0.472973),rotate(81.058951),translate(-1.160955,0.170435)" id="radialGradient-11">
            <stop stop-color="#FFFFFF" stop-opacity="0" offset="0%"></stop>
            <stop stop-color="#FFFFFF" stop-opacity="0.273792614" offset="100%"></stop>
        </radialGradient>
        <radialGradient cx="116.095465%" cy="-17.0434939%" fx="116.095465%" fy="-17.0434939%" r="808.769303%" gradientTransform="translate(1.160955,-0.170435),scale(1.000000,0.428571),rotate(81.886573),translate(-1.160955,0.170435)" id="radialGradient-12">
            <stop stop-color="#FFFFFF" stop-opacity="0" offset="0%"></stop>
            <stop stop-color="#FFFFFF" stop-opacity="0.273792614" offset="100%"></stop>
        </radialGradient>
        <filter x="-250.0%" y="-142.9%" width="600.0%" height="385.7%" filterUnits="objectBoundingBox" id="filter-13">
            <feGaussianBlur stdDeviation="10" in="SourceGraphic"></feGaussianBlur>
        </filter>
        <filter x="-166.7%" y="-157.9%" width="433.3%" height="415.8%" filterUnits="objectBoundingBox" id="filter-14">
            <feGaussianBlur stdDeviation="10" in="SourceGraphic"></feGaussianBlur>
        </filter>
        <linearGradient x1="51.5010638%" y1="94.2431588%" x2="48.8107822%" y2="14.9106548%" id="linearGradient-15">
            <stop stop-color="#15AAFF" offset="0%"></stop>
            <stop stop-color="#5CDCFF" offset="100%"></stop>
        </linearGradient>
        <linearGradient x1="74.0344818%" y1="96.0014408%" x2="29.1185843%" y2="10.0380843%" id="linearGradient-16">
            <stop stop-color="#009CFF" offset="0%"></stop>
            <stop stop-color="#38CCFF" offset="100%"></stop>
        </linearGradient>
        <linearGradient x1="79.5114807%" y1="95.2301476%" x2="28.974744%" y2="9.46175275%" id="linearGradient-17">
            <stop stop-color="#2CBFFF" offset="0%"></stop>
            <stop stop-color="#3BC7FF" offset="13%"></stop>
            <stop stop-color="#60DCFF" offset="51%"></stop>
            <stop stop-color="#78E8FF" offset="81%"></stop>
            <stop stop-color="#80EDFF" offset="100%"></stop>
        </linearGradient>
        <rect id="path-18" x="0.91302289" y="0.0325785567" width="29" height="28"></rect>
        <linearGradient x1="-0.224418137%" y1="50.0518246%" x2="99.97828%" y2="50.0518246%" id="linearGradient-20">
            <stop stop-color="#009CFF" offset="0%"></stop>
            <stop stop-color="#40DBFF" offset="100%"></stop>
        </linearGradient>
        <linearGradient x1="32.2636301%" y1="48.4330515%" x2="87.094548%" y2="53.2844336%" id="linearGradient-21">
            <stop stop-color="#15AAFF" offset="0%"></stop>
            <stop stop-color="#5CDCFF" offset="100%"></stop>
        </linearGradient>
        <linearGradient x1="-1.13359162%" y1="50.0169819%" x2="100.746162%" y2="50.0169819%" id="linearGradient-22">
            <stop stop-color="#5AD4FF" offset="0%"></stop>
            <stop stop-color="#5AD4FF" offset="100%"></stop>
        </linearGradient>
        <linearGradient x1="17.9668314%" y1="80.0308152%" x2="82.9066716%" y2="18.951607%" id="linearGradient-23">
            <stop stop-color="#009CFF" offset="0%"></stop>
            <stop stop-color="#5ADCFF" offset="100%"></stop>
        </linearGradient>
        <linearGradient x1="16.8348966%" y1="79.6932894%" x2="66.3402112%" y2="29.2724432%" id="linearGradient-24">
            <stop stop-color="#2CBFFF" offset="0%"></stop>
            <stop stop-color="#3BC7FF" offset="13%"></stop>
            <stop stop-color="#60DCFF" offset="51%"></stop>
            <stop stop-color="#78E8FF" offset="81%"></stop>
            <stop stop-color="#80EDFF" offset="100%"></stop>
        </linearGradient>
    </defs>
    <g id="领取奖励" stroke="none" stroke-width="1" fill="none" fill-rule="evenodd">
        <g id="画板" transform="translate(-39.000000, -265.000000)">
            <g id="BG" transform="translate(39.000000, 265.000000)">
                <g id="路径-23-+-路径-24-+-路径-25-+-路径-26-+-路径-27-+-路径-28-+-路径-29-+-路径-30-+-路径-31-+-路径-32-+-路径-33-+-路径-34-+-路径-35-蒙版" transform="translate(0.000000, 13.000000)">
                    <mask id="mask-3" fill="white">
                        <use xlink:href="#path-2"></use>
                    </mask>
                    <use id="蒙版" fill="url(#radialGradient-1)" xlink:href="#path-2"></use>
                    <path d="M182.301332,-49.5 L182.5,-48.6975777 C170.80077,-45.7254148 165.582836,-38.1662582 166.763593,-25.8969169 L166.922926,-24.218447 L167.159796,-21.6127286 L167.362316,-19.2211882 L167.532222,-17.0144183 L167.64583,-15.3622755 L167.718601,-14.1793635 L167.799763,-12.6649977 L167.849221,-11.5681269 L167.889311,-10.4975443 L167.92041,-9.44689791 L167.942892,-8.40983569 L167.960945,-6.98777722 L167.972444,-5.20129386 L167.961174,-3.34447107 L167.922729,-1.67580097 L167.863141,-0.0282979931 L167.732563,2.7821487 L167.549361,6.2227135 L166.764805,19.8351214 C166.131223,30.6742377 159.249629,43.3732266 152.237065,48.6036108 C148.875485,51.1108758 146.084858,51.2091857 144.870391,48.4355128 C144.398589,47.3579821 144.187029,45.8690743 144.244942,43.973019 L144.268829,43.4202137 C144.320889,42.480419 144.434252,41.4483919 144.609917,40.3245892 L144.7228,39.6392981 C144.742862,39.5232487 144.76355,39.4062823 144.784863,39.2883996 L144.920264,38.5701104 L145.070736,37.8298499 C145.097074,37.7046434 145.124041,37.5785224 145.151639,37.4514872 L145.324809,36.6783107 C145.354936,36.547621 145.385695,36.4160181 145.417088,36.2835024 L145.613063,35.4774594 C145.646996,35.3412946 145.681565,35.204218 145.716771,35.0662301 L145.935659,34.2273697 C146.011174,33.9441066 146.089246,33.6572017 146.169881,33.3666586 L146.419486,32.4841186 L146.684522,31.5797717 L146.965036,30.6536397 C147.075299,30.2952331 147.183141,29.9390724 147.288572,29.5851639 L147.597639,28.530201 C147.647948,28.355502 147.697656,28.1813676 147.746764,28.0077986 L148.034225,26.9731752 L148.307346,25.9521581 C148.706298,24.4308559 149.057025,22.9556013 149.360304,21.5269621 L149.55547,20.5814481 C149.743623,19.6428525 149.910766,18.7250309 150.057128,17.8281515 L150.196572,16.9382591 C150.24075,16.6439593 150.282627,16.3519927 150.322213,16.0623655 L150.434103,15.2005081 C150.486619,14.7730947 150.533997,14.3509588 150.576267,13.9341217 L150.654003,13.1075183 C151.363418,4.91225796 150.037038,-1.15794627 146.905313,-4.934888 C142.576564,-10.1554715 134.912277,-10.5297443 126.606296,-6.28277001 L126.269222,-6.10806421 C116.222963,-0.83094774 107.618902,2.42082636 99.287914,3.55112149 C89.0558725,4.93933938 79.9229406,2.91063813 71.9215089,-3.18343087 L71.5289082,-3.48641968 C60.2826308,-12.2802067 50.11005,-16.0235121 41.0084481,-14.7473748 L40.6245107,-14.6904665 L40.5,-15.5080686 C49.9514461,-16.984974 60.4617043,-13.1852563 72.0279407,-4.14128419 C79.94007,2.0454368 88.9854054,4.11423953 99.179498,2.73117031 C106.652528,1.71727741 114.376087,-1.0371404 123.20919,-5.46422894 L124.542584,-6.14082877 C124.766239,-6.25568342 124.990615,-6.37158137 125.215724,-6.48852156 L125.893266,-6.84246777 C134.632467,-11.4330104 142.856944,-11.1035965 147.530676,-5.46695401 C150.44219,-1.95559199 151.856333,3.37680184 151.632151,10.4058073 L151.600493,11.1937835 C151.594091,11.3262745 151.587124,11.4593456 151.579594,11.5929962 L151.527629,12.4018472 L151.462072,13.2245672 C151.450011,13.3628408 151.437382,13.5016908 151.424184,13.6411162 L151.338159,14.4845687 C151.322681,14.626293 151.306633,14.7685913 151.290012,14.9114627 L151.183423,15.7755623 L151.063071,16.6533793 C151.041862,16.8008231 151.020079,16.9488369 150.99772,17.0974199 L150.856641,17.9957418 C150.782638,18.4483116 150.703433,18.9059898 150.619003,19.3687551 L150.443167,20.3010622 C150.412697,20.4575751 150.381645,20.6146516 150.35001,20.772291 L150.15319,21.7248755 C150.119218,21.8847632 150.08466,22.0452122 150.049517,22.2062217 L149.831617,23.1789982 C149.756635,23.5054948 149.679302,23.8342271 149.599611,24.1651886 L149.353454,25.1647551 C149.22683,25.667876 149.094885,26.1759987 148.957593,26.6891018 L148.675872,27.7219424 C148.627728,27.8951871 148.578989,28.0689837 148.529652,28.2433312 L148.226465,29.2960225 C148.123011,29.6491194 148.017163,30.004414 147.908913,30.3619001 L147.744737,30.8997719 C147.643192,31.2298429 147.544643,31.5555168 147.449064,31.8767977 L147.171213,32.8274651 C147.126381,32.9837145 147.082285,33.1388667 147.038922,33.292922 L146.787512,34.2040974 L146.553536,35.0889751 C146.140466,36.6871594 145.814509,38.1528817 145.571364,39.4868144 L145.446927,40.2013481 C143.935338,49.3204804 146.548352,51.8192521 151.752835,47.9374411 C158.571062,42.8520049 165.330387,30.3786456 165.949549,19.7862231 L166.735978,6.13956452 L166.977143,1.51077965 L167.07401,-0.751096605 L167.124094,-2.34384833 L167.146784,-3.52366013 L167.155794,-4.77443533 L167.147682,-6.60521794 L167.136656,-7.71260158 L167.126323,-8.39578154 L167.093609,-9.80864303 L167.058433,-10.8870986 L167.013685,-11.9892617 L166.958961,-13.1219588 L166.893857,-14.2920165 L166.817967,-15.5062615 L166.699305,-17.2057895 L166.55979,-19.0121902 L166.481914,-19.9605246 L166.354612,-21.4451325 L166.164672,-23.5511605 L165.950762,-25.8166513 C164.743096,-38.3656044 170.099738,-46.2686905 181.940535,-49.4063773 L182.301332,-49.5 Z" id="路径" fill="url(#radialGradient-4)" fill-rule="nonzero" opacity="0.5" mask="url(#mask-3)"></path>
                    <path d="M210.275636,-51.5 L210.5,-50.7111995 C200.454704,-47.8156714 193.507562,-40.800678 188.829217,-29.8398386 C188.100347,-28.1321766 187.432331,-26.3596489 186.816148,-24.4980242 L186.512334,-23.5596749 C185.913177,-21.667678 185.364349,-19.6825455 184.856827,-17.5800461 L184.606466,-16.5189037 L184.362738,-15.437527 L184.125394,-14.335243 C184.008276,-13.7787619 183.893457,-13.2141882 183.780797,-12.6411433 L183.558313,-11.4836461 C183.521699,-11.28881 183.485313,-11.0930046 183.449152,-10.8962159 L183.234833,-9.70357166 C183.199548,-9.50279357 183.164476,-9.30100412 183.129613,-9.09818929 L182.922895,-7.8688834 C182.888845,-7.66191092 182.854993,-7.453885 182.821334,-7.24479162 L182.621652,-5.97730968 C182.588744,-5.76389039 182.556018,-5.54937559 182.523469,-5.33375126 L182.33026,-4.02657881 L182.141053,-2.69210466 L181.955598,-1.32965572 L181.773643,0.0614411187 C181.743595,0.295715309 181.713682,0.531211207 181.6839,0.767942835 L181.506726,2.20327355 L181.332426,3.66893488 L180.782358,8.61710698 L179.523353,20.9297389 L179.209606,23.8548121 L178.917856,26.4255176 L178.674811,28.4312331 L178.511816,29.7037151 L178.433822,30.2927865 C178.355317,30.8795246 178.275147,31.4603497 178.192094,32.0450454 C176.175968,46.2386572 164.589579,60.3910679 151.215868,67.1936885 C145.078824,70.3153336 139.434807,71.3141417 135.537267,69.8141713 C131.274808,68.1737621 129.370237,63.7290702 130.290438,56.766824 L130.339664,56.4106432 C134.039746,30.7472301 123.3958,20.7278807 103.893149,24.0408561 L103.299454,24.1453278 C103.075846,24.1860259 102.847542,24.2255045 102.614543,24.2637637 L101.901456,24.3748831 C100.931889,24.5181648 99.8871812,24.6419368 98.7673117,24.7462029 L97.9133165,24.8207451 L97.0311336,24.887973 C96.881754,24.8985681 96.7311999,24.9088585 96.5794712,24.9188441 L95.6550032,24.975101 L94.7023427,25.0240444 C94.5412165,25.0315922 94.3789155,25.0388353 94.2154397,25.0457736 L93.2204867,25.0837474 C93.0523115,25.089467 92.8829614,25.0948819 92.7124363,25.099992 L91.6751865,25.126997 L90.6097362,25.1466898 L89.5160836,25.1590709 L88.3942267,25.1641406 C88.2049001,25.1643762 88.0143982,25.1643073 87.822721,25.1639337 L86.0658921,25.152347 L84.8594104,25.1354845 L83.6247165,25.111312 L82.3618085,25.0798298 L81.0706844,25.0410383 L79.7513421,24.9949378 L78.4037799,24.9415287 L77.0279956,24.8808113 L75.6239873,24.812786 L74.191753,24.7374531 L72.7312909,24.6548131 L71.2425988,24.5648661 L69.7256749,24.4676126 L68.1805172,24.3630529 L65.8098379,24.1925151 L63.3756214,24.0055404 L61.7175088,23.8717595 L59.1773823,23.6573926 L56.573701,23.4265918 L54.8026019,23.2635953 L52.092981,23.0054075 L50.2512495,22.8241541 L47.4356707,22.5385826 L45.5232943,22.3390745 L43.5826566,22.1322651 L40.6187057,21.8083619 L38.607406,21.5833008 L35.537453,21.2320217 L34.5,21.1112788 L34.5939893,20.2962528 L37.6779798,20.6521802 L40.6985029,20.9917235 L43.655552,21.3148839 L45.5916514,21.5212231 L48.4428957,21.8170812 L50.3084524,22.0052199 L53.0538735,22.273779 L55.7357917,22.5259603 L58.3542005,22.7617649 L60.9090933,22.981194 L62.5770652,23.1183832 L65.0260831,23.3105225 L66.6234655,23.4295195 L68.9665901,23.5943723 L70.4933709,23.6951794 L71.9919076,23.7887111 L73.4621982,23.8749678 L74.9042408,23.9539499 L77.0143352,24.0587838 L78.3857491,24.1195807 L79.728908,24.1731041 L81.04381,24.2193545 L82.3304531,24.2583322 L83.5888355,24.2900374 L84.818955,24.3144706 C85.0216196,24.3179368 85.2231064,24.3211 85.4234156,24.3239603 L86.6111372,24.3374861 L87.7705912,24.3437407 L88.9017754,24.3427245 L90.004688,24.3344378 L91.079327,24.318881 L92.1256905,24.2960544 C92.297728,24.2916442 92.4685872,24.2869311 92.6382682,24.281915 L93.6422146,24.2481845 L94.6178805,24.207185 L95.5652639,24.1589169 L96.4843629,24.1033807 L97.3751754,24.0405766 L98.2376997,23.970505 L99.0719336,23.8931663 L99.8778752,23.8085607 C100.141807,23.7791478 100.401023,23.7485238 100.655523,23.7166887 L101.404874,23.6175506 C101.895009,23.5490366 102.366278,23.4756787 102.818679,23.3974775 L103.154443,23.3379185 C123.365794,19.6593217 134.736767,29.8312186 131.256293,55.7386048 L131.146272,56.5284955 C130.162536,63.3515948 131.899234,67.535658 135.828319,69.0477681 C139.469844,70.4492109 144.896235,69.4889155 150.848291,66.4613654 C163.868356,59.8386291 175.181635,46.1126221 177.323162,32.3460745 L177.426394,31.6378223 L177.628238,30.1669158 L177.904296,28.0223397 L178.099779,26.4027083 L178.38076,23.9343605 L178.681563,21.140723 L180.095145,7.37721219 L180.350887,5.07310473 L180.43682,4.31727616 L180.698545,2.09654287 L180.876615,0.654163612 L181.057853,-0.758522001 L181.242514,-2.14219457 L181.430852,-3.49753469 C181.462562,-3.72110149 181.494436,-3.94351612 181.52648,-4.16479278 L181.720812,-5.47891036 L181.91946,-6.766397 C181.952942,-6.97879668 181.986614,-7.19011509 182.020481,-7.40036641 L182.22608,-8.64918276 C182.260752,-8.85522246 182.29563,-9.06022344 182.33072,-9.26419986 L182.543843,-10.4758773 L182.7623,-11.6636462 C182.836037,-12.05566 182.910705,-12.4438025 182.986348,-12.8281871 L183.216241,-13.9701807 C183.293874,-14.347163 183.372524,-14.7205008 183.452233,-15.0903076 L183.694581,-16.1892483 C184.881696,-21.4506919 186.300434,-25.9935873 188.080359,-30.1637506 C192.780749,-41.1762375 199.770938,-48.3242161 209.836081,-51.3701534 L210.275636,-51.5 Z" id="路径" fill="url(#radialGradient-5)" fill-rule="nonzero" opacity="0.5" mask="url(#mask-3)"></path>
                    <path d="M104.701417,65.9640378 L103.88163,65.0550593 L103.377808,64.4831217 L99.3494019,59.80832 L96.9732976,57.0850172 L95.7792773,55.7329185 L94.8926269,54.741952 L94.148168,53.9263478 L93.8993701,53.6601116 L93.6824949,53.4328373 C90.4940414,50.137362 87.7473644,48.0378707 84.9164304,46.90546 C71.7905908,41.6549521 55.9360236,42.4094322 37.343227,49.1873398 L36.0712931,49.6588039 C35.8585969,49.7389369 35.645547,49.8198479 35.4321436,49.9015367 L34.7908722,50.1489369 L34.5,49.3820527 L35.7918888,48.887555 C55.1071639,41.6112931 71.5847817,40.6893479 85.2145776,46.141445 C88.0649259,47.2816217 90.7987124,49.3341685 93.9143435,52.5014661 L94.3539264,52.9534803 L94.7830663,53.4110449 L95.5882078,54.2952267 L96.5446034,55.3663235 L98.5322962,57.6269678 L99.843595,59.1331267 L104.073767,64.0431327 L104.898594,64.9666432 C114.0718,75.1363107 122.034632,80.5304427 132.943591,82.2014838 C147.490069,84.429722 165.670729,78.9385885 189.057916,63.9441201 C189.46487,63.6342687 189.880228,63.3389755 190.346043,63.0253958 L190.858039,62.6867019 L192.254951,61.7876222 C195.477369,59.7004791 196.893614,58.0368685 198.012616,54.20382 L198.077894,53.9755854 L198.204307,53.5053783 C198.224916,53.4254706 198.245294,53.3447885 198.265442,53.2633252 L198.383561,52.7651184 C198.402786,52.6805038 198.42178,52.5950945 198.440544,52.508884 L198.550354,51.9819516 C198.568193,51.892509 198.585801,51.8022517 198.603178,51.7111729 L198.704662,51.154789 C198.721114,51.0603975 198.737333,50.9651711 198.753321,50.8691031 L198.846464,50.2825419 L198.934039,49.6754592 L199.016037,49.0475324 L199.092453,48.398439 C199.104723,48.2884749 199.116761,48.1776155 199.128565,48.0658539 L199.196593,47.3844055 C199.207465,47.2690087 199.218103,47.1526963 199.228508,47.0354616 L199.288134,46.3209324 L199.342149,45.5839462 L199.390547,44.8241803 C199.398145,44.6956364 199.405508,44.5661299 199.412637,44.4356541 L199.452596,43.6411138 L199.48692,42.8229872 L199.515603,41.9809518 L199.538637,41.114685 L199.556016,40.2238641 L199.567733,39.3081667 L199.573781,38.36727 L199.574153,37.4008515 L199.568842,36.4085885 L199.557841,35.3901585 L199.541143,34.3452388 L199.505401,32.7274855 L199.474431,31.6149303 L199.437741,30.4747564 L199.371965,28.7120046 L199.329396,28.1039135 C199.323049,27.9997504 199.317073,27.8941946 199.311468,27.7872678 L199.28227,27.1294294 C199.27814,27.0171058 199.274376,26.9034547 199.270978,26.7884981 L199.254956,26.0832643 C199.251066,25.8430799 199.248621,25.5978471 199.247609,25.3477402 L199.248851,24.5829711 C199.249769,24.4531305 199.251042,24.322115 199.252667,24.1899463 L199.266631,23.3832695 L199.28897,22.5499609 L199.319595,21.6910657 L199.358421,20.8076293 C199.365571,20.6584029 199.373058,20.5081974 199.380882,20.3570348 L199.431847,19.4387464 L199.490797,18.4985299 L199.557646,17.5374306 L199.632306,16.5564938 L199.714692,15.5567648 L199.804717,14.5392889 L199.902296,13.5051114 L200.00734,12.4552774 L200.119765,11.3908324 L200.239484,10.3128215 L200.36641,9.22229017 L200.500457,8.12028356 L200.641538,7.00784698 L200.866162,5.3219225 L201.024452,4.18798414 L201.189475,3.0472743 L201.361144,1.90083827 L201.539372,0.749721328 L201.724073,-0.405031241 L201.915161,-1.56237416 L202.11255,-2.72126213 L202.316153,-3.8806499 C202.3506,-4.07386477 202.385302,-4.26705691 202.420257,-4.46020454 L202.741655,-6.19674363 L202.963382,-7.35135905 L203.190977,-8.50229312 L203.424354,-9.64850056 C203.463727,-9.83908317 203.503338,-10.0294253 203.543184,-10.2195051 L203.785073,-11.3566627 L204.036789,-12.5060185 L204.297296,-13.6628778 C204.341063,-13.8545608 204.385003,-14.0456777 204.429118,-14.2362245 L204.695882,-15.372631 C204.740688,-15.560881 204.785667,-15.7485528 204.830818,-15.9356423 L205.103786,-17.0511595 L205.380859,-18.152508 L205.662014,-19.2394939 L205.947228,-20.3119232 L206.236476,-21.3696017 L206.529735,-22.4123357 L206.82698,-23.439931 L207.128188,-24.4521938 C207.178718,-24.6196157 207.229413,-24.7863907 207.280271,-24.9525148 L207.587378,-25.9414148 L207.898389,-26.9144973 C207.950548,-27.0753488 208.002869,-27.2355332 208.055351,-27.3950463 L208.372172,-28.3440387 L208.692837,-29.2767285 C208.7466,-29.4308075 208.800522,-29.5841991 208.854603,-29.7368993 L209.180989,-30.6447716 L209.511158,-31.5358562 L209.845088,-32.4099594 L210.182754,-33.266887 L210.524133,-34.1064452 C210.638542,-34.3833814 210.753566,-34.6573904 210.869201,-34.9284398 L211.217933,-35.7326769 L211.570307,-36.5189626 C211.806431,-37.0371261 212.044966,-37.5431926 212.285881,-38.0369035 L212.649035,-38.7681708 C212.709857,-38.8884934 212.770826,-39.0080357 212.831943,-39.1267937 L213.200406,-39.8298971 C215.545146,-44.2228649 218.101067,-47.4715573 220.840917,-49.3542115 L221.057603,-49.5 L221.5,-48.811364 C218.355825,-46.7408676 215.430025,-42.7427582 212.784093,-37.1933661 L212.432966,-36.4442874 L212.085188,-35.6770213 C212.027506,-35.5476391 211.969965,-35.4175073 211.912565,-35.28663 L211.569872,-34.4924547 C211.513041,-34.3586123 211.456354,-34.2240327 211.39981,-34.0887202 L211.062274,-33.2680815 C211.006307,-33.1298534 210.950485,-32.9909004 210.894809,-32.8512269 L210.562504,-32.0045709 L210.233727,-31.1408179 L209.908509,-30.260166 L209.586883,-29.3628136 C209.53358,-29.2118741 209.480428,-29.0602471 209.427428,-28.9079366 L209.111252,-27.9859049 C209.058861,-27.830877 209.006623,-27.6751739 208.954539,-27.5187997 L208.643885,-26.5725349 L208.336952,-25.6103623 L208.033774,-24.6324803 L207.734382,-23.639087 C207.684801,-23.4722399 207.635379,-23.3047548 207.586117,-23.1366357 L207.292466,-22.1203473 L207.002682,-21.0890433 C206.954709,-20.915919 206.906898,-20.7421773 206.859251,-20.5678224 L206.57533,-19.5143666 L206.295357,-18.4463908 L206.019365,-17.3640931 L205.747387,-16.2676719 C205.702393,-16.083769 205.657568,-15.899286 205.612912,-15.7142268 L205.347015,-14.5969919 L205.085211,-13.4661289 C205.04192,-13.2765271 204.998801,-13.0863657 204.955855,-12.8956489 L204.700254,-11.7447156 L204.456744,-10.6165281 L204.218815,-9.48153564 L203.986551,-8.34078331 C203.948317,-8.15023599 203.910323,-7.95949221 203.87257,-7.76857377 L203.648965,-6.6211411 L203.43124,-5.47056123 L203.21948,-4.31787922 L203.013772,-3.16414014 L202.814201,-2.01038907 L202.52654,-0.282026076 L202.253169,1.44048537 L202.079005,2.58383369 L201.911407,3.72196863 L201.750461,4.85384513 L201.596253,5.97841812 L201.448868,7.09464252 L201.308392,8.20147326 L201.174911,9.29786526 L201.048511,10.3827735 L200.929278,11.4551528 L200.817297,12.5139581 L200.712654,13.5581445 L200.615436,14.5866667 L200.525727,15.5984798 L200.443613,16.5925386 L200.334872,18.0480516 L200.272122,18.9931526 L200.217269,19.9168416 L200.14998,21.2599416 L200.115241,22.1255284 L200.088698,22.9660455 L200.070436,23.7804478 L200.060542,24.5676901 L200.059102,25.3267275 C200.059571,25.4508253 200.060396,25.5737043 200.061578,25.6953428 L200.072978,26.4101132 C200.078218,26.6432918 200.084903,26.8713341 200.093046,27.094066 L200.121868,27.7461561 L200.159529,28.3653383 C200.166547,28.465735 200.173937,28.5647169 200.181701,28.6622624 L200.227365,29.8537405 L200.285014,31.5881169 L200.329657,33.2600839 L200.3522,34.3406121 L200.375193,35.9110629 L200.383313,36.924955 L200.38567,37.9127757 L200.382269,38.8748583 L200.373111,39.8115361 L200.358201,40.7231422 L200.337542,41.61001 L200.311138,42.4724725 L200.278993,43.3108631 L200.241109,44.1255149 L200.197491,44.9167612 L200.148141,45.6849353 L200.093065,46.4303703 C200.083408,46.5527331 200.073513,46.6741623 200.063379,46.7946648 L199.999718,47.5066161 L199.930337,48.1966613 L199.855242,48.8651339 L199.774435,49.5123669 L199.687919,50.1386936 C199.673024,50.2413577 199.657892,50.3431646 199.642522,50.4441212 L199.547451,51.0397132 C199.49849,51.3324632 199.447392,51.6176857 199.394159,51.8955682 L199.284846,52.441602 C199.266153,52.530995 199.247223,52.6195864 199.228056,52.707383 L199.110208,53.2246815 C199.049863,53.4786179 198.987386,53.7255267 198.922778,53.9655953 L198.790725,54.4366679 C197.703284,58.161601 196.307893,59.9939442 193.457852,61.9676881 L192.95481,62.3078089 L191.147616,63.4751046 C190.544949,63.8715852 190.037829,64.2258802 189.518817,64.6193984 C186.455418,66.5836723 183.479901,68.3863287 180.588746,70.031222 L179.260343,70.7792155 C160.525808,81.2174909 145.374652,84.9365151 132.822212,83.0137248 C121.854002,81.3336078 113.822013,75.9751249 104.701417,65.9640378 Z" id="路径" fill="url(#radialGradient-6)" fill-rule="nonzero" opacity="0.5" mask="url(#mask-3)"></path>
                    <path d="M312.156241,42.4827238 L313.210835,42.6785057 C315.517965,43.1226295 317.971051,43.6966747 320.605311,44.4080272 L321.834116,44.7461202 L323.089419,45.1038739 C323.300887,45.1651468 323.513491,45.2272457 323.727248,45.2901738 L325.023741,45.6777209 L326.348656,46.0853321 L327.702763,46.5131686 L329.08683,46.9613919 L330.501628,47.4301632 C330.740031,47.5100131 330.979746,47.5907259 331.220791,47.6723049 L332.683126,48.172201 L334.178116,48.6930486 L335.706528,49.2350091 C335.964092,49.3271042 336.22308,49.4200857 336.483509,49.5139571 L338.063499,50.0878894 L339.678836,50.6833381 L340.5,50.9891814 L340.213611,51.7671358 L338.590024,51.164437 L337.002219,50.5832316 L335.449428,50.023356 L333.93088,49.4846465 L332.445808,48.9669397 L330.993441,48.4700719 L329.573011,47.9938795 L328.183747,47.538199 L326.82488,47.1028667 C325.480956,46.677654 324.181475,46.2827184 322.922973,45.9173235 L321.678004,45.5617483 L320.459585,45.2257035 C320.258686,45.1713144 320.05886,45.1177324 319.860092,45.0649538 L318.680058,44.7578977 C318.29086,44.6587416 317.905768,44.5627724 317.524651,44.4699629 L316.393102,44.2009858 C304.44776,41.4324236 296.442942,41.871397 288.177141,44.6244912 L287.664927,44.7981713 L286.872736,45.0822499 L284.634779,45.9190902 L276.701715,48.9491468 L276.094699,49.1738581 C267.780098,52.1810431 259.682832,54.1059107 248.98125,55.1878105 L248.152867,55.2693749 C218.076907,58.1524396 210.041545,72.7158428 223.86612,99.2988997 L224.291738,100.108126 L223.565826,100.5 C208.87761,72.8804799 217.109352,57.4117008 248.074864,54.4433642 C258.842671,53.4111682 266.937766,51.5505632 275.181943,48.6204197 L275.918193,48.3558825 L277.729243,47.6728167 L284.355081,45.1385916 L286.212888,44.4417364 L287.112748,44.11384 L287.525167,43.9693863 C295.012813,41.4130013 302.233619,40.7099242 312.156241,42.4827238 Z" id="路径" fill="url(#radialGradient-7)" fill-rule="nonzero" opacity="0.5" mask="url(#mask-3)"></path>
                    <path d="M255.486939,-39.5 L256.147523,-39.0033354 C252.777436,-34.4091922 252.420521,-26.4552845 255.133304,-15.1333101 C255.360857,-14.059788 255.521246,-12.694768 255.617108,-11.1162047 L255.659675,-10.3094886 C255.665877,-10.1721904 255.671634,-10.0334994 255.676948,-9.89346082 L255.70352,-9.03741908 C255.731885,-7.87543087 255.732061,-6.63297056 255.704829,-5.33313582 L255.679278,-4.34786297 L255.643522,-3.34324012 C255.636716,-3.17431077 255.629489,-3.00466541 255.62184,-2.83434913 L255.570915,-1.80476141 L255.509968,-0.761237206 L255.439073,0.294058075 C255.426432,0.470801244 255.41338,0.64794465 255.399918,0.82544318 L255.314238,1.89433494 L255.218793,2.96958426 L255.113656,4.04902573 C255.077004,4.40929765 255.038748,4.76990736 254.998901,5.13049395 L254.874601,6.21182352 C254.831585,6.57200299 254.78699,6.93179846 254.740829,7.29084901 L254.597659,8.36540503 C254.523736,8.90120477 254.446317,9.43451643 254.365442,9.96412197 L254.199096,11.0180307 L254.023608,12.0598909 L253.839051,13.0875374 C253.397896,15.4671122 252.883278,17.7129235 252.299387,19.7011821 L252.173209,20.1232502 C250.425911,25.8640532 251.433914,32.1442126 254.62712,35.4518158 C258.189092,39.1413959 263.798545,38.6656688 270.480425,33.142279 C272.968285,30.6111288 274.179448,28.2758842 274.894261,24.2538071 L274.995415,23.6529503 L275.090026,23.026699 L275.178638,22.3737419 C275.192937,22.2626174 275.207008,22.1503255 275.220864,22.0368389 L275.301495,21.3413647 C275.314532,21.2229901 275.327375,21.1033662 275.340036,20.9824656 L275.41391,20.2415239 L275.483958,19.4686316 L275.550724,18.6624773 L275.859642,14.4477323 L275.999735,12.6781435 L276.082158,11.7209865 L276.165225,10.8270701 L276.279626,9.71205206 L276.370143,8.91731323 L276.466399,8.14434299 L276.569926,7.3806997 L276.721911,6.35551318 L276.893162,5.29529817 L277.087302,4.17056336 C279.972284,-12.1078834 287.741463,-18.4897422 301.129548,-12.6853855 C314.991383,-6.67563584 328.269111,9.41386731 331.196539,23.0448676 C332.462837,28.9411388 337.835456,35.7190586 345.711802,42.0304262 C352.512411,47.4797984 360.488766,51.957296 366.1351,53.5930015 L366.5,53.6956298 L366.286044,54.5 C360.502736,52.9233218 352.231003,48.3166865 345.201138,42.6836095 C337.329747,36.3762131 331.901515,29.5916937 330.465593,23.5450659 L330.392496,23.2218523 C327.522008,9.85597756 314.42441,-6.01524992 300.805633,-11.9196228 C287.984848,-17.4780283 280.699364,-11.4934927 277.897197,4.31767827 L277.730852,5.27747424 C277.704609,5.4327712 277.679076,5.5859904 277.654205,5.73751695 L277.512548,6.62944549 C277.467725,6.92203841 277.425174,7.21094171 277.384515,7.49923639 L277.315219,8.00374231 L277.188624,9.0052349 L277.101839,9.76490015 L276.992009,10.8283341 L276.885944,11.9736632 L276.780418,13.2272082 L276.587335,15.7604739 L276.435334,17.8831635 L276.337627,19.1389528 C276.326411,19.2742807 276.315064,19.4082335 276.303574,19.5408376 L276.232831,20.3204889 L276.158118,21.0690365 L276.078889,21.7877456 C276.051666,22.0224828 276.023599,22.2524578 275.994597,22.4778815 L275.904696,23.1407093 L275.808639,23.7774941 C275.080318,28.3548518 273.811393,30.9334724 271.032338,33.7586319 C264.020401,39.5578392 257.938518,40.0736321 254.038675,36.0340764 C250.678079,32.5530863 249.596115,26.129524 251.289908,20.2064681 L251.386866,19.8779462 C251.721928,18.7770913 252.03481,17.5893975 252.324748,16.3379638 L252.537888,15.3877982 C252.781503,14.2661706 253.007405,13.1001633 253.215079,11.9052508 L253.38861,10.8743221 C253.416784,10.7014412 253.444583,10.5280605 253.472005,10.3542254 L253.63201,9.30612046 L253.782908,8.24927165 L253.924626,7.18584444 C253.970328,6.83051292 254.014488,6.47444591 254.057094,6.11800434 L254.180239,5.04791686 L254.29399,3.97774751 L254.398274,2.90966181 L254.49302,1.84582527 L254.578156,0.788403398 C254.591541,0.612821282 254.604522,0.437596673 254.617098,0.262774687 L254.687685,-0.780964841 C254.698635,-0.953995878 254.709178,-1.12653406 254.719311,-1.29853428 L254.775186,-2.32371906 L254.821164,-3.33382713 L254.857173,-4.32669295 C254.862339,-4.49061343 254.867088,-4.65372526 254.871416,-4.81598331 L254.892336,-5.77892545 C254.902908,-6.41357549 254.906714,-7.03312152 254.903658,-7.63467619 L254.893917,-8.52315375 L254.873811,-9.38247876 C254.869592,-9.52314991 254.864939,-9.66251614 254.859849,-9.80053234 L254.824062,-10.6120682 L254.777731,-11.3890377 C254.683082,-12.7804727 254.534912,-13.9867179 254.33123,-14.9477255 C251.611334,-26.2987579 251.925485,-34.4067924 255.325312,-39.2742131 L255.486939,-39.5 Z" id="路径" fill="url(#radialGradient-8)" fill-rule="nonzero" opacity="0.5" mask="url(#mask-3)"></path>
                    <path d="M319.297446,59.8644294 C326.948686,58.9816563 335.220848,59.6721315 344.81262,62.2702866 L345.5,62.459118 L345.287045,63.2475561 C335.49876,60.5212478 327.117337,59.7850152 319.388333,60.6767604 C315.13248,61.1677858 311.479702,62.0271734 307.099002,63.5108436 L306.032977,63.8790417 C304.951612,64.2594881 303.822186,64.6770725 302.626299,65.1353326 L296.839209,67.396956 C285.358987,71.7996553 277.024057,73.9077877 266.105544,75.2459773 C245.066889,78.6452728 239.352215,86.6762808 248.588721,99.6188326 L248.873191,100.012535 L248.226864,100.5 C238.16268,86.739456 244.208142,77.9561824 265.994047,74.4364445 C276.603561,73.1358427 284.738888,71.1111202 295.744298,66.9410958 L297.376686,66.313266 L301.120085,64.8429747 L302.365833,64.361313 L303.585943,63.8995813 C309.376748,61.7364507 313.677603,60.5575721 318.782566,59.9259684 L319.297446,59.8644294 Z" id="路径" fill="url(#radialGradient-9)" fill-rule="nonzero" opacity="0.5" mask="url(#mask-3)"></path>
                    <path d="M312.277986,-52.5 C315.609408,-36.1336659 322.94824,-21.990991 334.321393,-10.0379553 C340.152232,-2.79108922 344.664668,5.78934079 347.877805,17.0036399 L348.081134,17.7230358 C350.410474,26.0781847 357.377855,31.0446816 369.064985,32.6203993 L369.5,32.6772088 L369.404241,33.5 C357.311921,31.9715211 349.952351,26.8947811 347.40731,18.2676509 L347.317417,17.9542808 C344.123733,6.49880009 339.597123,-2.1910635 333.734348,-9.47986788 C322.449727,-21.3378245 315.088717,-35.3734116 311.65566,-51.5785373 L311.5,-52.3280067 L312.277986,-52.5 Z" id="路径" fill="url(#radialGradient-10)" fill-rule="nonzero" opacity="0.5" mask="url(#mask-3)"></path>
                    <path d="M306.5,-60.3013243 L307.297592,-60.5 L307.670633,-59.0111052 C307.732995,-58.7650427 307.795451,-58.5200235 307.858001,-58.2760477 L308.234428,-56.8247134 L308.61311,-55.3984215 L308.994044,-53.9971736 L309.377228,-52.6209714 C309.505331,-52.1664117 309.633809,-51.7160267 309.762661,-51.2698164 L310.150339,-49.9437103 L310.540261,-48.6426548 C310.670609,-48.2131449 310.801331,-47.7878104 310.932425,-47.3666514 L311.326829,-46.1157019 C311.392749,-45.9092982 311.458763,-45.7039385 311.52487,-45.4996228 L311.922629,-44.286257 C311.989108,-44.0861175 312.055681,-43.887022 312.122346,-43.6889707 L312.523456,-42.5131923 C312.657531,-42.1254428 312.791978,-41.74187 312.926796,-41.3624742 L313.332366,-40.2368181 C313.400146,-40.0512974 313.46802,-39.8668209 313.535986,-39.6833888 L313.944894,-38.5953287 C316.405019,-32.1421645 318.985214,-27.042566 321.683399,-23.2981187 L322.613817,-22.0166843 L323.201785,-21.2179326 L323.766675,-20.4595964 L324.310861,-19.7382342 L324.836716,-19.0504047 L325.596325,-18.0740065 L326.086742,-17.4549529 L326.919342,-16.4263734 L328.760708,-14.1984153 L329.169885,-13.6941984 L329.443702,-13.34663 C329.711637,-12.9930309 329.94997,-12.6539961 330.181777,-12.2943804 L330.385585,-11.9701158 C330.419644,-11.9145601 330.453779,-11.8581886 330.488038,-11.8009114 L330.695444,-11.4456595 L330.908056,-11.0643522 L331.128117,-10.6526716 C331.165539,-10.5812871 331.203366,-10.5084573 331.241643,-10.434092 L331.477088,-9.96875553 L331.725596,-9.46225129 L332.12776,-8.61586002 L332.554956,-7.6902479 L333.273176,-6.10389579 L334.216818,-3.98056102 L335.249682,-1.61751863 L336.371779,0.985254219 L337.375033,3.33737551 L338.660753,6.37971351 L340.273582,10.2321839 L341.5,13.1837978 L340.741068,13.5 L338.580247,8.31201852 L337.03851,4.64997945 L335.618331,1.31440553 L334.497798,-1.28479073 L333.466598,-3.64408557 L332.828766,-5.08365895 L332.08732,-6.73316271 L331.672239,-7.64287964 L331.270189,-8.50768985 L331.022714,-9.02692936 L330.789496,-9.50457707 L330.568661,-9.9442747 L330.358333,-10.349664 L330.156636,-10.7243867 C330.123634,-10.7844872 330.090915,-10.8434617 330.058437,-10.9013861 L329.86617,-11.2369371 L329.677844,-11.5509258 L329.491585,-11.846994 C329.271422,-12.1885459 329.045039,-12.5105809 328.789346,-12.8480249 L328.508629,-13.203829 L326.168227,-16.0437589 L325.688652,-16.6359403 L325.200276,-17.2479014 C325.118014,-17.3517344 325.035287,-17.456535 324.952045,-17.5623748 L324.187624,-18.5449276 L323.6586,-19.2368751 L322.830013,-20.3387678 L321.952243,-21.5277497 L321.335782,-22.3745226 L321.017277,-22.815435 C318.584745,-26.1912176 316.254022,-30.6342353 314.023646,-36.1456016 L313.606626,-37.1915027 C313.468011,-37.5443099 313.329788,-37.9012905 313.191956,-38.262445 L312.779633,-39.3584299 C312.642583,-39.7279321 312.505924,-40.1016084 312.369656,-40.4794591 L311.962022,-41.6255342 C311.826534,-42.0117338 311.691437,-42.402108 311.556729,-42.796657 L311.153776,-43.9928289 L310.753159,-45.2140517 L310.354877,-46.460327 C310.288691,-46.6701273 310.222603,-46.8809716 310.156611,-47.0928598 L309.761828,-48.3767168 C309.696224,-48.592781 309.630718,-48.8098892 309.565309,-49.0280414 L309.174019,-50.3494839 C309.108998,-50.5718125 309.044074,-50.7951852 308.979246,-51.0196021 L308.591444,-52.3786337 C308.527004,-52.6072274 308.462661,-52.8368653 308.398415,-53.0675474 L308.014096,-54.4641718 L307.632098,-55.88586 C307.568625,-56.1248968 307.505248,-56.3649779 307.441968,-56.6061036 L307.063445,-58.0653907 C307.000551,-58.3106941 306.937753,-58.5570421 306.875052,-58.8044346 L306.5,-60.3013243 Z" id="路径" fill="url(#radialGradient-11)" fill-rule="nonzero" opacity="0.5" mask="url(#mask-3)"></path>
                    <path d="M324.5,-51.3850026 L325.328845,-51.5 L325.528533,-50.1950698 L325.734982,-48.9089874 L325.948191,-47.6417529 C325.984289,-47.4321178 326.020668,-47.2232681 326.057329,-47.0152037 L326.280671,-45.776241 C326.318457,-45.5713179 326.356525,-45.3671801 326.394875,-45.1638277 L326.628345,-43.953137 L326.868566,-42.7612942 L327.115533,-41.5882994 C327.157257,-41.3943709 327.199261,-41.2012278 327.241546,-41.00887 L327.49863,-39.8641472 C327.542039,-39.6749307 327.585729,-39.4864996 327.6297,-39.2988538 L327.896895,-38.182403 L328.170828,-37.0848003 L328.451496,-36.0060457 C328.498835,-35.827824 328.546455,-35.6503875 328.594355,-35.4737364 L328.885122,-34.423254 L329.182618,-33.3916196 C329.232762,-33.2212512 329.283185,-33.0516682 329.333889,-32.8828705 L329.641476,-31.8795084 C329.6933,-31.713852 329.745405,-31.548981 329.79779,-31.3848954 L330.115461,-30.4098055 C330.222472,-30.0879169 330.330602,-29.7691697 330.439853,-29.4535638 L330.770962,-28.5161704 C330.826706,-28.3615089 330.882731,-28.2076326 330.939035,-28.0545418 L331.280216,-27.1454207 C331.395062,-26.8455217 331.511027,-26.5487641 331.62811,-26.2551479 L331.982713,-25.3837234 C334.786712,-18.6313873 338.208064,-13.6138812 342.241702,-10.3312476 L342.5,-10.1240739 L341.968999,-9.5 C339.079833,-11.7836174 336.50129,-14.9062469 334.231669,-18.8679028 L333.822414,-19.5974493 C332.537218,-21.9369574 331.354395,-24.5546003 330.27362,-27.4503808 L329.935714,-28.3740834 C329.656953,-29.1515402 329.385255,-29.9482586 329.120617,-30.7642387 L328.806439,-31.7526604 L328.499035,-32.7595733 L328.198402,-33.7849775 L327.90454,-34.8288729 L327.617445,-35.8912597 C327.570159,-36.0698651 327.523156,-36.2492409 327.476434,-36.4293873 L327.199485,-37.519511 C327.153891,-37.7027392 327.108578,-37.8867379 327.063547,-38.0715071 L326.79674,-39.1893677 C326.752835,-39.3772188 326.709212,-39.5658403 326.665871,-39.7552324 L326.409201,-40.9008301 C326.240339,-41.6707257 326.07598,-42.4529489 325.916122,-43.2474998 L325.679709,-44.4485717 C325.60203,-44.852011 325.525475,-45.2585321 325.450045,-45.6681351 L325.227126,-46.90619 L325.010951,-48.1627364 C324.940016,-48.5846671 324.870205,-49.0096797 324.801516,-49.4377742 L324.598821,-50.7313036 L324.5,-51.3850026 Z" id="路径" fill="url(#radialGradient-12)" fill-rule="nonzero" opacity="0.5" mask="url(#mask-3)"></path>
                    <path d="M298.528918,56.8645876 C300.871422,55.8370118 300.870382,50.3781991 298.526595,44.671988 C296.182807,38.965777 292.383818,35.1729937 290.041314,36.2005695 C287.69881,37.2281453 287.69985,42.686958 290.043637,48.3931691 C292.387424,54.0993801 296.186414,57.8921634 298.528918,56.8645876 Z" id="椭圆形" fill="#0D3996" filter="url(#filter-13)" mask="url(#mask-3)"></path>
                    <path d="M347.472527,3.46315676 C345.799901,1.90619744 340.65069,4.70455099 335.971442,9.71345434 C331.292195,14.7223577 328.854847,20.045041 330.527473,21.6020004 C332.200099,23.1589597 337.34931,20.3606061 342.028558,15.3517028 C346.707805,10.3427994 349.145153,5.02011607 347.472527,3.46315676 Z" id="椭圆形" fill="#0D3996" filter="url(#filter-14)" mask="url(#mask-3)"></path>
                </g>
                <g id="币1" transform="translate(291.285116, 0.032579)">
                    <g id="编组-17" transform="translate(0.714884, 33.000000)" fill-rule="nonzero">
                        <path d="M4.0125012,9.18444546 L4.0125012,9.18444546 C3.9918826,9.20238004 3.96831848,9.21433643 3.94475437,9.232271 C2.23046493,10.4308985 1.28495478,12.4694621 1.04342259,14.9504118 C0.898234648,16.9665731 1.11785655,18.9926769 1.69143578,20.928604 C1.69143578,20.928604 1.69143578,20.928604 1.69143578,20.928604 C2.18730234,22.6651663 2.87192315,24.340387 3.73267732,25.9233835 L3.73267732,25.9233835 C4.18270056,26.7611299 4.67424938,27.575207 5.20543457,28.3624859 C5.66493483,29.0380216 6.1479992,29.6836664 6.64579115,30.293442 L6.64579115,30.293442 C7.77110155,31.6838753 9.04331792,32.9448445 10.4396138,34.0537249 C10.4396138,34.0537249 10.4396138,34.0537249 10.4396138,34.0537249 C11.96334,35.2931181 13.6861511,36.2567569 15.5324084,36.9023334 L15.5324084,36.9023334 C18.100897,37.7512367 20.5221099,37.6316729 22.366002,36.3433725 L22.4308033,36.2925578 L22.4308033,36.2925578 L27.5118158,32.7325444 L25.3615902,29.5401898 C25.3481937,27.7372116 25.0671794,25.9465721 24.5280096,24.228566 C24.5280096,24.228566 24.5280096,24.228566 24.5280096,24.228566 C24.0002015,22.5101352 23.2890634,20.8553288 22.4072392,19.2935684 L22.4072392,19.2935684 C22.0145039,18.6040836 21.5923135,17.9205769 21.140668,17.2430485 C20.6051343,16.455493 20.0289742,15.6971986 19.4145965,14.9713355 C18.2599602,13.5852712 16.9557829,12.3349895 15.5265173,11.2439327 L15.5265173,11.2439327 C14.2337288,10.2483792 12.8087237,9.44331906 11.293813,8.8526558 L9.09351369,5.62742113 L4.0125012,9.18444546 Z" id="路径" fill="#009CFF"></path>
                        <ellipse id="椭圆形" fill="url(#linearGradient-15)" transform="translate(18.280344, 19.273568) rotate(-34.620000) translate(-18.280344, -19.273568) " cx="18.280344" cy="19.2735683" rx="9.71401022" ry="16.4103999"></ellipse>
                        <path d="M9.04933098,5.70513763 C8.36537718,6.23351044 7.79336173,6.89633404 7.3674422,7.65402827 C6.95531398,8.41100399 6.66308235,9.22905324 6.50146094,10.0781852 C6.20190316,11.7799897 6.21788608,13.5235756 6.54858917,15.2194305 C6.85763744,16.9203824 7.36488072,18.5780127 8.05963811,20.1574172 C8.74835649,21.7412821 9.58476289,23.254676 10.5574344,24.6769305 C11.5267894,26.102712 12.6285372,27.4309583 13.8475741,28.643461 C15.0551948,29.8659238 16.4007856,30.9394617 17.8564193,31.8417938 C19.3001087,32.7540765 20.8981117,33.3865188 22.5692425,33.7069897 C23.4094038,33.8548962 24.2673324,33.8670022 25.1112215,33.7428589 C25.9604054,33.6056311 26.7731764,33.2944254 27.5000337,32.8281955 C26.798948,33.3498388 25.9951792,33.7117885 25.1436221,33.8893246 C24.2851969,34.0613336 23.4052671,34.093621 22.5368418,33.9849756 C20.8023879,33.7294588 19.1335985,33.1334917 17.6237237,32.2303762 C14.5839527,30.4727878 12.0714288,27.8961869 10.0832066,25.0027419 C8.09498428,22.1092969 6.63695461,18.8063457 6.09497994,15.2971469 C5.79996918,13.5438411 5.84298303,11.7491041 6.22163707,10.0124251 C6.42975584,9.14999496 6.77178474,8.32666629 7.23489405,7.57332268 C7.69907024,6.82445427 8.31819109,6.18699352 9.04933098,5.70513763 Z" id="路径" fill="#5AD4FF"></path>
                        <path d="M11.8181146,23.8011253 C14.0861608,27.1489129 16.9639284,29.7135573 19.9182794,31.0586506 C23.4528968,32.6667843 25.4941384,31.8417938 26.3984113,31.2081054 C27.3026843,30.574417 28.7901691,28.924436 28.5574734,25.005731 C28.366015,21.7177253 27.0081328,18.0799954 24.7283046,14.7471533 C22.4484764,11.4143111 19.5972184,8.83472122 16.6399218,7.48663889 C13.1053044,5.8785052 11.0640629,6.70349572 10.1597899,7.33718409 C9.25551699,7.97087246 7.76508666,9.62085349 8.00072782,13.5425476 C8.19218626,16.821586 9.55006844,20.4652941 11.8181146,23.8011253 Z" id="路径" fill="url(#linearGradient-16)"></path>
                        <path d="M19.9182794,31.0586506 C20.8618371,31.4460977 21.8526253,31.7024868 22.8637939,31.8208701 C23.846142,31.9322591 24.8396397,31.7635362 25.732725,31.3336474 C26.5936248,30.8758861 27.2675298,30.1242576 27.6355274,29.2113892 C28.0105403,28.290287 28.2104236,27.3054951 28.2246303,26.3089769 C28.2346205,24.282895 27.8720087,22.2727067 27.1554085,20.3815994 C26.4590705,18.4748665 25.5245896,16.6666533 24.3748429,15.0012264 C23.2466929,13.3200975 21.9113674,11.792239 20.4013438,10.4548113 C18.9122806,9.10482875 17.1881427,8.04855217 15.3173858,7.34017318 C14.3964738,6.99812767 13.4198847,6.83684299 12.4396182,6.86490691 C11.4670309,6.88942177 10.5343038,7.2621038 9.8063282,7.91706873 C9.08842374,8.61631658 8.57817968,9.50588597 8.33357096,10.4847023 C8.08648462,11.4839495 7.9745101,12.5126646 8.00072782,13.5425476 C7.88042992,12.5046528 7.91818126,11.454155 8.11265737,10.4279094 C8.30688481,9.37151873 8.78963153,8.39173994 9.50588572,7.60022454 C10.2857958,6.82840337 11.3090322,6.36055193 12.3954354,6.27904407 C13.4566659,6.20150896 14.522561,6.33659026 15.5324084,6.67659385 C17.5207898,7.35255357 19.3591524,8.41786411 20.9433185,9.81215564 C24.119538,12.5650158 26.5328765,16.1113417 27.9448064,20.1006244 C28.6648502,22.0972512 28.9940266,24.2172811 28.9138807,26.341857 C28.8668372,27.4215369 28.6127047,28.4815367 28.16572,29.4624733 C27.7051918,30.4637543 26.9114703,31.2681611 25.9241835,31.7341863 C24.9411883,32.133181 23.8675293,32.2439997 22.8255022,32.0540196 C21.8117179,31.8760629 20.8310901,31.5403176 19.9182794,31.0586506 Z" id="路径" fill="#008CFF"></path>
                        <polygon id="路径" fill="#FF0500" points="25.5059204 20.9106694 24.8932534 21.4965322 24.804888 21.5772378 25.417555 20.9943641"></polygon>
                        <path d="M20.7989883,14.7202514 C20.6603136,14.511753 20.4757821,14.3388173 20.2599591,14.2150942 C20.093989,14.1234515 19.9135958,14.0617565 19.726821,14.0327593 L19.6090004,14.0327593 C19.4121652,14.0215061 19.2181519,14.0842961 19.0640802,14.209116 L19.0640802,14.209116 L18.4514132,14.8069352 L18.4514132,14.8069352 C18.6061335,14.683351 18.7996743,14.6207139 18.9963334,14.6305785 C19.0355525,14.6276112 19.0749349,14.6276112 19.114154,14.6305785 C19.3011197,14.6570301 19.481778,14.7178029 19.6472921,14.8099243 C19.8624882,14.934518 20.0468411,15.1072864 20.1863213,15.3150815 L24.804888,21.5921833 L25.417555,20.9943641 L20.7989883,14.7202514 Z" id="路径" fill="#008EFF"></path>
                        <path d="M18.7930929,15.4196999 L16.9757105,14.893619 L17.0316752,14.4362873 L17.081749,13.9968902 C17.1300246,13.578205 17.3181822,13.1889375 17.6148871,12.8939137 L17.0022201,13.4767874 C16.7060989,13.772239 16.5180482,14.1612854 16.469082,14.5797639 L16.4190082,15.0311174 L16.3630435,15.4914382 L18.1804259,16.01453 L18.7930929,15.4196999 Z" id="路径" fill="#008EFF"></path>
                        <path d="M19.9683532,22.3992392 C19.8473343,22.3835562 19.7273392,22.3605995 19.6090004,22.33049 C18.6856706,22.0794323 17.8761476,21.5124068 17.3173901,20.7253454 C16.4013351,19.4938378 16.469082,18.9498224 16.5986846,17.9544534 L16.6163577,17.7990204 L18.7636378,18.3729268 C18.7901474,18.3729268 18.9433141,18.4177633 19.0788078,18.4625997 C19.4267926,18.4995796 19.7412353,18.6897254 19.938898,18.9827024 C20.1649245,19.2715653 20.2921031,19.6272682 20.3011963,19.996006 C20.3148207,20.2802336 20.2075546,20.5567207 20.0066449,20.7552364 L20.6193119,20.1574172 C20.8195771,19.9584671 20.9267243,19.6822863 20.9138633,19.3981868 C20.9047702,19.029449 20.7775916,18.6737461 20.5515651,18.3848832 C20.349004,18.1001782 20.0358266,17.9173279 19.6914748,17.8827151 C19.5559812,17.8408677 19.3969234,17.8049986 19.3763048,17.7960313 L15.2820396,16.6870766 C15.1978005,16.6591198 15.1109358,16.6400874 15.0228344,16.6302838 C14.8499644,16.6133561 14.6755109,16.6326875 14.5103148,16.6870766 C14.3703687,16.7287603 14.2421645,16.8035428 14.1362345,16.9052806 L13.5235675,17.5030999 C13.6294975,17.401362 13.7577017,17.3265795 13.8976478,17.2848958 C14.0640755,17.2365351 14.2385059,17.2233101 14.4101673,17.2460376 C14.4980321,17.2572839 14.5847626,17.2762869 14.6693726,17.3028304 L16.4897006,17.7900531 L16.0125272,18.2085265 L15.9742355,18.5373271 C15.8446329,19.5356852 15.7768861,20.0767116 16.6929411,21.3082192 C17.2525821,22.0949818 18.061617,22.6627207 18.9845513,22.9163529 C19.1029434,22.9454907 19.22294,22.9674496 19.3439041,22.982113 C19.9864324,23.0829064 20.6410376,22.9038084 21.146559,22.4889121 L21.2260879,22.4171738 L21.8387549,21.8193546 L21.759226,21.894082 C21.2585209,22.3099354 20.6087086,22.4932301 19.9683532,22.3992392 L19.9683532,22.3992392 Z" id="路径" fill="#008EFF"></path>
                        <path d="M18.4867594,26.7872323 C17.9278583,26.7023862 17.4264682,26.3919267 17.0964766,25.9263726 L12.4484547,19.6492708 C11.9891367,19.0722541 11.7010465,18.3745471 11.6178196,17.6376092 C11.5328572,16.9949233 11.6884041,16.3432657 12.0537558,15.8112715 C12.1514235,15.6624979 12.2650274,15.5251587 12.3924899,15.4017653 L11.7798229,15.9995845 C11.6523604,16.1229779 11.5387565,16.2603171 11.4410887,16.4090907 C11.0771844,16.9394874 10.9217053,17.588729 11.0051526,18.2294502 C11.0883795,18.9663881 11.3764696,19.6640951 11.8357877,20.2411119 L16.4838095,26.5182136 C16.8128638,26.9847926 17.3147219,27.295542 17.8740924,27.3790733 C18.3271699,27.4431961 18.7846513,27.2972262 19.120045,26.9815235 L19.732712,26.3837043 C19.3977061,26.7004376 18.9406355,26.8484695 18.4867594,26.7872323 L18.4867594,26.7872323 Z" id="路径" fill="#008EFF"></path>
                        <path d="M21.6944247,17.6166855 C22.2052563,18.2838033 22.5041854,19.092742 22.5515694,19.9362241 C22.6054238,20.6799716 22.3172597,21.4071787 21.7710081,21.9060384 C21.2654867,22.3209347 20.6108814,22.5000327 19.9683532,22.3992392 C19.8473343,22.3835562 19.7273392,22.3605995 19.6090004,22.33049 C18.6856706,22.0794323 17.8761476,21.5124068 17.3173901,20.7253454 C16.4013351,19.4938378 16.469082,18.9498224 16.5986846,17.9544534 L16.6369763,17.6256528 L18.5162145,18.1098864 C18.4985415,18.2324393 18.4720318,18.5582508 18.4690863,18.6150436 C18.3762652,18.9970284 18.4657136,19.4010742 18.7106185,19.7060637 C18.9412558,20.0236824 19.2666141,20.2574234 19.6384556,20.3726321 C19.7034054,20.3896158 19.7693092,20.4025923 19.835805,20.4114903 C20.1171626,20.4615539 20.4054964,20.3764423 20.6164946,20.181043 C20.8274929,19.9856437 20.9373207,19.7020296 20.9138633,19.4131323 C20.9047702,19.0443944 20.7775916,18.6886916 20.5515651,18.3998287 C20.3519325,18.1094757 20.038318,17.9209207 19.6914748,17.8827151 C19.5559812,17.8408677 19.3969234,17.8049986 19.3763048,17.7960313 L15.2820396,16.6870766 C15.1978005,16.6591198 15.1109358,16.6400874 15.0228344,16.6302838 C14.8499644,16.6133561 14.6755109,16.6326875 14.5103148,16.6870766 C14.2795066,16.7572751 14.0810203,16.9088724 13.9506671,17.1145174 C13.8176651,17.3376698 13.764606,17.6005562 13.8004458,17.8588023 C13.8489306,18.1488146 13.9695796,18.4214621 14.1509621,18.6509128 L19.8564236,26.2701187 L19.732712,26.3896825 C19.3966747,26.704259 18.9397296,26.8500578 18.4867594,26.7872323 C17.9278583,26.7023862 17.4264682,26.3919267 17.0964766,25.9263726 L12.4484547,19.6492708 C11.9891367,19.0722541 11.7010465,18.3745471 11.6178196,17.6376092 C11.5328572,16.9949233 11.6884041,16.3432657 12.0537558,15.8112715 C12.3897195,15.311348 12.8932125,14.9523073 13.4705482,14.800957 C13.8628966,14.6931795 14.2726249,14.6667478 14.6752636,14.7232405 C14.8976943,14.7513795 15.1174121,14.7983729 15.3321134,14.863728 L19.3026669,16.1191484 C19.4764523,16.1639848 19.5294715,16.1849085 19.5824908,16.2028431 C20.430799,16.418058 20.9138633,16.5645237 21.6944247,17.6166855 Z M25.3880998,18.7943894 L21.9035562,14.0626503 C21.560721,13.5900816 21.1292951,13.1908727 20.6340395,12.8879355 C20.2154746,12.6325137 19.7489641,12.4686008 19.2643752,12.406691 L19.1023719,12.406691 C18.6234193,12.3720334 18.1469808,12.5026488 17.7503808,12.777339 C17.3696912,13.0753294 17.1250669,13.5178509 17.0729124,14.0028683 L17.0228387,14.4542219 L16.9757105,14.893619 L18.7930929,15.4167108 L18.7930929,15.1626376 L18.8313846,14.7172623 C18.8361583,14.5198884 18.920224,14.3330712 19.0640802,14.2001487 C19.2181519,14.0753288 19.4121652,14.0125388 19.6090004,14.023792 L19.726821,14.023792 C19.9135958,14.0527892 20.093989,14.1144842 20.2599591,14.2061269 C20.4757821,14.32985 20.6603136,14.5027858 20.7989883,14.7112841 L25.417555,20.9883859 L25.5059204,20.9046912 C25.9801483,20.4593159 25.9182925,19.529707 25.3880998,18.7943894 L25.3880998,18.7943894 Z" id="形状" fill="url(#linearGradient-17)"></path>
                    </g>
                    <g id="编组-2" transform="translate(24.086977, 0.967421)">
                        <mask id="mask-19" fill="white">
                            <use xlink:href="#path-18"></use>
                        </mask>
                        <g id="蒙版"></g>
                        <g mask="url(#mask-19)">
                            <g transform="translate(-4.000000, -5.000000)">
                                <path d="M32.1375166,11.2216025 L32.1375166,11.2216025 L32.1880107,11.2728771 C33.4200663,12.6812174 33.8341177,14.6433225 33.5345195,16.8344539 C33.5361185,16.8594951 33.5361185,16.8846152 33.5345195,16.9096565 C33.2394196,18.7067549 32.6209323,20.4333041 31.71,22.002926 L31.71,22.002926 C30.9124499,23.4154089 29.9617326,24.7328175 28.875599,25.9305546 L28.875599,25.9305546 C28.303189,26.5669481 27.698694,27.1727995 27.0645446,27.7456728 C26.5192085,28.2379082 25.9637737,28.6936817 25.3982399,29.1129934 L25.3982399,29.1129934 C24.1198742,30.0856766 22.7404577,30.9132806 21.2846555,31.5810072 C21.2846555,31.5810072 21.2846555,31.5810072 21.2846555,31.5810072 C19.6917259,32.3325004 17.9839816,32.8018742 16.2352474,32.9688377 L16.2352474,32.9688377 C13.8081653,33.153426 11.7177103,32.5210402 10.377934,30.989641 L10.3308062,30.9349482 L10.3308062,30.9349482 L6.62790698,26.716764 L9.226669,24.3683907 C9.61695337,22.7929175 10.2400522,21.2865833 11.0747524,19.9006705 C11.0747524,19.9006705 11.0747524,19.9006705 11.0747524,19.9006705 C11.897535,18.5114402 12.8683766,17.2183756 13.9697463,16.0448262 L13.9697463,16.0448262 C14.4522453,15.5252443 14.9661629,15.0193357 15.5114989,14.5271002 C16.1303506,13.9550452 16.7775144,13.4153928 17.4504716,12.9102436 L17.4504716,12.9102436 C18.7490485,11.9580353 20.1479238,11.1554949 21.6212827,10.5174324 L21.6212827,10.5174324 C22.9610762,9.9265458 24.3766892,9.53178193 25.8257565,9.34495494 L28.4245185,7 L32.1375166,11.2216025 Z" id="路径" fill="url(#linearGradient-20)" fill-rule="nonzero"></path>
                                <ellipse id="椭圆形" fill="url(#linearGradient-21)" fill-rule="nonzero" transform="translate(17.752424, 16.935964) rotate(-41.630000) translate(-17.752424, -16.935964) " cx="17.7524244" cy="16.9359641" rx="14.7524244" ry="8.77611443"></ellipse>
                                <path d="M28.8602502,7.3 C29.3931547,7.8773027 29.7976099,8.56909626 30.0450687,9.32655281 C30.2925598,10.0915266 30.421776,10.8924263 30.427907,11.699437 C30.403125,13.3128811 30.0734475,14.9055427 29.4576099,16.3869119 C28.2274208,19.3404651 26.376967,21.9707276 24.0417684,24.0850694 C21.7477895,26.2522405 19.0168167,27.8595904 16.048369,28.7896895 C14.5586365,29.248777 12.9967763,29.4002194 11.4510093,29.2354625 C10.6799554,29.1324565 9.92994549,28.9008797 9.22988717,28.5496579 C8.53418547,28.2045935 7.91924827,27.7060985 7.42790698,27.0888939 C7.9627339,27.645652 8.59884905,28.0862652 9.29919411,28.3850647 C9.99625707,28.6714805 10.732517,28.8416024 11.4807123,28.8891312 C12.9783728,28.9642439 14.476514,28.7515102 15.8998542,28.2616199 C17.3292086,27.7861579 18.699531,27.1370076 19.9823624,26.3276507 C21.2745648,25.5275084 22.490212,24.6008888 23.6127255,23.5604288 C24.7394102,22.521394 25.7682605,21.3731992 26.6853327,20.1314055 C27.6024909,18.9014964 28.3778498,17.5642115 28.9955637,16.1468803 C29.6333344,14.7369838 30.0127433,13.2159859 30.1143756,11.6617177 C30.1586538,10.8838257 30.0828893,10.1035822 29.8899532,9.35055598 C29.6809091,8.60288864 29.3308907,7.90586017 28.8602502,7.3 Z" id="路径" fill="url(#linearGradient-22)" fill-rule="nonzero"></path>
                                <path d="M22.4735134,22.2908798 C19.7020332,24.6819627 16.5424772,26.2871187 13.5821105,26.8166203 C10.0413471,27.4493582 8.37571157,26.3004395 7.69572015,25.5578051 C7.01572874,24.8151707 6.03351891,23.0768068 7.09815194,19.7466077 C7.97389846,16.9525706 10.0035698,14.0852692 12.7819186,11.7108372 C15.5602673,9.33640529 18.7129548,7.71459833 21.6767558,7.18176648 C25.2140849,6.55235885 26.8831547,7.70127753 27.5597118,8.44058173 C28.236269,9.17988593 29.2219131,10.9249103 28.1607144,14.2584396 C27.2677963,17.0458162 25.2484279,19.8997968 22.4735134,22.2908798 Z" id="路径" fill="url(#linearGradient-23)" fill-rule="nonzero"></path>
                                <path d="M13.7750108,26.7196325 C12.8621512,26.9522154 11.9196635,27.0409184 10.980398,26.98265 C10.0145262,26.9280136 9.0837685,26.595147 8.29649622,26.0228069 C7.51057719,25.3901122 6.96985056,24.4947158 6.77002705,23.4951062 C6.58053362,22.5196626 6.58053362,21.5158727 6.77002705,20.5404291 C7.14811209,18.6298825 7.88885346,16.8128517 8.95069729,15.1912679 C11.0529299,11.9574415 13.9503961,9.34063284 17.3546649,7.6013343 C19.061072,6.71652141 20.9211062,6.18040386 22.8298246,6.02322929 C23.8031006,5.94594024 24.7818536,6.06195072 25.7116642,6.36481046 C26.6635465,6.68677113 27.4736237,7.33983111 27.9996905,8.20934879 C28.4662982,9.07530442 28.6804525,10.0588726 28.6169879,11.0444725 C28.559547,11.9967157 28.3592904,12.9343971 28.0231747,13.8249432 C28.2508934,12.9168269 28.3569738,11.9815314 28.3385331,11.0444725 C28.3254503,10.1330946 28.0628712,9.24351052 27.5803309,8.4757821 C27.0809896,7.75184479 26.3467881,7.23050445 25.5070167,7.00356725 C24.6544181,6.77240572 23.7667595,6.70636018 22.8902124,6.80886599 C21.1025888,7.03037968 19.3710673,7.58869246 17.7840892,8.45528723 C14.56267,10.183503 11.801836,12.6826719 9.73909345,15.7377978 C8.70678798,17.2406765 7.95820639,18.9260398 7.53158419,20.7078038 C7.32878459,21.5817312 7.28895429,22.4866589 7.41416349,23.3755528 C7.53689008,24.2523796 7.95988755,25.0568808 8.6084998,25.6470676 C9.30059123,26.2248268 10.1369796,26.5950274 11.0240114,26.7162166 C11.9365353,26.845551 12.8621798,26.8467003 13.7750108,26.7196325 Z" id="路径" fill="#008CFF" fill-rule="nonzero"></path>
                                <g id="编组" stroke-width="1" fill="none" fill-rule="evenodd" transform="translate(11.627907, 10.000000)">
                                    <path d="M5.28666667,2.513 L5.32333333,2.4815 C5.34888575,2.45743163 5.37682335,2.43631081 5.40666667,2.4185 L5.43666667,2.394 C5.46333333,2.373 5.49333333,2.359 5.52,2.3415 L5.56,2.317 C5.60088708,2.29315984 5.64319729,2.27211608 5.68666667,2.254 C5.79258811,2.20839129 5.9055533,2.18348246 6.02,2.1805 C6.09763694,2.17354974 6.17569639,2.17354974 6.25333333,2.1805 C6.4198135,2.20665052 6.57274288,2.29187924 6.68666667,2.422 C6.68762396,2.42896392 6.68762396,2.43603608 6.68666667,2.443 L6.29333333,1.8725 L6.29333333,1.855 C6.18117545,1.72249943 6.02736768,1.63678117 5.86,1.6135 C5.78236102,1.60660016 5.70430565,1.60660016 5.62666667,1.6135 C5.51242534,1.61827611 5.39975392,1.64312016 5.29333333,1.687 C5.24986396,1.70511608 5.20755375,1.72615984 5.16666667,1.75 L5.12666667,1.7745 L5.05666667,1.8165 L5.05666667,1.8165 L5.02666667,1.841 C4.99756229,1.85999441 4.96972041,1.88104286 4.94333333,1.904 L4.90666667,1.9355 L4.88,1.96 L4.80666667,2.0335 L0.306666667,6.811 L0.7,7.3815 L5.18666667,2.611 L5.28666667,2.513 Z" id="路径" fill="#1294FF" fill-rule="nonzero"></path>
                                    <path d="M4.61666667,6.7445 C4.61506522,6.71652525 4.61506522,6.68847475 4.61666667,6.6605 L4.61666667,6.608 C4.61515091,6.58936726 4.61515091,6.57063274 4.61666667,6.552 C4.61666667,6.552 4.61666667,6.517 4.61666667,6.4995 C4.61666667,6.482 4.61666667,6.4715 4.61666667,6.4575 C4.63433218,6.4046789 4.65549494,6.35321998 4.68,6.3035 L4.68,6.3035 C4.70333333,6.258 4.73,6.2125 4.75666667,6.167 L4.77666667,6.1355 L4.87333333,5.999 L4.95333333,5.908 C4.98164758,5.87806993 5.01170549,5.85001588 5.04333333,5.824 L5.06666667,5.803 L5.15333333,5.733 L5.15333333,5.733 L5.23333333,5.6875 L5.26,5.6875 L5.32666667,5.663 L5.35,5.663 L5.44,5.6385 L5.44,5.6385 L5.53333333,5.6385 L5.56333333,5.6385 L5.64333333,5.6385 L5.67333333,5.6385 L5.78333333,5.6385 L6.11666667,5.614 L6.21666667,5.614 L6.25666667,4.095 L5.86333333,3.5245 L5.82333333,5.0435 L5.72333333,5.0435 L5.39,5.068 L5.28,5.068 L5.33333333,5.068 L5.25333333,5.068 L5.22333333,5.068 L5.13,5.068 L5.13,5.068 C5.0996676,5.07332485 5.06962543,5.08033469 5.04,5.089 L5.01333333,5.089 L4.95,5.1135 L4.92333333,5.1135 C4.89527134,5.12718132 4.86848826,5.14358596 4.84333333,5.1625 L4.84333333,5.1625 L4.75666667,5.229 L4.73333333,5.25 L4.70666667,5.2745 C4.68392241,5.29361254 4.6627377,5.31468575 4.64333333,5.3375 C4.61607263,5.36496727 4.59046751,5.3941905 4.56666667,5.425 L4.56666667,5.425 C4.53333333,5.467 4.5,5.5125 4.47,5.558 L4.47,5.558 L4.47,5.579 C4.44177154,5.62278544 4.41616646,5.66837361 4.39333333,5.7155 L4.39333333,5.7155 C4.36882827,5.76521998 4.34766551,5.8166789 4.33,5.8695 C4.3317807,5.87518351 4.3317807,5.88131649 4.33,5.887 C4.33042567,5.89516055 4.33042567,5.90333945 4.33,5.9115 C4.33,5.9115 4.33,5.9465 4.33,5.964 C4.32848425,5.98263274 4.32848425,6.00136726 4.33,6.02 L4.33,6.0725 C4.32843882,6.08293602 4.32843882,6.09356398 4.33,6.104 C4.32837275,6.1214583 4.32837275,6.1390417 4.33,6.1565 C4.32506848,6.21822493 4.32506848,6.28027507 4.33,6.342 C4.32817123,6.36178686 4.32817123,6.38171314 4.33,6.4015 C4.33,6.4435 4.33,6.482 4.33,6.5205 L4.35,6.587 C4.35909756,6.62152582 4.37023013,6.65542451 4.38333333,6.6885 C4.39130705,6.71161335 4.40135209,6.73387987 4.41333333,6.755 C4.41333333,6.776 4.41333333,6.797 4.44,6.8145 L4.48,6.874 L4.87333333,7.4445 C4.84794748,7.40688333 4.82564536,7.36707404 4.80666667,7.3255 C4.79468543,7.30437987 4.78464038,7.28211335 4.77666667,7.259 C4.76356346,7.22592451 4.75243089,7.19202582 4.74333333,7.1575 L4.72333333,7.091 C4.72333333,7.0525 4.72333333,7.014 4.72333333,6.972 C4.72172487,6.95220262 4.72172487,6.93229738 4.72333333,6.9125 C4.6829887,6.86002048 4.64728534,6.80378769 4.61666667,6.7445 L4.61666667,6.7445 Z" id="路径" fill="#1294FF" fill-rule="nonzero"></path>
                                    <path d="M9.17333333,5.348 L9.66666667,5.313 L9.72333333,5.313 C9.94022134,5.30219151 10.1560889,5.35041725 10.35,5.453 C10.4834653,5.53315054 10.5975313,5.64453608 10.6833333,5.7785 L10.29,5.208 C10.2038064,5.07531007 10.0897704,4.9651513 9.95666667,4.886 C9.7638953,4.78005622 9.54715017,4.73163443 9.33,4.746 L9.27333333,4.746 L8.78,4.7845 L8.51666667,4.823 L8.91,5.3935 L9.17333333,5.348 Z" id="路径" fill="#1294FF" fill-rule="nonzero"></path>
                                    <path d="M5.69,9.5585 L5.75666667,9.5585 C5.82509014,9.54819886 5.89295899,9.53418005 5.96,9.5165 L6.00666667,9.5165 L6.24666667,9.4395 L6.30666667,9.415 C6.37111111,9.38933333 6.43444444,9.36133333 6.49666667,9.331 L6.55666667,9.303 C6.63666667,9.2645 6.71333333,9.2225 6.79,9.177 L6.83,9.1525 L6.95666667,9.072 L7.01,9.0335 L7.10666667,8.96 L7.24666667,8.848 L7.33333333,8.75 L7.38333333,8.7045 C7.43,8.659 7.48,8.6135 7.52666667,8.561 C7.57333333,8.5085 7.62666667,8.4525 7.67333333,8.4 L7.71666667,8.351 L7.79,8.2635 L7.79,8.2635 L7.87333333,8.1515 C7.88766842,8.13486803 7.90102643,8.11733564 7.91333333,8.099 C7.95217169,8.04903839 7.98780572,7.99642252 8.02,7.9415 L8.02,7.9415 C8.04906189,7.89759643 8.07577,7.85202571 8.1,7.805 C8.10899857,7.79178815 8.11680985,7.77772784 8.12333333,7.763 C8.13685161,7.73923727 8.14909297,7.71469892 8.16,7.6895 C8.16,7.6895 8.16,7.6895 8.16,7.672 C8.16974955,7.65678656 8.17759187,7.64031768 8.18333333,7.623 C8.18333333,7.5985 8.20666667,7.5705 8.21666667,7.5425 C8.22371129,7.52556057 8.22928936,7.50798966 8.23333333,7.49 C8.24029785,7.47666333 8.24588513,7.46258339 8.25,7.448 C8.25,7.448 8.25,7.448 8.25,7.42 C8.25,7.392 8.26666667,7.3605 8.27666667,7.3325 C8.27515091,7.31386726 8.27515091,7.29513274 8.27666667,7.2765 C8.28411772,7.24422019 8.28968364,7.21149256 8.29333333,7.1785 C8.29488406,7.16689015 8.29488406,7.15510985 8.29333333,7.1435 L8.29333333,7.1435 C8.29333333,7.084 8.29333333,7.0245 8.29333333,6.9615 C8.29511153,6.9463908 8.29511153,6.9311092 8.29333333,6.916 C8.29333333,6.86 8.29333333,6.8005 8.29333333,6.741 L8.29333333,6.741 C8.29333333,6.6745 8.29333333,6.6045 8.29333333,6.538 C8.29498209,6.52054281 8.29498209,6.50295719 8.29333333,6.4855 C8.29333333,6.419 8.29333333,6.349 8.29333333,6.279 C8.29891328,6.18692645 8.29891328,6.09457355 8.29333333,6.0025 L8.29333333,2.6145 C8.2928836,2.53602545 8.28731501,2.45767541 8.27666667,2.38 C8.27828432,2.36956869 8.27828432,2.35893131 8.27666667,2.3485 C8.26686961,2.27896332 8.25351698,2.21003039 8.23666667,2.142 L8.23666667,2.1035 C8.22056526,2.03763517 8.1993842,1.97325589 8.17333333,1.911 C8.17458825,1.90054134 8.17458825,1.88995866 8.17333333,1.8795 C8.1466666,1.81707921 8.11661741,1.75631307 8.08333333,1.6975 L8.08333333,1.6975 C8.06333333,1.666 8.04333333,1.631 8.02,1.5995 L7.66666667,0.9835 L7.73,1.085 C7.76329582,1.14500851 7.79334349,1.20694009 7.82,1.2705 C7.8211905,1.27979148 7.8211905,1.28920852 7.82,1.2985 C7.84607097,1.36194906 7.86725007,1.42749282 7.88333333,1.4945 L7.88333333,1.5295 C7.90049985,1.59863452 7.91385535,1.66875089 7.92333333,1.7395 C7.92333333,1.7395 7.92333333,1.7605 7.92333333,1.771 C7.9285442,1.8479028 7.9285442,1.9250972 7.92333333,2.002 L7.92333333,5.39 C7.9299723,5.48203486 7.9299723,5.57446514 7.92333333,5.6665 C7.92333333,5.7365 7.92333333,5.8065 7.92333333,5.873 C7.92498209,5.89045719 7.92498209,5.90804281 7.92333333,5.9255 C7.92333333,5.9955 7.92333333,6.062 7.92333333,6.1285 L7.92333333,6.1285 C7.92333333,6.188 7.92333333,6.2475 7.92333333,6.307 C7.92497215,6.32094712 7.92497215,6.33505288 7.92333333,6.349 C7.92333333,6.412 7.92333333,6.4715 7.92333333,6.5345 L7.92333333,6.5765 C7.91968364,6.60949256 7.91411772,6.64222019 7.90666667,6.6745 C7.90551852,6.6931472 7.90551852,6.7118528 7.90666667,6.7305 L7.88,6.8215 C7.88,6.8425 7.88,6.867 7.85666667,6.8915 C7.85808971,6.90896811 7.85808971,6.92653189 7.85666667,6.944 L7.82333333,7.021 C7.8169507,7.039147 7.80914619,7.05670715 7.8,7.0735 C7.8,7.1015 7.77333333,7.133 7.75666667,7.161 L7.73333333,7.2065 C7.71,7.2485 7.68333333,7.294 7.65333333,7.3395 C7.62113905,7.39442252 7.58550502,7.44703839 7.54666667,7.497 C7.53435976,7.51533564 7.52100175,7.53286803 7.50666667,7.5495 L7.42333333,7.6615 L7.33666667,7.763 L7.29333333,7.812 C7.24666667,7.8645 7.2,7.9205 7.14666667,7.9765 C7.09333333,8.0325 7.02,8.1025 6.95333333,8.162 L6.86,8.2425 L6.72,8.3545 L6.62333333,8.428 C6.56333333,8.47 6.50333333,8.512 6.44333333,8.547 L6.40333333,8.5715 C6.32805483,8.61945861 6.25014104,8.66270076 6.17,8.701 L6.11,8.729 L5.92,8.8095 L5.86,8.834 C5.78,8.862 5.7,8.89 5.62,8.911 L5.57333333,8.911 C5.50629233,8.92868005 5.43842347,8.94269886 5.37,8.953 L5.30333333,8.953 C5.22333333,8.953 5.14333333,8.974 5.06333333,8.9775 C4.37317878,9.03650266 3.69782861,8.74504878 3.24666667,8.1935 L3.16,8.078 L3.55333333,8.6485 L3.64,8.764 C4.09213765,9.31412873 4.76676948,9.60527259 5.45666667,9.548 C5.53417596,9.55637509 5.61209249,9.55988133 5.69,9.5585 Z" id="路径" fill="#1294FF" fill-rule="nonzero"></path>
                                    <path d="M12.9266667,6.699 C12.9266667,6.657 12.9266667,6.6185 12.9266667,6.5765 L12.9266667,6.475 C12.9266667,6.4365 12.9266667,6.3945 12.9266667,6.3525 C12.9283177,6.31985633 12.9283177,6.28714367 12.9266667,6.2545 C12.9266667,6.2125 12.9266667,6.1705 12.9266667,6.1285 C12.9282814,6.09702281 12.9282814,6.06547719 12.9266667,6.034 C12.9266667,5.992 12.91,5.95 12.9033333,5.908 L12.8833333,5.8135 C12.8833333,5.7715 12.86,5.726 12.8466667,5.684 C12.8404327,5.65555244 12.832642,5.62750591 12.8233333,5.6 L12.7733333,5.4565 L12.7466667,5.3865 C12.7200755,5.31608429 12.6900355,5.24715898 12.6566667,5.18 L12.2633333,4.6095 C12.2967021,4.67665898 12.3267422,4.74558429 12.3533333,4.816 C12.3533333,4.8405 12.37,4.865 12.38,4.886 L12.43,5.0295 C12.4393087,5.05700591 12.4470994,5.08505244 12.4533333,5.1135 C12.4533333,5.159 12.48,5.201 12.49,5.243 L12.51,5.3375 C12.51,5.3795 12.5266667,5.4215 12.5333333,5.4635 C12.5351805,5.49613788 12.5351805,5.52886212 12.5333333,5.5615 C12.5333333,5.6 12.5333333,5.642 12.5333333,5.684 C12.5351045,5.71780778 12.5351045,5.75169222 12.5333333,5.7855 C12.5333333,5.824 12.5333333,5.866 12.5333333,5.9045 L12.5333333,6.006 C12.5333333,6.048 12.5333333,6.0865 12.5333333,6.1285 C12.5351743,6.16230572 12.5351743,6.19619428 12.5333333,6.23 C12.53017,6.28176815 12.5234863,6.33323265 12.5133333,6.384 C12.5133333,6.4575 12.4866667,6.5275 12.47,6.601 L12.45,6.671 L12.41,6.8145 C12.41,6.8355 12.3933333,6.86 12.3833333,6.8845 C12.3733333,6.909 12.35,6.9755 12.33,7.021 L12.2966667,7.098 C12.2966667,7.14 12.2566667,7.182 12.2366667,7.2275 C12.2231484,7.25126273 12.210907,7.27580108 12.2,7.301 L12.12,7.4375 C12.1097265,7.45858487 12.0974414,7.47852037 12.0833333,7.497 C12.05,7.5565 12.01,7.6125 11.97,7.672 L11.9533333,7.693 C11.91,7.756 11.86,7.819 11.81,7.882 C11.76,7.945 11.6933333,8.0185 11.63,8.085 L6.97,12.9185 L6.88333333,12.999 L6.83333333,13.041 L6.76,13.097 L6.71333333,13.132 L6.67666667,13.1565 L6.53666667,13.2405 L6.49,13.265 C6.43366385,13.2930931 6.3757835,13.3176366 6.31666667,13.3385 L6.29333333,13.3385 C6.24207266,13.3561927 6.18973099,13.3702248 6.13666667,13.3805 L6.09,13.3805 L5.91,13.4015 C5.40144649,13.4290492 4.91392321,13.1856008 4.61333333,12.754 L5,13.342 C5.30167958,13.7771817 5.79123037,14.024336 6.30333333,14 C6.36371262,13.9952724 6.4238017,13.9870936 6.48333333,13.9755 L6.53,13.9755 L6.68666667,13.93 L6.71,13.93 C6.76964327,13.9106611 6.82762661,13.8860739 6.88333333,13.8565 L6.93,13.8355 C6.97807029,13.8101618 7.02480476,13.7821211 7.07,13.7515 L7.09333333,13.7515 L7.09333333,13.7515 L7.14,13.7165 L7.21333333,13.6605 L7.26333333,13.6185 L7.30666667,13.58 C7.32193481,13.5657236 7.33640343,13.5505315 7.35,13.5345 L12,8.6555 C12.0633333,8.589 12.1233333,8.519 12.18,8.449 L12.18,8.449 L12.3133333,8.2705 L12.33,8.246 C12.3674253,8.19694481 12.4019352,8.14551395 12.4333333,8.092 L12.4333333,8.0745 L12.4666667,8.015 L12.5466667,7.8785 L12.5833333,7.805 L12.6166667,7.735 C12.6269337,7.71467344 12.635844,7.69362281 12.6433333,7.672 C12.6564383,7.64733743 12.6675871,7.62158376 12.6766667,7.595 C12.6966667,7.5495 12.7133333,7.504 12.73,7.4585 C12.7466667,7.413 12.7466667,7.413 12.7566667,7.392 C12.7546909,7.38396509 12.7546909,7.37553491 12.7566667,7.3675 C12.7566667,7.3255 12.78,7.287 12.79,7.245 C12.7986403,7.22233918 12.8053336,7.19891258 12.81,7.175 C12.8279598,7.10467028 12.8424238,7.03340736 12.8533333,6.9615 C12.8549002,6.93819567 12.8549002,6.91480433 12.8533333,6.8915 L12.8533333,6.8075 L12.9266667,6.699 Z" id="路径" fill="#1294FF" fill-rule="nonzero"></path>
                                    <polyline id="路径" fill="#857573" fill-rule="nonzero" points="0.243333333 6.7235 0.64 7.294 0.64 7.294 0.246666667 6.7235 0.246666667 6.7235"></polyline>
                                    <polygon id="路径" fill="#80716F" fill-rule="nonzero" points="0.306666667 6.811 0.7 7.3815 0.636666667 7.294 0.246666667 6.7235"></polygon>
                                    <g transform="translate(12.000000, 4.200000)" fill-rule="nonzero" id="路径">
                                        <path d="M0.0863668681,0.124944069 L0.765786231,0.781908046 C0.846395308,0.858486669 0.921246593,0.935065292 0.990340088,1.01567437 L0.310920725,0.358710392 C0.241827231,0.278101315 0.166975945,0.201522692 0.0863668681,0.124944069" fill="#A3908E"></path>
                                        <path d="M0.310920725,0.358710392 L0.990340088,1.01567437 C1.02443225,1.05188798 1.05520247,1.08958151 1.08246475,1.12852708 L0.403045385,0.4715631 C0.403045385,0.435289015 0.345467472,0.394984477 0.310920725,0.358710392" fill="#A89592"></path>
                                    </g>
                                    <polygon id="路径" fill="#80716F" fill-rule="nonzero" points="4.61333333 12.7715 5.00666667 13.342 4.90666667 13.202 4.51333333 12.6315"></polygon>
                                    <path d="M5.05666667,9.016 C4.36651211,9.07500266 3.69116194,8.78354878 3.24,8.232 C2.83220009,7.69523466 2.66128578,7.00157711 2.77,6.3245 C2.88079131,5.59663139 3.21150613,4.92544391 3.71333333,4.41 C4.48333333,3.598 4.88666667,3.556 5.66666667,3.4825 L5.93666667,3.451 L5.89666667,4.97 L5.79666667,4.97 L5.46333333,4.9945 C5.1470126,4.9696064 4.83732892,5.09864127 4.62333333,5.3445 C4.40361655,5.56913822 4.26265619,5.86515497 4.22333333,6.1845 C4.18240526,6.47537753 4.26667253,6.77031297 4.45333333,6.9895 C4.64219844,7.19743658 4.91065464,7.30426744 5.18333333,7.28 L5.21333333,7.28 C5.53786255,7.24905245 5.84086006,7.09619258 6.06666667,6.8495 C6.2952414,6.62764192 6.40391809,6.30104972 6.35666667,5.978 C6.35666667,5.8485 6.35666667,5.705 6.35666667,5.6805 L6.41333333,2.3625 C6.42815705,2.18692506 6.37935195,2.01194092 6.27666667,1.8725 C6.16450879,1.73999943 6.01070102,1.65428117 5.84333333,1.631 C5.76569435,1.62410016 5.68763898,1.62410016 5.61,1.631 C5.49575867,1.63577611 5.38308725,1.66062016 5.27666667,1.7045 C5.08922188,1.78455949 4.91914278,1.90361486 4.77666667,2.0545 L0.306666667,6.811 L0.243333333,6.7235 C-0.09,6.251 0.05,5.4355 0.576666667,4.886 L3.96666667,1.3055 C4.29661359,0.94472137 4.69683808,0.66297243 5.14,0.4795 C5.42213407,0.356313079 5.72173548,0.282989575 6.02666667,0.2625 C6.1714188,0.255516574 6.31647587,0.262546263 6.46,0.2835 C6.86836545,0.324652038 7.25028674,0.514021345 7.54,0.819 C7.82298354,1.14053567 7.97699886,1.56425689 7.97,2.002 L7.97,5.39 C7.97663897,5.48203486 7.97663897,5.57446514 7.97,5.6665 C8.02,6.531 8.02666667,7.0665 7.14666667,7.9905 C6.59397491,8.59081238 5.8498051,8.95595408 5.05666667,9.016 Z M12.2333333,4.6095 C11.9598299,4.0892672 11.5426084,3.66826863 11.0366667,3.402 C10.56132,3.15943668 10.0340546,3.05088204 9.50666667,3.087 L9.38666667,3.087 L8.90666667,3.136 L8.43666667,3.1885 L8.51666667,4.809 L8.78,4.7705 L9.27333333,4.732 L9.33333333,4.732 C9.5504835,4.71763443 9.76722863,4.76605622 9.96,4.872 C10.1601491,4.98964938 10.3208046,5.1693391 10.42,5.3865 C10.626464,5.86091178 10.5096342,6.42149068 10.1333333,6.762 L4.51333333,12.6315 L4.61333333,12.7715 C4.91392321,13.2031008 5.40144649,13.4465492 5.91,13.419 C6.3090823,13.3911193 6.6853076,13.2134771 6.97,12.9185 L11.6166667,8.085 C12.0716621,7.62764463 12.3802962,7.0333202 12.5,6.384 C12.6006644,5.77781336 12.5068727,5.15368839 12.2333333,4.6095 Z" id="形状" fill="url(#linearGradient-24)" fill-rule="nonzero"></path>
                                </g>
                            </g>
                        </g>
                    </g>
                </g>
            </g>
        </g>
    </g>
</svg>