<?xml version="1.0" encoding="UTF-8"?>
<svg width="36px" height="36px" viewBox="0 0 36 36" version="1.1" xmlns="http://www.w3.org/2000/svg" xmlns:xlink="http://www.w3.org/1999/xlink">
    <title>设置</title>
    <g id="H5" stroke="none" stroke-width="1" fill="none" fill-rule="evenodd">
        <g id="画板" transform="translate(-1807.000000, -484.000000)" fill-rule="nonzero" stroke="#FFFFFF" stroke-width="2">
            <g id="编组-10备份" transform="translate(45.000000, 465.000000)">
                <g id="设置" transform="translate(1780.000000, 37.000000) scale(-1, 1) translate(-1780.000000, -37.000000) translate(1762.000000, 19.000000)">
                    <path d="M18,1 C22.6944204,1 26.9444204,2.90278981 30.0208153,5.97918472 C33.0972102,9.05557963 35,13.3055796 35,18 C35,22.6944204 33.0972102,26.9444204 30.0208153,30.0208153 C26.9444204,33.0972102 22.6944204,35 18,35 C13.3055796,35 9.05557963,33.0972102 5.97918472,30.0208153 C2.90278981,26.9444204 1,22.6944204 1,18 C1,13.3055796 2.90278981,9.05557963 5.97918472,5.97918472 C9.05557963,2.90278981 13.3055796,1 18,1 Z" id="路径备份-2"></path>
                    <path d="M18.1994765,15 C19.0496907,15 19.8038617,15.318226 20.3428077,15.8570281 C20.8817166,16.3957932 21.2,17.1496885 21.2,17.9994556 C21.2,18.8496936 20.8817584,19.6038825 20.3428205,20.1428205 C19.8038825,20.6817584 19.0496936,21 18.1994556,21 C17.3496973,21 16.5958073,20.6817155 16.0570458,20.1428045 C15.5182458,19.603855 15.2000209,18.8496785 15.2000209,17.9994556 C15.2000209,17.149703 15.5182882,16.3958196 16.0570644,15.8570434 C16.5958406,15.3182673 17.349724,15 18.1994765,15 Z" id="路径"></path>
                    <path d="M19.6479406,7.99999992 C19.92421,8.00010936 20.1743251,8.11214257 20.3554209,8.29319868 C20.5365166,8.4742548 20.6486045,8.72434539 20.6487742,9.00021867 L20.6487742,9.00021867 L20.6492987,11.3983153 C21.4363555,11.6708237 22.1522472,12.0763105 22.7719438,12.5907886 L22.7719438,12.5907886 L24.8199937,11.4087553 C25.0592735,11.2707413 25.3318524,11.2427378 25.5791537,11.3090218 C25.8264551,11.3753059 26.0484895,11.5358803 26.1865335,11.7748297 L26.1865335,11.7748297 L27.6012332,14.2251614 C27.7393035,14.464312 27.7673695,14.7367867 27.7011316,14.9839929 C27.6348936,15.231199 27.4743517,15.453137 27.2352137,15.5912085 L27.2352137,15.5912085 L25.1666286,16.7855224 L25.214308,17.4127937 C25.2289841,17.6058717 25.2364338,17.8014996 25.2364338,17.9994213 C25.2364338,18.1976469 25.2289693,18.3935693 25.2142642,18.5869321 L25.2142642,18.5869321 L25.1665614,19.2141944 L27.2351356,20.408635 C27.4742881,20.5467581 27.6348298,20.7687365 27.7010707,21.0159778 C27.7673117,21.2632191 27.739253,21.5357273 27.6012383,21.7748297 L27.6012383,21.7748297 L26.1865924,24.2250683 C26.0484741,24.4642311 25.8264969,24.6247871 25.5792518,24.6910449 C25.3320066,24.7573026 25.0594889,24.7292634 24.8203866,24.5912759 L24.8203866,24.5912759 L22.7728342,23.4092987 C22.1529318,23.9242246 21.4367245,24.3300198 20.6492796,24.6026831 L20.6492796,24.6026831 L20.6487658,26.9993973 C20.6485992,27.2756642 20.5365144,27.525753 20.3554213,27.7068073 C20.1743281,27.8878616 19.9242153,27.9998928 19.6483367,28 L19.6483367,28 L16.819406,28.0000001 C16.54311,27.9998678 16.2929708,27.8878127 16.1118476,27.7067374 C15.9307244,27.5256622 15.8186033,27.2755526 15.8183981,26.9997356 L15.8183981,26.9997356 L15.8177638,24.6010152 C15.0315956,24.3280467 14.3165156,23.9222285 13.6975421,23.4075084 L13.6975421,23.4075084 L11.6469836,24.5912174 C11.4077781,24.7292633 11.1352594,24.757302 10.8880134,24.6910439 C10.6407675,24.6247857 10.4187894,24.4642294 10.2807303,24.2251703 L10.2807303,24.2251703 L8.86604851,21.7748697 C8.72798096,21.5357042 8.69991799,21.2632157 8.76615717,21.0159951 C8.83239634,20.7687745 8.99293816,20.5468199 9.23204739,20.4087473 L9.23204739,20.4087473 L11.305909,19.2113322 L11.2584435,18.5842776 C11.243872,18.3917763 11.2364756,18.1967398 11.2364756,17.9994213 C11.2364756,17.8024025 11.2438575,17.6076566 11.2584007,17.4154362 L11.2584007,17.4154362 L11.305844,16.7883697 L9.23201377,15.5911147 C8.99287227,15.4530695 8.83233132,15.23116 8.76608891,14.9839782 C8.6998429,14.736783 8.72790421,14.4643142 8.86594573,14.2252051 L8.86594573,14.2252051 L10.2805908,11.775071 C10.4187734,11.5358858 10.6408107,11.3753104 10.8881148,11.3090251 C11.1354189,11.2427398 11.4080008,11.2707415 11.6470429,11.4086146 L11.6470429,11.4086146 L13.6984465,12.5925721 C14.3172155,12.0783029 15.0319814,11.6727956 15.8177639,11.3999835 L15.8177639,11.3999835 L15.818398,9.00074315 C15.8186033,8.72444722 15.9307245,8.47433772 16.1118476,8.29326245 C16.2929708,8.11218719 16.5431099,8.00013219 16.818927,8 L16.818927,8 Z" id="路径"></path>
                </g>
            </g>
        </g>
    </g>
</svg>