<svg width="22" height="22" viewBox="0 0 22 22" fill="none" xmlns="http://www.w3.org/2000/svg">
<g clip-path="url(#clip0_31_92)">
<path d="M17.2425 15.9005C16.0594 17.5032 14.3362 18.6237 12.3913 19.0551C10.4465 19.4864 8.41118 19.1994 6.66139 18.2471C4.91159 17.2948 3.56548 15.7416 2.87164 13.8742C2.17779 12.0068 2.18309 9.95135 2.88655 8.08755C3.59002 6.22374 4.94412 4.67743 6.6988 3.73417C8.45348 2.79092 10.4902 2.51443 12.4328 2.95579C14.3755 3.39714 16.0928 4.52652 17.2677 6.13534C18.4425 7.74417 18.9956 9.72378 18.8247 11.7086H20.6635C20.6791 11.4748 20.6873 11.2383 20.6873 11C20.6873 5.43124 16.1737 0.916656 10.604 0.916656C5.03524 0.916656 0.52066 5.43124 0.52066 11C0.52066 16.5687 5.03524 21.0833 10.604 21.0833C13.9388 21.0833 16.8951 19.4645 18.7312 16.9702L19.3123 19.1418L21.0833 18.667L19.8972 14.2395C19.866 14.1232 19.8122 14.0142 19.7389 13.9187C19.6656 13.8232 19.5742 13.743 19.4699 13.6828C19.3657 13.6227 19.2506 13.5836 19.1312 13.5679C19.0118 13.5522 18.8905 13.5602 18.7742 13.5914L14.3467 14.7776L14.8216 16.5486L17.2416 15.9005H17.2425Z" fill="#C23631"/>
<path d="M11 11H15V13H10C9.73478 13 9.48043 12.8946 9.29289 12.7071C9.10536 12.5196 9 12.2652 9 12V7H11V11Z" fill="#C23631"/>
</g>
<defs>
<clipPath id="clip0_31_92">
<rect width="22" height="22" fill="white"/>
</clipPath>
</defs>
</svg>
